<?xml version="1.0" encoding="UTF-8" standalone="no"?>
<!-- Created with Inkscape (http://www.inkscape.org/) -->

<svg
   xmlns:dc="http://purl.org/dc/elements/1.1/"
   xmlns:cc="http://creativecommons.org/ns#"
   xmlns:rdf="http://www.w3.org/1999/02/22-rdf-syntax-ns#"
   xmlns:svg="http://www.w3.org/2000/svg"
   xmlns="http://www.w3.org/2000/svg"
   xmlns:sodipodi="http://sodipodi.sourceforge.net/DTD/sodipodi-0.dtd"
   xmlns:inkscape="http://www.inkscape.org/namespaces/inkscape"
   width="111.6334mm"
   height="26.602795mm"
   viewBox="0 0 111.6334 26.602795"
   version="1.1"
   id="svg1308"
   inkscape:version="0.92.3 (2405546, 2018-03-11)"
   sodipodi:docname="treinamento_do_discriminador.svg">
  <defs
     id="defs1302">
    <marker
       inkscape:stockid="Arrow2Mend"
       orient="auto"
       refY="0"
       refX="0"
       id="marker3927"
       style="overflow:visible"
       inkscape:isstock="true">
      <path
         inkscape:connector-curvature="0"
         id="path3925"
         style="fill:#008000;fill-opacity:1;fill-rule:evenodd;stroke:#008000;stroke-width:0.625;stroke-linejoin:round;stroke-opacity:1"
         d="M 8.7185878,4.0337352 -2.2072895,0.01601326 8.7185884,-4.0017078 c -1.7454984,2.3720609 -1.7354408,5.6174519 -6e-7,8.035443 z"
         transform="scale(-0.6)" />
    </marker>
    <marker
       inkscape:stockid="Arrow2Mend"
       orient="auto"
       refY="0"
       refX="0"
       id="marker2098-2-3"
       style="overflow:visible"
       inkscape:isstock="true">
      <path
         inkscape:connector-curvature="0"
         id="path2096-9-67"
         style="fill:#000000;fill-opacity:1;fill-rule:evenodd;stroke:#000000;stroke-width:0.625;stroke-linejoin:round;stroke-opacity:1"
         d="M 8.7185878,4.0337352 -2.2072895,0.01601326 8.7185884,-4.0017078 c -1.7454984,2.3720609 -1.7354408,5.6174519 -6e-7,8.035443 z"
         transform="scale(-0.6)" />
    </marker>
    <marker
       inkscape:isstock="true"
       style="overflow:visible"
       id="marker4147"
       refX="0"
       refY="0"
       orient="auto"
       inkscape:stockid="Arrow2Mend"
       inkscape:collect="always">
      <path
         transform="scale(-0.6)"
         d="M 8.7185878,4.0337352 -2.2072895,0.01601326 8.7185884,-4.0017078 c -1.7454984,2.3720609 -1.7354408,5.6174519 -6e-7,8.035443 z"
         style="fill:#000000;fill-opacity:1;fill-rule:evenodd;stroke:#000000;stroke-width:0.625;stroke-linejoin:round;stroke-opacity:1"
         id="path4145"
         inkscape:connector-curvature="0" />
    </marker>
    <marker
       inkscape:stockid="Arrow2Mend"
       orient="auto"
       refY="0"
       refX="0"
       id="marker2098-2"
       style="overflow:visible"
       inkscape:isstock="true">
      <path
         inkscape:connector-curvature="0"
         id="path2096-9"
         style="fill:#000000;fill-opacity:1;fill-rule:evenodd;stroke:#000000;stroke-width:0.625;stroke-linejoin:round;stroke-opacity:1"
         d="M 8.7185878,4.0337352 -2.2072895,0.01601326 8.7185884,-4.0017078 c -1.7454984,2.3720609 -1.7354408,5.6174519 -6e-7,8.035443 z"
         transform="scale(-0.6)" />
    </marker>
    <marker
       inkscape:stockid="Arrow2Mend"
       orient="auto"
       refY="0"
       refX="0"
       id="marker2098"
       style="overflow:visible"
       inkscape:isstock="true"
       inkscape:collect="always">
      <path
         id="path2096"
         style="fill:#000000;fill-opacity:1;fill-rule:evenodd;stroke:#000000;stroke-width:0.625;stroke-linejoin:round;stroke-opacity:1"
         d="M 8.7185878,4.0337352 -2.2072895,0.01601326 8.7185884,-4.0017078 c -1.7454984,2.3720609 -1.7354408,5.6174519 -6e-7,8.035443 z"
         transform="scale(-0.6)"
         inkscape:connector-curvature="0" />
    </marker>
    <marker
       inkscape:isstock="true"
       style="overflow:visible"
       id="marker2748"
       refX="0"
       refY="0"
       orient="auto"
       inkscape:stockid="Arrow2Mend"
       inkscape:collect="always">
      <path
         transform="scale(-0.6)"
         d="M 8.7185878,4.0337352 -2.2072895,0.01601326 8.7185884,-4.0017078 c -1.7454984,2.3720609 -1.7354408,5.6174519 -6e-7,8.035443 z"
         style="fill:#000000;fill-opacity:1;fill-rule:evenodd;stroke:#000000;stroke-width:0.625;stroke-linejoin:round;stroke-opacity:1"
         id="path2746"
         inkscape:connector-curvature="0" />
    </marker>
    <marker
       inkscape:stockid="Arrow2Mend"
       orient="auto"
       refY="0"
       refX="0"
       id="marker4716"
       style="overflow:visible"
       inkscape:isstock="true">
      <path
         inkscape:connector-curvature="0"
         id="path4714"
         style="fill:#575757;fill-opacity:1;fill-rule:evenodd;stroke:#575757;stroke-width:0.625;stroke-linejoin:round;stroke-opacity:1"
         d="M 8.7185878,4.0337352 -2.2072895,0.01601326 8.7185884,-4.0017078 c -1.7454984,2.3720609 -1.7354408,5.6174519 -6e-7,8.035443 z"
         transform="scale(-0.6)" />
    </marker>
    <marker
       inkscape:stockid="Arrow2Mend"
       orient="auto"
       refY="0"
       refX="0"
       id="marker2098-2-3-9"
       style="overflow:visible"
       inkscape:isstock="true">
      <path
         inkscape:connector-curvature="0"
         id="path2096-9-67-20"
         style="fill:#000000;fill-opacity:1;fill-rule:evenodd;stroke:#000000;stroke-width:0.625;stroke-linejoin:round;stroke-opacity:1"
         d="M 8.7185878,4.0337352 -2.2072895,0.01601326 8.7185884,-4.0017078 c -1.7454984,2.3720609 -1.7354408,5.6174519 -6e-7,8.035443 z"
         transform="scale(-0.6)" />
    </marker>
    <marker
       inkscape:isstock="true"
       style="overflow:visible"
       id="marker4147-0"
       refX="0"
       refY="0"
       orient="auto"
       inkscape:stockid="Arrow2Mend">
      <path
         inkscape:connector-curvature="0"
         transform="scale(-0.6)"
         d="M 8.7185878,4.0337352 -2.2072895,0.01601326 8.7185884,-4.0017078 c -1.7454984,2.3720609 -1.7354408,5.6174519 -6e-7,8.035443 z"
         style="fill:#000000;fill-opacity:1;fill-rule:evenodd;stroke:#000000;stroke-width:0.625;stroke-linejoin:round;stroke-opacity:1"
         id="path4145-6" />
    </marker>
    <marker
       inkscape:stockid="Arrow2Mend"
       orient="auto"
       refY="0"
       refX="0"
       id="marker2098-2-2"
       style="overflow:visible"
       inkscape:isstock="true">
      <path
         inkscape:connector-curvature="0"
         id="path2096-9-6"
         style="fill:#000000;fill-opacity:1;fill-rule:evenodd;stroke:#000000;stroke-width:0.625;stroke-linejoin:round;stroke-opacity:1"
         d="M 8.7185878,4.0337352 -2.2072895,0.01601326 8.7185884,-4.0017078 c -1.7454984,2.3720609 -1.7354408,5.6174519 -6e-7,8.035443 z"
         transform="scale(-0.6)" />
    </marker>
  </defs>
  <sodipodi:namedview
     id="base"
     pagecolor="#ffffff"
     bordercolor="#666666"
     borderopacity="1.0"
     inkscape:pageopacity="0.0"
     inkscape:pageshadow="2"
     inkscape:zoom="1.4"
     inkscape:cx="230.71128"
     inkscape:cy="36.587347"
     inkscape:document-units="mm"
     inkscape:current-layer="layer1"
     showgrid="false"
     inkscape:window-width="1323"
     inkscape:window-height="713"
     inkscape:window-x="43"
     inkscape:window-y="27"
     inkscape:window-maximized="1"
     fit-margin-left="0.1"
     fit-margin-top="0.1"
     fit-margin-bottom="0.1"
     fit-margin-right="0.1" />
  <metadata
     id="metadata1305">
    <rdf:RDF>
      <cc:Work
         rdf:about="">
        <dc:format>image/svg+xml</dc:format>
        <dc:type
           rdf:resource="http://purl.org/dc/dcmitype/StillImage" />
        <dc:title />
      </cc:Work>
    </rdf:RDF>
  </metadata>
  <g
     inkscape:label="Capa 1"
     inkscape:groupmode="layer"
     id="layer1"
     transform="translate(-110.51861,-118.6175)">
    <text
       xml:space="preserve"
       style="font-style:normal;font-weight:normal;font-size:3.21037459px;line-height:1;font-family:sans-serif;text-align:center;letter-spacing:0px;word-spacing:0px;text-anchor:middle;fill:#000000;fill-opacity:1;stroke:none;stroke-width:0.08025937"
       x="138.22792"
       y="114.62634"
       id="text984-35-3"
       transform="scale(0.88671687,1.1277557)"
       inkscape:export-xdpi="94.445213"
       inkscape:export-ydpi="94.445213"><tspan
         sodipodi:role="line"
         x="138.22792"
         y="114.62634"
         style="line-height:1;text-align:center;text-anchor:middle;fill:#000000;fill-opacity:1;stroke-width:0.08025937"
         id="tspan959">Vetor de ruído</tspan><tspan
         sodipodi:role="line"
         x="138.22792"
         y="117.83672"
         style="line-height:1;text-align:center;text-anchor:middle;fill:#000000;fill-opacity:1;stroke-width:0.08025937"
         id="tspan957">Gaussiana</tspan><tspan
         sodipodi:role="line"
         x="138.22792"
         y="121.04709"
         style="line-height:1;text-align:center;text-anchor:middle;fill:#000000;fill-opacity:1;stroke-width:0.08025937"
         id="tspan1118" /></text>
    <rect
       style="opacity:1;fill:none;fill-opacity:1;stroke:#4d4d4d;stroke-width:0.38800001;stroke-linejoin:round;stroke-miterlimit:4;stroke-dasharray:3.104, 1.552;stroke-dashoffset:0;stroke-opacity:1"
       id="rect5190"
       width="111.0454"
       height="26.014795"
       x="110.81261"
       y="118.9115"
       ry="3.6546044" />
    <rect
       style="opacity:1;fill:#8eed8f;fill-opacity:0.6156863;stroke:#008000;stroke-width:0.36199999;stroke-linejoin:round;stroke-miterlimit:4;stroke-dasharray:2.172, 0.72399999999999998;stroke-dashoffset:0;stroke-opacity:1"
       id="rect208-3"
       width="20.283669"
       height="10.134295"
       x="185.27661"
       y="123.9362"
       ry="2.2837844" />
    <rect
       style="opacity:1;fill:#ececec;fill-opacity:1;stroke:#0000ff;stroke-width:0.36178967;stroke-linejoin:round;stroke-miterlimit:4;stroke-dasharray:none;stroke-dashoffset:0;stroke-opacity:0.46511631"
       id="rect208-3-6"
       width="18.562525"
       height="10.150402"
       x="138.78551"
       y="123.9698"
       ry="2.2874146" />
    <text
       xml:space="preserve"
       style="font-style:normal;font-weight:normal;font-size:2.98017859px;line-height:1.25;font-family:sans-serif;letter-spacing:0px;word-spacing:0px;fill:#000000;fill-opacity:1;stroke:none;stroke-width:0.07450446"
       x="168.08105"
       y="110.12424"
       id="text1949"
       transform="scale(0.84513701,1.1832401)"><tspan
         sodipodi:role="line"
         id="tspan1947"
         x="168.08105"
         y="110.12424"
         style="stroke-width:0.07450446">Geradora</tspan></text>
    <path
       style="fill:none;stroke:#000000;stroke-width:0.23733844;stroke-linecap:butt;stroke-linejoin:miter;stroke-miterlimit:4;stroke-dasharray:none;stroke-opacity:1;marker-end:url(#marker2748)"
       d="m 133.61055,129.27294 h 4.27772"
       id="path1990"
       inkscape:connector-curvature="0" />
    <path
       style="fill:none;stroke:#000000;stroke-width:0.23733844;stroke-linecap:butt;stroke-linejoin:miter;stroke-miterlimit:4;stroke-dasharray:none;stroke-opacity:1;marker-end:url(#marker2098)"
       d="m 157.58831,129.01447 h 4.53949"
       id="path2088"
       inkscape:connector-curvature="0" />
    <path
       style="fill:none;stroke:#000000;stroke-width:0.23733844;stroke-linecap:butt;stroke-linejoin:miter;stroke-miterlimit:4;stroke-dasharray:none;stroke-opacity:1;marker-end:url(#marker2098-2)"
       d="m 178.30335,129.01447 h 6.19711"
       id="path2088-1"
       inkscape:connector-curvature="0" />
    <text
       xml:space="preserve"
       style="font-style:normal;font-weight:normal;font-size:3.0162878px;line-height:1;font-family:sans-serif;text-align:center;letter-spacing:0px;word-spacing:0px;text-anchor:middle;fill:#000000;fill-opacity:1;stroke:none;stroke-width:0.07540718"
       x="179.14554"
       y="122.42322"
       id="text984-35-3-2"
       transform="scale(0.95189475,1.0505363)"
       inkscape:export-xdpi="94.445213"
       inkscape:export-ydpi="94.445213"><tspan
         sodipodi:role="line"
         x="179.14554"
         y="122.42322"
         style="line-height:1;text-align:center;text-anchor:middle;fill:#000000;fill-opacity:1;stroke-width:0.07540718"
         id="tspan3864">Genes</tspan><tspan
         sodipodi:role="line"
         x="179.14554"
         y="125.43951"
         style="line-height:1;text-align:center;text-anchor:middle;fill:#000000;fill-opacity:1;stroke-width:0.07540718"
         id="tspan965">sintéticos</tspan></text>
    <text
       xml:space="preserve"
       style="font-style:normal;font-weight:normal;font-size:3.0162878px;line-height:1;font-family:sans-serif;text-align:center;letter-spacing:0px;word-spacing:0px;text-anchor:middle;fill:#000000;fill-opacity:1;stroke:none;stroke-width:0.07540718"
       x="178.79303"
       y="132.80473"
       id="text984-35-3-2-9"
       transform="scale(0.95189476,1.0505363)"
       inkscape:export-xdpi="94.445213"
       inkscape:export-ydpi="94.445213"><tspan
         sodipodi:role="line"
         x="178.79303"
         y="132.80473"
         style="line-height:1;text-align:center;text-anchor:middle;fill:#000000;fill-opacity:1;stroke-width:0.07540718"
         id="tspan4135">Genes de</tspan><tspan
         sodipodi:role="line"
         x="178.79303"
         y="135.82101"
         style="line-height:1;text-align:center;text-anchor:middle;fill:#000000;fill-opacity:1;stroke-width:0.07540718"
         id="tspan969">Referência</tspan></text>
    <path
       style="fill:none;stroke:#000000;stroke-width:0.23733844;stroke-linecap:butt;stroke-linejoin:miter;stroke-miterlimit:4;stroke-dasharray:none;stroke-opacity:1;marker-end:url(#marker4147)"
       d="m 178.06627,139.43524 6.5085,-9.20189"
       id="path4137"
       inkscape:connector-curvature="0"
       sodipodi:nodetypes="cc" />
    <path
       style="fill:none;stroke:#000000;stroke-width:0.237;stroke-linecap:butt;stroke-linejoin:miter;stroke-miterlimit:4;stroke-dasharray:none;stroke-opacity:1;marker-end:url(#marker2098-2-3)"
       d="m 206.08791,129.05223 h 4.05566"
       id="path2088-1-5"
       inkscape:connector-curvature="0" />
    <text
       xml:space="preserve"
       style="font-style:normal;font-weight:normal;font-size:2.87844253px;line-height:1.25;font-family:sans-serif;letter-spacing:0px;word-spacing:0px;fill:#000000;fill-opacity:1;stroke:none;stroke-width:0.07196105"
       x="211.16536"
       y="114.62044"
       id="text1949-7-3"
       transform="scale(0.88010928,1.1362225)"><tspan
         sodipodi:role="line"
         id="tspan1947-5-5"
         x="211.16536"
         y="114.62044"
         style="stroke-width:0.07196105">Discriminadora</tspan></text>
    <text
       xml:space="preserve"
       style="font-style:normal;font-weight:normal;font-size:3.0162878px;line-height:1;font-family:sans-serif;text-align:center;letter-spacing:0px;word-spacing:0px;text-anchor:middle;fill:#000000;fill-opacity:1;stroke:none;stroke-width:0.07540718"
       x="224.70886"
       y="120.79513"
       id="text984-35-3-2-6"
       transform="scale(0.95189475,1.0505363)"
       inkscape:export-xdpi="94.445213"
       inkscape:export-ydpi="94.445213"><tspan
         sodipodi:role="line"
         x="224.70886"
         y="120.79513"
         style="line-height:1;text-align:center;text-anchor:middle;fill:#000000;fill-opacity:1;stroke-width:0.07540718"
         id="tspan1118-0-2">Real</tspan><tspan
         sodipodi:role="line"
         x="224.70886"
         y="123.81142"
         style="line-height:1;text-align:center;text-anchor:middle;fill:#000000;fill-opacity:1;stroke-width:0.07540718"
         id="tspan2099">ou</tspan><tspan
         sodipodi:role="line"
         x="224.70886"
         y="126.82771"
         style="line-height:1;text-align:center;text-anchor:middle;fill:#000000;fill-opacity:1;stroke-width:0.07540718"
         id="tspan3864-9">sintético</tspan></text>
    <path
       style="fill:none;stroke:#008000;stroke-width:0.437;stroke-linecap:butt;stroke-linejoin:miter;stroke-miterlimit:4;stroke-dasharray:1.311, 1.31099999999999994;stroke-dashoffset:0;stroke-opacity:1;marker-end:url(#marker3927)"
       d="m 214.03186,133.97586 v 5.15412 h -19.80954 v -4.3126"
       id="path3917"
       inkscape:connector-curvature="0" />
    <text
       xml:space="preserve"
       style="font-style:normal;font-weight:normal;font-size:7.84947443px;line-height:1.25;font-family:sans-serif;letter-spacing:0px;word-spacing:0px;fill:#008000;fill-opacity:1;stroke:none;stroke-width:0.19623686;"
       x="206.00616"
       y="141.13138"
       id="text4618"
       transform="scale(0.99157026,1.0085014)"><tspan
         sodipodi:role="line"
         id="tspan4616"
         x="206.00616"
         y="141.13138"
         style="font-style:italic;font-variant:normal;font-weight:normal;font-stretch:normal;font-size:2.35484219px;font-family:sans-serif;-inkscape-font-specification:'sans-serif, Italic';font-variant-ligatures:normal;font-variant-caps:normal;font-variant-numeric:normal;font-feature-settings:normal;text-align:center;writing-mode:lr-tb;text-anchor:middle;fill:#008000;fill-opacity:1;stroke-width:0.19623686;">Backpropagation</tspan></text>
    <g
       id="g6533"
       transform="matrix(0.73543047,0,0,0.747988,96.182785,-51.002123)">
      <g
         id="g81-3-5"
         transform="matrix(0.01624043,0,0,0.01414716,116.73062,232.09545)">
        <path
           style="fill:#c7e7eb"
           d="m 394.891,233.243 v 45.514 l -29.108,2.702 c -2.854,12.31 -7.745,23.857 -14.282,34.26 l 18.693,22.517 -32.082,32.071 -22.561,-18.737 c -10.414,6.493 -21.951,11.34 -34.25,14.173 l -2.702,29.151 h -45.361 l -2.713,-29.238 c -12.266,-2.865 -23.759,-7.734 -34.13,-14.249 l -22.637,18.791 -32.071,-32.082 18.835,-22.681 c -6.471,-10.371 -11.308,-21.863 -14.14,-34.119 L 117.1,278.603 v -45.208 l 29.282,-2.713 c 2.832,-12.255 7.669,-23.748 14.14,-34.119 l -18.835,-22.681 32.071,-32.082 22.637,18.791 c 10.371,-6.514 21.863,-11.384 34.13,-14.249 l 2.713,-29.238 h 45.361 l 2.702,29.151 c 12.299,2.832 23.835,7.68 34.25,14.173 l 22.561,-18.737 32.082,32.071 -18.693,22.517 c 6.536,10.403 11.427,21.951 14.282,34.26 z M 322.449,256 c 0,-36.644 -29.807,-66.451 -66.451,-66.451 -36.644,0 -66.451,29.807 -66.451,66.451 0,36.644 29.807,66.451 66.451,66.451 36.644,0 66.451,-29.807 66.451,-66.451 z"
           id="path2-7-0"
           inkscape:connector-curvature="0" />
        <path
           style="fill:#88acb5"
           d="m 255.998,334.979 -10.894,-16.34 10.894,-16.34 c 25.524,0 46.298,-20.774 46.298,-46.298 0,-25.524 -20.774,-46.298 -46.298,-46.298 l -10.894,-16.34 10.894,-16.34 c 43.553,0 78.979,35.426 78.979,78.979 0,43.553 -35.427,78.977 -78.979,78.977 z"
           id="path4-5-4"
           inkscape:connector-curvature="0" />
        <path
           style="fill:#a7cbcf"
           d="m 255.998,302.298 v 32.681 c -43.553,0 -78.979,-35.426 -78.979,-78.979 0,-43.553 35.426,-78.979 78.979,-78.979 v 32.681 c -25.524,0 -46.298,20.774 -46.298,46.298 0,25.524 20.774,46.298 46.298,46.298 z"
           id="path6-6-92-8"
           inkscape:connector-curvature="0" />
        <path
           d="m 255.998,310.468 c 30.034,0 54.468,-24.434 54.468,-54.468 0,-30.034 -24.434,-54.468 -54.468,-54.468 -30.034,0 -54.468,24.434 -54.468,54.468 0,30.034 24.434,54.468 54.468,54.468 z m 0,-92.596 c 21.024,0 38.128,17.104 38.128,38.128 0,21.024 -17.104,38.128 -38.128,38.128 -21.024,0 -38.128,-17.104 -38.128,-38.128 0,-21.024 17.104,-38.128 38.128,-38.128 z"
           id="path30-28-7"
           inkscape:connector-curvature="0" />
        <path
           d="m 150.572,314.638 -15.165,18.263 c -2.696,3.246 -2.475,8.012 0.509,10.996 l 32.073,32.073 c 2.984,2.983 7.749,3.206 10.997,0.509 l 18.193,-15.107 c 8.159,4.583 16.781,8.181 25.744,10.745 l 2.182,23.531 c 0.389,4.202 3.915,7.416 8.135,7.416 h 45.359 c 4.22,0 7.745,-3.214 8.135,-7.416 l 2.171,-23.423 c 8.998,-2.542 17.653,-6.125 25.848,-10.701 l 18.147,15.067 c 3.246,2.697 8.012,2.475 10.997,-0.509 l 32.072,-32.073 c 2.984,-2.984 3.204,-7.75 0.509,-10.996 l -15.009,-18.077 c 4.607,-8.201 8.22,-16.865 10.787,-25.875 l 23.392,-2.169 c 4.202,-0.389 7.416,-3.915 7.416,-8.135 V 233.24 c 0,-4.22 -3.214,-7.745 -7.416,-8.135 l -23.392,-2.169 c -2.567,-9.009 -6.18,-17.674 -10.787,-25.875 l 15.009,-18.077 c 2.696,-3.246 2.475,-8.012 -0.509,-10.996 l -32.072,-32.073 c -2.984,-2.984 -7.75,-3.206 -10.997,-0.509 l -18.147,15.067 c -8.194,-4.575 -16.85,-8.159 -25.848,-10.701 l -2.171,-23.423 c -0.389,-4.202 -3.915,-7.416 -8.135,-7.416 H 233.24 c -4.22,0 -7.745,3.214 -8.135,7.416 l -2.182,23.531 c -8.963,2.564 -17.584,6.163 -25.744,10.745 l -18.193,-15.107 c -3.247,-2.697 -8.012,-2.475 -10.997,0.509 L 135.916,168.1 c -2.984,2.984 -3.204,7.75 -0.509,10.996 l 15.165,18.263 c -4.552,8.155 -8.122,16.77 -10.66,25.719 l -23.561,2.184 c -4.202,0.389 -7.416,3.915 -7.416,8.135 v 45.199 c 0,4.22 3.214,7.745 7.416,8.135 l 23.561,2.184 c 2.537,8.953 6.107,17.567 10.66,25.723 z m -25.298,-73.79 21.869,-2.027 c 3.51,-0.325 6.415,-2.864 7.207,-6.299 2.58,-11.188 6.99,-21.83 13.108,-31.632 1.865,-2.988 1.606,-6.835 -0.645,-9.545 l -14.079,-16.955 21.54,-21.54 16.899,14.032 c 2.717,2.256 6.573,2.511 9.565,0.633 9.799,-6.155 20.445,-10.599 31.644,-13.211 3.426,-0.798 5.956,-3.701 6.28,-7.203 l 2.024,-21.825 h 30.463 l 2.015,21.739 c 0.326,3.513 2.869,6.42 6.307,7.209 11.232,2.577 21.914,6.998 31.749,13.14 2.987,1.866 6.836,1.607 9.547,-0.645 l 16.839,-13.981 21.539,21.54 -13.935,16.783 c -2.255,2.717 -2.511,6.575 -0.632,9.566 6.18,9.837 10.637,20.525 13.244,31.764 0.795,3.429 3.699,5.963 7.204,6.288 l 21.692,2.011 v 30.621 l -21.692,2.011 c -3.506,0.325 -6.409,2.86 -7.204,6.288 -2.609,11.239 -7.065,21.927 -13.244,31.764 -1.879,2.99 -1.623,6.849 0.632,9.566 l 13.935,16.783 -21.539,21.54 -16.839,-13.981 c -2.71,-2.251 -6.558,-2.51 -9.547,-0.645 -9.835,6.142 -20.517,10.562 -31.749,13.14 -3.438,0.79 -5.982,3.696 -6.307,7.209 l -2.015,21.738 h -30.463 l -2.023,-21.825 c -0.325,-3.502 -2.854,-6.403 -6.28,-7.203 -11.199,-2.611 -21.845,-7.056 -31.644,-13.211 -2.991,-1.878 -6.85,-1.623 -9.565,0.633 l -16.899,14.032 -21.54,-21.54 14.079,-16.955 c 2.25,-2.71 2.51,-6.557 0.645,-9.545 -6.118,-9.802 -10.529,-20.444 -13.108,-31.632 -0.793,-3.435 -3.698,-5.974 -7.207,-6.299 l -21.869,-2.027 v -30.304 z"
           id="path32-9-1"
           inkscape:connector-curvature="0" />
        <path
           d="m 194.303,305.893 c 3.778,-2.467 4.841,-7.53 2.375,-11.308 -7.516,-11.51 -11.488,-24.853 -11.488,-38.585 0,-39.044 31.765,-70.809 70.809,-70.809 39.044,0 70.809,31.765 70.809,70.809 0,39.044 -31.765,70.809 -70.809,70.809 -13.732,0 -27.075,-3.973 -38.586,-11.488 -3.78,-2.468 -8.841,-1.404 -11.309,2.374 -2.467,3.778 -1.403,8.841 2.375,11.308 14.175,9.255 30.607,14.148 47.52,14.148 48.054,0 87.149,-39.095 87.149,-87.149 0,-48.054 -39.095,-87.149 -87.149,-87.149 -48.054,0 -87.15,39.093 -87.15,87.147 0,16.913 4.891,33.345 14.145,47.519 2.468,3.779 7.53,4.84 11.309,2.374 z"
           id="path36-7-7"
           inkscape:connector-curvature="0" />
      </g>
      <g
         id="g81-3-5-2"
         transform="matrix(0.01624043,0,0,0.01414716,118.58521,230.27703)">
        <path
           style="fill:#c7e7eb"
           d="m 394.891,233.243 v 45.514 l -29.108,2.702 c -2.854,12.31 -7.745,23.857 -14.282,34.26 l 18.693,22.517 -32.082,32.071 -22.561,-18.737 c -10.414,6.493 -21.951,11.34 -34.25,14.173 l -2.702,29.151 h -45.361 l -2.713,-29.238 c -12.266,-2.865 -23.759,-7.734 -34.13,-14.249 l -22.637,18.791 -32.071,-32.082 18.835,-22.681 c -6.471,-10.371 -11.308,-21.863 -14.14,-34.119 L 117.1,278.603 v -45.208 l 29.282,-2.713 c 2.832,-12.255 7.669,-23.748 14.14,-34.119 l -18.835,-22.681 32.071,-32.082 22.637,18.791 c 10.371,-6.514 21.863,-11.384 34.13,-14.249 l 2.713,-29.238 h 45.361 l 2.702,29.151 c 12.299,2.832 23.835,7.68 34.25,14.173 l 22.561,-18.737 32.082,32.071 -18.693,22.517 c 6.536,10.403 11.427,21.951 14.282,34.26 z M 322.449,256 c 0,-36.644 -29.807,-66.451 -66.451,-66.451 -36.644,0 -66.451,29.807 -66.451,66.451 0,36.644 29.807,66.451 66.451,66.451 36.644,0 66.451,-29.807 66.451,-66.451 z"
           id="path2-7-0-7"
           inkscape:connector-curvature="0" />
        <path
           style="fill:#88acb5"
           d="m 255.998,334.979 -10.894,-16.34 10.894,-16.34 c 25.524,0 46.298,-20.774 46.298,-46.298 0,-25.524 -20.774,-46.298 -46.298,-46.298 l -10.894,-16.34 10.894,-16.34 c 43.553,0 78.979,35.426 78.979,78.979 0,43.553 -35.427,78.977 -78.979,78.977 z"
           id="path4-5-4-2"
           inkscape:connector-curvature="0" />
        <path
           style="fill:#a7cbcf"
           d="m 255.998,302.298 v 32.681 c -43.553,0 -78.979,-35.426 -78.979,-78.979 0,-43.553 35.426,-78.979 78.979,-78.979 v 32.681 c -25.524,0 -46.298,20.774 -46.298,46.298 0,25.524 20.774,46.298 46.298,46.298 z"
           id="path6-6-92-8-2"
           inkscape:connector-curvature="0" />
        <path
           d="m 255.998,310.468 c 30.034,0 54.468,-24.434 54.468,-54.468 0,-30.034 -24.434,-54.468 -54.468,-54.468 -30.034,0 -54.468,24.434 -54.468,54.468 0,30.034 24.434,54.468 54.468,54.468 z m 0,-92.596 c 21.024,0 38.128,17.104 38.128,38.128 0,21.024 -17.104,38.128 -38.128,38.128 -21.024,0 -38.128,-17.104 -38.128,-38.128 0,-21.024 17.104,-38.128 38.128,-38.128 z"
           id="path30-28-7-6"
           inkscape:connector-curvature="0" />
        <path
           d="m 150.572,314.638 -15.165,18.263 c -2.696,3.246 -2.475,8.012 0.509,10.996 l 32.073,32.073 c 2.984,2.983 7.749,3.206 10.997,0.509 l 18.193,-15.107 c 8.159,4.583 16.781,8.181 25.744,10.745 l 2.182,23.531 c 0.389,4.202 3.915,7.416 8.135,7.416 h 45.359 c 4.22,0 7.745,-3.214 8.135,-7.416 l 2.171,-23.423 c 8.998,-2.542 17.653,-6.125 25.848,-10.701 l 18.147,15.067 c 3.246,2.697 8.012,2.475 10.997,-0.509 l 32.072,-32.073 c 2.984,-2.984 3.204,-7.75 0.509,-10.996 l -15.009,-18.077 c 4.607,-8.201 8.22,-16.865 10.787,-25.875 l 23.392,-2.169 c 4.202,-0.389 7.416,-3.915 7.416,-8.135 V 233.24 c 0,-4.22 -3.214,-7.745 -7.416,-8.135 l -23.392,-2.169 c -2.567,-9.009 -6.18,-17.674 -10.787,-25.875 l 15.009,-18.077 c 2.696,-3.246 2.475,-8.012 -0.509,-10.996 l -32.072,-32.073 c -2.984,-2.984 -7.75,-3.206 -10.997,-0.509 l -18.147,15.067 c -8.194,-4.575 -16.85,-8.159 -25.848,-10.701 l -2.171,-23.423 c -0.389,-4.202 -3.915,-7.416 -8.135,-7.416 H 233.24 c -4.22,0 -7.745,3.214 -8.135,7.416 l -2.182,23.531 c -8.963,2.564 -17.584,6.163 -25.744,10.745 l -18.193,-15.107 c -3.247,-2.697 -8.012,-2.475 -10.997,0.509 L 135.916,168.1 c -2.984,2.984 -3.204,7.75 -0.509,10.996 l 15.165,18.263 c -4.552,8.155 -8.122,16.77 -10.66,25.719 l -23.561,2.184 c -4.202,0.389 -7.416,3.915 -7.416,8.135 v 45.199 c 0,4.22 3.214,7.745 7.416,8.135 l 23.561,2.184 c 2.537,8.953 6.107,17.567 10.66,25.723 z m -25.298,-73.79 21.869,-2.027 c 3.51,-0.325 6.415,-2.864 7.207,-6.299 2.58,-11.188 6.99,-21.83 13.108,-31.632 1.865,-2.988 1.606,-6.835 -0.645,-9.545 l -14.079,-16.955 21.54,-21.54 16.899,14.032 c 2.717,2.256 6.573,2.511 9.565,0.633 9.799,-6.155 20.445,-10.599 31.644,-13.211 3.426,-0.798 5.956,-3.701 6.28,-7.203 l 2.024,-21.825 h 30.463 l 2.015,21.739 c 0.326,3.513 2.869,6.42 6.307,7.209 11.232,2.577 21.914,6.998 31.749,13.14 2.987,1.866 6.836,1.607 9.547,-0.645 l 16.839,-13.981 21.539,21.54 -13.935,16.783 c -2.255,2.717 -2.511,6.575 -0.632,9.566 6.18,9.837 10.637,20.525 13.244,31.764 0.795,3.429 3.699,5.963 7.204,6.288 l 21.692,2.011 v 30.621 l -21.692,2.011 c -3.506,0.325 -6.409,2.86 -7.204,6.288 -2.609,11.239 -7.065,21.927 -13.244,31.764 -1.879,2.99 -1.623,6.849 0.632,9.566 l 13.935,16.783 -21.539,21.54 -16.839,-13.981 c -2.71,-2.251 -6.558,-2.51 -9.547,-0.645 -9.835,6.142 -20.517,10.562 -31.749,13.14 -3.438,0.79 -5.982,3.696 -6.307,7.209 l -2.015,21.738 h -30.463 l -2.023,-21.825 c -0.325,-3.502 -2.854,-6.403 -6.28,-7.203 -11.199,-2.611 -21.845,-7.056 -31.644,-13.211 -2.991,-1.878 -6.85,-1.623 -9.565,0.633 l -16.899,14.032 -21.54,-21.54 14.079,-16.955 c 2.25,-2.71 2.51,-6.557 0.645,-9.545 -6.118,-9.802 -10.529,-20.444 -13.108,-31.632 -0.793,-3.435 -3.698,-5.974 -7.207,-6.299 l -21.869,-2.027 v -30.304 z"
           id="path32-9-1-1"
           inkscape:connector-curvature="0" />
        <path
           d="m 194.303,305.893 c 3.778,-2.467 4.841,-7.53 2.375,-11.308 -7.516,-11.51 -11.488,-24.853 -11.488,-38.585 0,-39.044 31.765,-70.809 70.809,-70.809 39.044,0 70.809,31.765 70.809,70.809 0,39.044 -31.765,70.809 -70.809,70.809 -13.732,0 -27.075,-3.973 -38.586,-11.488 -3.78,-2.468 -8.841,-1.404 -11.309,2.374 -2.467,3.778 -1.403,8.841 2.375,11.308 14.175,9.255 30.607,14.148 47.52,14.148 48.054,0 87.149,-39.095 87.149,-87.149 0,-48.054 -39.095,-87.149 -87.149,-87.149 -48.054,0 -87.15,39.093 -87.15,87.147 0,16.913 4.891,33.345 14.145,47.519 2.468,3.779 7.53,4.84 11.309,2.374 z"
           id="path36-7-7-0"
           inkscape:connector-curvature="0" />
      </g>
    </g>
  </g>
</svg>
