<svg version="1.1" xmlns="http://www.w3.org/2000/svg" xmlns:xlink="http://www.w3.org/1999/xlink" width="220" height="250" style="width: 220px; height: 250px;"><defs><clipPath id="sVPHhyztLMeB"><path fill="none" stroke="none" d=" M 61 5 L 215 5 L 215 224 L 61 224 L 61 5 Z"/></clipPath><clipPath id="ERgPmFOeCzuF"><path fill="none" stroke="none" d=" M 61 5 L 215 5 L 215 224 L 61 224 L 61 5 Z"/></clipPath><clipPath id="qGoHrTtcXuxq"><path fill="none" stroke="none" d=" M 61 5 L 215 5 L 215 224 L 61 224 L 61 5 Z"/></clipPath><clipPath id="EtaGPhAcMxvv"><path fill="none" stroke="none" d=" M 61 5 L 215 5 L 215 224 L 61 224 L 61 5 Z"/></clipPath><clipPath id="KMXdhMOhyeVe"><path fill="none" stroke="none" d=" M 61 5 L 215 5 L 215 224 L 61 224 L 61 5 Z"/></clipPath><clipPath id="tXZXMCFKkzaz"><path fill="none" stroke="none" d=" M 61 5 L 215 5 L 215 224 L 61 224 L 61 5 Z"/></clipPath><clipPath id="EPZxobUWLRJk"><path fill="none" stroke="none" d=" M 61 5 L 215 5 L 215 224 L 61 224 L 61 5 Z"/></clipPath><clipPath id="ozWyQZbzkJMA"><path fill="none" stroke="none" d=" M 61 5 L 215 5 L 215 224 L 61 224 L 61 5 Z"/></clipPath><clipPath id="gLLvJqBLUkFq"><path fill="none" stroke="none" d=" M 61 5 L 215 5 L 215 224 L 61 224 L 61 5 Z"/></clipPath><clipPath id="wmhUEdtzNumk"><path fill="none" stroke="none" d=" M 61 5 L 215 5 L 215 224 L 61 224 L 61 5 Z"/></clipPath><clipPath id="DdXhJUKvTqZm"><path fill="none" stroke="none" d=" M 61 5 L 215 5 L 215 224 L 61 224 L 61 5 Z"/></clipPath></defs><g><g transform="scale(1,1) translate(0.5,0.5)"><rect fill="#FFFFFF" stroke="none" x="0" y="0" width="220" height="250"/><rect fill="#ffffff" stroke="none" x="0" y="0" width="220" height="250"/><rect fill="#FFFFFF" stroke="none" x="61" y="5" width="154" height="219"/><rect fill="#ffffff" stroke="none" x="61" y="5" width="154" height="219"/><g><rect fill="none" stroke="#e5e5e5" x="61" y="5" width="154" height="219" stroke-linejoin="bevel" stroke-miterlimit="10"/></g><g clip-path="url(#sVPHhyztLMeB)"><g><g/></g></g><g clip-path="url(#ERgPmFOeCzuF)"><g><g><path fill="none" stroke="#e5e5e5" paint-order="fill stroke markers" d=" M 61 212 L 215 212" stroke-linejoin="bevel" stroke-miterlimit="10"/><path fill="none" stroke="#e5e5e5" paint-order="fill stroke markers" d=" M 61 184 L 215 184" stroke-linejoin="bevel" stroke-miterlimit="10"/><path fill="none" stroke="#e5e5e5" paint-order="fill stroke markers" d=" M 61 156 L 215 156" stroke-linejoin="bevel" stroke-miterlimit="10"/><path fill="none" stroke="#e5e5e5" paint-order="fill stroke markers" d=" M 61 128 L 215 128" stroke-linejoin="bevel" stroke-miterlimit="10"/><path fill="none" stroke="#e5e5e5" paint-order="fill stroke markers" d=" M 61 101 L 215 101" stroke-linejoin="bevel" stroke-miterlimit="10"/><path fill="none" stroke="#e5e5e5" paint-order="fill stroke markers" d=" M 61 73 L 215 73" stroke-linejoin="bevel" stroke-miterlimit="10"/><path fill="none" stroke="#e5e5e5" paint-order="fill stroke markers" d=" M 61 45 L 215 45" stroke-linejoin="bevel" stroke-miterlimit="10"/><path fill="none" stroke="#e5e5e5" paint-order="fill stroke markers" d=" M 61 17 L 215 17" stroke-linejoin="bevel" stroke-miterlimit="10"/></g></g></g><g clip-path="url(#qGoHrTtcXuxq)"><g><g><path fill="none" stroke="none"/><path fill="none" stroke="black" paint-order="fill stroke markers" d=" M 138 213.90638493111936 L 138 187.5422619617816" stroke-linejoin="bevel" stroke-miterlimit="10"/></g></g></g><g clip-path="url(#EtaGPhAcMxvv)"><g><g><path fill="none" stroke="none"/><path fill="none" stroke="black" paint-order="fill stroke markers" d=" M 138 72.62815724847701 L 138 141.5766200764598" stroke-linejoin="bevel" stroke-miterlimit="10"/></g></g></g><g clip-path="url(#KMXdhMOhyeVe)"><g><g><path fill="none" stroke="none"/><rect fill="#1f77b4" stroke="none" x="126.45" y="213.76731531678416" width="23.10000000000001" height="0.27813922867039764"/><path fill="none" stroke="black" paint-order="fill stroke markers" d=" M 126.45 213.76731531678416 L 149.55 213.76731531678416 L 149.55 214.04545454545456 L 126.45 214.04545454545456 L 126.45 213.76731531678416 Z" stroke-linejoin="bevel" stroke-miterlimit="10"/><path fill="none" stroke="black" paint-order="fill stroke markers" d="" stroke-linejoin="bevel" stroke-miterlimit="10"/></g></g></g><g clip-path="url(#tXZXMCFKkzaz)"><g><g><path fill="none" stroke="none"/><rect fill="#1f77b4" stroke="none" x="126.45" y="72.4890876341417" width="23.10000000000001" height="0.27813922867039764"/><path fill="none" stroke="black" paint-order="fill stroke markers" d=" M 126.45 72.4890876341417 L 149.55 72.4890876341417 L 149.55 72.7672268628121 L 126.45 72.7672268628121 L 126.45 72.4890876341417 Z" stroke-linejoin="bevel" stroke-miterlimit="10"/><path fill="none" stroke="black" paint-order="fill stroke markers" d="" stroke-linejoin="bevel" stroke-miterlimit="10"/></g></g></g><g clip-path="url(#EPZxobUWLRJk)"><g><g><path fill="none" stroke="none"/><path fill="#E08E79" stroke="none" paint-order="stroke fill markers" d=" M 111.05000000000001 141.5766200764598 L 164.95 141.5766200764598 L 164.95 167.65203831187443 L 111.05000000000001 167.65203831187443 L 111.05000000000001 141.5766200764598 Z"/><path fill="none" stroke="black" paint-order="fill stroke markers" d=" M 111.05000000000001 141.5766200764598 L 164.95 141.5766200764598 L 164.95 167.65203831187443 L 111.05000000000001 167.65203831187443 L 111.05000000000001 141.5766200764598 Z" stroke-linejoin="bevel" stroke-miterlimit="10"/></g></g></g><g clip-path="url(#ozWyQZbzkJMA)"><g><g><path fill="none" stroke="none"/><path fill="#3B8686" stroke="none" paint-order="stroke fill markers" d=" M 111.05000000000001 167.65203831187443 L 164.95 167.65203831187443 L 164.95 187.5422619617816 L 111.05000000000001 187.5422619617816 L 111.05000000000001 167.65203831187443 Z"/><path fill="none" stroke="black" paint-order="fill stroke markers" d=" M 111.05000000000001 167.65203831187443 L 164.95 167.65203831187443 L 164.95 187.5422619617816 L 111.05000000000001 187.5422619617816 L 111.05000000000001 167.65203831187443 Z" stroke-linejoin="bevel" stroke-miterlimit="10"/></g></g></g><g clip-path="url(#gLLvJqBLUkFq)"><g><g><path fill="none" stroke="none"/><path fill="#F38630" stroke="#F38630" paint-order="fill stroke markers" d=" M 141.5 55.09050458469369 A 3.5 3.5 0 1 1 141.49999825000015 55.08700458527702" fill-opacity="0.6" stroke-linejoin="bevel" stroke-miterlimit="10"/><path fill="#F38630" stroke="#F38630" paint-order="fill stroke markers" d=" M 141.5 61.69815778450061 A 3.5 3.5 0 1 1 141.49999825000015 61.69465778508394" fill-opacity="0.6" stroke-linejoin="bevel" stroke-miterlimit="10"/><path fill="#F38630" stroke="#F38630" paint-order="fill stroke markers" d=" M 141.5 59.47378615594698 A 3.5 3.5 0 1 1 141.49999825000015 59.470286156530314" fill-opacity="0.6" stroke-linejoin="bevel" stroke-miterlimit="10"/><path fill="#F38630" stroke="#F38630" paint-order="fill stroke markers" d=" M 141.5 14.954545454545496 A 3.5 3.5 0 1 1 141.49999825000015 14.951045455128828" fill-opacity="0.6" stroke-linejoin="bevel" stroke-miterlimit="10"/><path fill="#F38630" stroke="#F38630" paint-order="fill stroke markers" d=" M 141.5 57.567593819050785 A 3.5 3.5 0 1 1 141.49999825000015 57.56409381963412" fill-opacity="0.6" stroke-linejoin="bevel" stroke-miterlimit="10"/></g></g></g><g clip-path="url(#wmhUEdtzNumk)"><g><g><path fill="none" stroke="none"/><path fill="green" stroke="green" paint-order="fill stroke markers" d=" M 141.5 213.90638493111936 A 3.5 3.5 0 1 1 141.49999825000015 213.9028849317027" fill-opacity="0.6" stroke-linejoin="bevel" stroke-miterlimit="10"/></g></g></g><g clip-path="url(#DdXhJUKvTqZm)"><g><g/><g><path fill="#ffffff" stroke="#e5e5e5" paint-order="fill stroke markers" d=" M 77.5 15 L 205 15 L 205 78 L 77.5 78 L 77.5 15 Z" fill-opacity="0.95" stroke-linejoin="bevel" stroke-miterlimit="10" stroke-opacity="0.5"/><text fill="#444444" stroke="none" font-family="helvetica" font-size="10pt" font-style="normal" font-weight="normal" text-decoration="normal" x="112.5" y="35" text-anchor="start" dominant-baseline="central">Piores pesos</text><path fill="#F38630" stroke="#F38630" paint-order="fill stroke markers" d=" M 101.5 35 A 4 4 0 1 1 101.49999800000016 34.99600000066666" fill-opacity="0.6" stroke-linejoin="bevel" stroke-miterlimit="10"/><text fill="#444444" stroke="none" font-family="helvetica" font-size="10pt" font-style="normal" font-weight="normal" text-decoration="normal" x="112.5" y="58" text-anchor="start" dominant-baseline="central">Melhor peso</text><path fill="green" stroke="green" paint-order="fill stroke markers" d=" M 101.5 58 A 4 4 0 1 1 101.49999800000016 57.99600000066666" fill-opacity="0.6" stroke-linejoin="bevel" stroke-miterlimit="10"/></g></g></g><g/><g><g fill="#444444"><path fill="none" stroke="black" paint-order="fill stroke markers" d=" M 61 224 L 215 224" stroke-linejoin="bevel" stroke-miterlimit="10"/><path fill="" stroke="black" paint-order="fill stroke markers" d=" M 138 230 L 138 222" stroke-linejoin="bevel" stroke-miterlimit="10"/><g transform="translate(138,235) rotate(0,0,0)"><text fill="" stroke="none" font-family="helvetica" font-size="8pt" font-style="normal" font-weight="normal" text-decoration="normal" x="0" y="0" text-anchor="middle" dominant-baseline="hanging">1</text><g transform="rotate(0,0,0) translate(-138,-235)"/></g></g></g><g><g fill="#444444"><path fill="none" stroke="black" paint-order="fill stroke markers" d=" M 61 224 L 61 5" stroke-linejoin="bevel" stroke-miterlimit="10"/><path fill="none" stroke="black" paint-order="fill stroke markers" d=" M 55 212 L 63 212" stroke-linejoin="bevel" stroke-miterlimit="10"/><path fill="none" stroke="black" paint-order="fill stroke markers" d=" M 55 184 L 63 184" stroke-linejoin="bevel" stroke-miterlimit="10"/><path fill="none" stroke="black" paint-order="fill stroke markers" d=" M 55 156 L 63 156" stroke-linejoin="bevel" stroke-miterlimit="10"/><path fill="none" stroke="black" paint-order="fill stroke markers" d=" M 55 128 L 63 128" stroke-linejoin="bevel" stroke-miterlimit="10"/><path fill="none" stroke="black" paint-order="fill stroke markers" d=" M 55 101 L 63 101" stroke-linejoin="bevel" stroke-miterlimit="10"/><path fill="none" stroke="black" paint-order="fill stroke markers" d=" M 55 73 L 63 73" stroke-linejoin="bevel" stroke-miterlimit="10"/><path fill="none" stroke="black" paint-order="fill stroke markers" d=" M 55 45 L 63 45" stroke-linejoin="bevel" stroke-miterlimit="10"/><path fill="none" stroke="black" paint-order="fill stroke markers" d=" M 55 17 L 63 17" stroke-linejoin="bevel" stroke-miterlimit="10"/><path fill="none" stroke="black" paint-order="fill stroke markers" d=" M 57 217 L 61 217" stroke-linejoin="bevel" stroke-miterlimit="10"/><path fill="none" stroke="black" paint-order="fill stroke markers" d=" M 57 223 L 61 223" stroke-linejoin="bevel" stroke-miterlimit="10"/><path fill="none" stroke="black" paint-order="fill stroke markers" d=" M 57 212 L 61 212" stroke-linejoin="bevel" stroke-miterlimit="10"/><path fill="none" stroke="black" paint-order="fill stroke markers" d=" M 57 206 L 61 206" stroke-linejoin="bevel" stroke-miterlimit="10"/><path fill="none" stroke="black" paint-order="fill stroke markers" d=" M 57 201 L 61 201" stroke-linejoin="bevel" stroke-miterlimit="10"/><path fill="none" stroke="black" paint-order="fill stroke markers" d=" M 57 195 L 61 195" stroke-linejoin="bevel" stroke-miterlimit="10"/><path fill="none" stroke="black" paint-order="fill stroke markers" d=" M 57 190 L 61 190" stroke-linejoin="bevel" stroke-miterlimit="10"/><path fill="none" stroke="black" paint-order="fill stroke markers" d=" M 57 184 L 61 184" stroke-linejoin="bevel" stroke-miterlimit="10"/><path fill="none" stroke="black" paint-order="fill stroke markers" d=" M 57 179 L 61 179" stroke-linejoin="bevel" stroke-miterlimit="10"/><path fill="none" stroke="black" paint-order="fill stroke markers" d=" M 57 173 L 61 173" stroke-linejoin="bevel" stroke-miterlimit="10"/><path fill="none" stroke="black" paint-order="fill stroke markers" d=" M 57 167 L 61 167" stroke-linejoin="bevel" stroke-miterlimit="10"/><path fill="none" stroke="black" paint-order="fill stroke markers" d=" M 57 162 L 61 162" stroke-linejoin="bevel" stroke-miterlimit="10"/><path fill="none" stroke="black" paint-order="fill stroke markers" d=" M 57 156 L 61 156" stroke-linejoin="bevel" stroke-miterlimit="10"/><path fill="none" stroke="black" paint-order="fill stroke markers" d=" M 57 151 L 61 151" stroke-linejoin="bevel" stroke-miterlimit="10"/><path fill="none" stroke="black" paint-order="fill stroke markers" d=" M 57 145 L 61 145" stroke-linejoin="bevel" stroke-miterlimit="10"/><path fill="none" stroke="black" paint-order="fill stroke markers" d=" M 57 140 L 61 140" stroke-linejoin="bevel" stroke-miterlimit="10"/><path fill="none" stroke="black" paint-order="fill stroke markers" d=" M 57 134 L 61 134" stroke-linejoin="bevel" stroke-miterlimit="10"/><path fill="none" stroke="black" paint-order="fill stroke markers" d=" M 57 128 L 61 128" stroke-linejoin="bevel" stroke-miterlimit="10"/><path fill="none" stroke="black" paint-order="fill stroke markers" d=" M 57 123 L 61 123" stroke-linejoin="bevel" stroke-miterlimit="10"/><path fill="none" stroke="black" paint-order="fill stroke markers" d=" M 57 117 L 61 117" stroke-linejoin="bevel" stroke-miterlimit="10"/><path fill="none" stroke="black" paint-order="fill stroke markers" d=" M 57 112 L 61 112" stroke-linejoin="bevel" stroke-miterlimit="10"/><path fill="none" stroke="black" paint-order="fill stroke markers" d=" M 57 106 L 61 106" stroke-linejoin="bevel" stroke-miterlimit="10"/><path fill="none" stroke="black" paint-order="fill stroke markers" d=" M 57 101 L 61 101" stroke-linejoin="bevel" stroke-miterlimit="10"/><path fill="none" stroke="black" paint-order="fill stroke markers" d=" M 57 95 L 61 95" stroke-linejoin="bevel" stroke-miterlimit="10"/><path fill="none" stroke="black" paint-order="fill stroke markers" d=" M 57 90 L 61 90" stroke-linejoin="bevel" stroke-miterlimit="10"/><path fill="none" stroke="black" paint-order="fill stroke markers" d=" M 57 84 L 61 84" stroke-linejoin="bevel" stroke-miterlimit="10"/><path fill="none" stroke="black" paint-order="fill stroke markers" d=" M 57 78 L 61 78" stroke-linejoin="bevel" stroke-miterlimit="10"/><path fill="none" stroke="black" paint-order="fill stroke markers" d=" M 57 73 L 61 73" stroke-linejoin="bevel" stroke-miterlimit="10"/><path fill="none" stroke="black" paint-order="fill stroke markers" d=" M 57 67 L 61 67" stroke-linejoin="bevel" stroke-miterlimit="10"/><path fill="none" stroke="black" paint-order="fill stroke markers" d=" M 57 62 L 61 62" stroke-linejoin="bevel" stroke-miterlimit="10"/><path fill="none" stroke="black" paint-order="fill stroke markers" d=" M 57 56 L 61 56" stroke-linejoin="bevel" stroke-miterlimit="10"/><path fill="none" stroke="black" paint-order="fill stroke markers" d=" M 57 51 L 61 51" stroke-linejoin="bevel" stroke-miterlimit="10"/><path fill="none" stroke="black" paint-order="fill stroke markers" d=" M 57 45 L 61 45" stroke-linejoin="bevel" stroke-miterlimit="10"/><path fill="none" stroke="black" paint-order="fill stroke markers" d=" M 57 39 L 61 39" stroke-linejoin="bevel" stroke-miterlimit="10"/><path fill="none" stroke="black" paint-order="fill stroke markers" d=" M 57 34 L 61 34" stroke-linejoin="bevel" stroke-miterlimit="10"/><path fill="none" stroke="black" paint-order="fill stroke markers" d=" M 57 28 L 61 28" stroke-linejoin="bevel" stroke-miterlimit="10"/><path fill="none" stroke="black" paint-order="fill stroke markers" d=" M 57 23 L 61 23" stroke-linejoin="bevel" stroke-miterlimit="10"/><path fill="none" stroke="black" paint-order="fill stroke markers" d=" M 57 17 L 61 17" stroke-linejoin="bevel" stroke-miterlimit="10"/><path fill="none" stroke="black" paint-order="fill stroke markers" d=" M 57 12 L 61 12" stroke-linejoin="bevel" stroke-miterlimit="10"/><path fill="" stroke="black" paint-order="fill stroke markers" d=" M 57 6 L 61 6" stroke-linejoin="bevel" stroke-miterlimit="10"/><g transform="translate(50,212) rotate(0,0,0)"><text fill="" stroke="none" font-family="helvetica" font-size="8pt" font-style="normal" font-weight="normal" text-decoration="normal" x="0" y="0" text-anchor="end" dominant-baseline="central">0.75</text><g transform="rotate(0,0,0) translate(-50,-212) translate(50,184) rotate(0,0,0)"><text fill="" stroke="none" font-family="helvetica" font-size="8pt" font-style="normal" font-weight="normal" text-decoration="normal" x="0" y="0" text-anchor="end" dominant-baseline="central">0.8</text><g transform="rotate(0,0,0) translate(-50,-184) translate(50,156) rotate(0,0,0)"><text fill="" stroke="none" font-family="helvetica" font-size="8pt" font-style="normal" font-weight="normal" text-decoration="normal" x="0" y="0" text-anchor="end" dominant-baseline="central">0.85</text><g transform="rotate(0,0,0) translate(-50,-156) translate(50,128) rotate(0,0,0)"><text fill="" stroke="none" font-family="helvetica" font-size="8pt" font-style="normal" font-weight="normal" text-decoration="normal" x="0" y="0" text-anchor="end" dominant-baseline="central">0.9</text><g transform="rotate(0,0,0) translate(-50,-128) translate(50,101) rotate(0,0,0)"><text fill="" stroke="none" font-family="helvetica" font-size="8pt" font-style="normal" font-weight="normal" text-decoration="normal" x="0" y="0" text-anchor="end" dominant-baseline="central">0.95</text><g transform="rotate(0,0,0) translate(-50,-101) translate(50,73) rotate(0,0,0)"><text fill="" stroke="none" font-family="helvetica" font-size="8pt" font-style="normal" font-weight="normal" text-decoration="normal" x="0" y="0" text-anchor="end" dominant-baseline="central">1</text><g transform="rotate(0,0,0) translate(-50,-73) translate(50,45) rotate(0,0,0)"><text fill="" stroke="none" font-family="helvetica" font-size="8pt" font-style="normal" font-weight="normal" text-decoration="normal" x="0" y="0" text-anchor="end" dominant-baseline="central">1.05</text><g transform="rotate(0,0,0) translate(-50,-45) translate(50,17) rotate(0,0,0)"><text fill="" stroke="none" font-family="helvetica" font-size="8pt" font-style="normal" font-weight="normal" text-decoration="normal" x="0" y="0" text-anchor="end" dominant-baseline="central">1.1</text><g transform="rotate(0,0,0) translate(-50,-17) translate(18,115) rotate(-90,0,0)"><text fill="" stroke="none" font-family="helvetica" font-size="10pt" font-style="italic" font-weight="normal" text-decoration="normal" x="0" y="0" text-anchor="middle" dominant-baseline="alphabetic">Similaridade (S)</text><g transform="rotate(90,0,0) translate(-18,-115)"/></g></g></g></g></g></g></g></g></g></g></g></g></g></svg>