<svg version="1.1" xmlns="http://www.w3.org/2000/svg" xmlns:xlink="http://www.w3.org/1999/xlink" width="280" height="200" style="width: 280px; height: 200px;"><defs><clipPath id="dWcUebFBPZFS"><path fill="none" stroke="none" d=" M 54 5 L 275 5 L 275 170 L 54 170 L 54 5 Z"/></clipPath><clipPath id="XABbaTvAFwQN"><path fill="none" stroke="none" d=" M 54 5 L 275 5 L 275 170 L 54 170 L 54 5 Z"/></clipPath><clipPath id="QqCUGDHZcXRS"><path fill="none" stroke="none" d=" M 54 5 L 275 5 L 275 170 L 54 170 L 54 5 Z"/></clipPath><clipPath id="DyMPgGIPIbKH"><path fill="none" stroke="none" d=" M 54 5 L 275 5 L 275 170 L 54 170 L 54 5 Z"/></clipPath><clipPath id="CxbRwcMqSClr"><path fill="none" stroke="none" d=" M 54 5 L 275 5 L 275 170 L 54 170 L 54 5 Z"/></clipPath><clipPath id="UkheVORNrIAE"><path fill="none" stroke="none" d=" M 54 5 L 275 5 L 275 170 L 54 170 L 54 5 Z"/></clipPath><clipPath id="qJFPRXQXPiIb"><path fill="none" stroke="none" d=" M 54 5 L 275 5 L 275 170 L 54 170 L 54 5 Z"/></clipPath><clipPath id="eFmvtSnFPlTO"><path fill="none" stroke="none" d=" M 54 5 L 275 5 L 275 170 L 54 170 L 54 5 Z"/></clipPath><clipPath id="cGqzswyVpsGr"><path fill="none" stroke="none" d=" M 54 5 L 275 5 L 275 170 L 54 170 L 54 5 Z"/></clipPath><clipPath id="ESkReUrMNBlT"><path fill="none" stroke="none" d=" M 54 5 L 275 5 L 275 170 L 54 170 L 54 5 Z"/></clipPath><clipPath id="wwkbJinFBzSa"><path fill="none" stroke="none" d=" M 54 5 L 275 5 L 275 170 L 54 170 L 54 5 Z"/></clipPath></defs><g><g transform="scale(1,1) translate(0.5,0.5)"><rect fill="#FFFFFF" stroke="none" x="0" y="0" width="280" height="200"/><rect fill="#ffffff" stroke="none" x="0" y="0" width="280" height="200"/><rect fill="#FFFFFF" stroke="none" x="54" y="5" width="221" height="165"/><rect fill="#ffffff" stroke="none" x="54" y="5" width="221" height="165"/><g><rect fill="none" stroke="#e5e5e5" x="54" y="5" width="221" height="165" stroke-linejoin="bevel" stroke-miterlimit="10"/></g><g clip-path="url(#dWcUebFBPZFS)"><g><g><path fill="none" stroke="#e5e5e5" paint-order="fill stroke markers" d=" M 109 170 L 109 5" stroke-linejoin="bevel" stroke-miterlimit="10"/><path fill="none" stroke="#e5e5e5" paint-order="fill stroke markers" d=" M 220 170 L 220 5" stroke-linejoin="bevel" stroke-miterlimit="10"/></g></g></g><g clip-path="url(#XABbaTvAFwQN)"><g><g><path fill="none" stroke="#e5e5e5" paint-order="fill stroke markers" d=" M 54 162 L 275 162" stroke-linejoin="bevel" stroke-miterlimit="10"/><path fill="none" stroke="#e5e5e5" paint-order="fill stroke markers" d=" M 54 140 L 275 140" stroke-linejoin="bevel" stroke-miterlimit="10"/><path fill="none" stroke="#e5e5e5" paint-order="fill stroke markers" d=" M 54 118 L 275 118" stroke-linejoin="bevel" stroke-miterlimit="10"/><path fill="none" stroke="#e5e5e5" paint-order="fill stroke markers" d=" M 54 95 L 275 95" stroke-linejoin="bevel" stroke-miterlimit="10"/><path fill="none" stroke="#e5e5e5" paint-order="fill stroke markers" d=" M 54 73 L 275 73" stroke-linejoin="bevel" stroke-miterlimit="10"/><path fill="none" stroke="#e5e5e5" paint-order="fill stroke markers" d=" M 54 50 L 275 50" stroke-linejoin="bevel" stroke-miterlimit="10"/><path fill="none" stroke="#e5e5e5" paint-order="fill stroke markers" d=" M 54 28 L 275 28" stroke-linejoin="bevel" stroke-miterlimit="10"/><path fill="none" stroke="#e5e5e5" paint-order="fill stroke markers" d=" M 54 5 L 275 5" stroke-linejoin="bevel" stroke-miterlimit="10"/></g></g></g><g clip-path="url(#QqCUGDHZcXRS)"><g><g><path fill="none" stroke="none"/><path fill="none" stroke="black" paint-order="fill stroke markers" d=" M 109.25 136.8445491455391 L 109.25 106.36183537951311" stroke-linejoin="bevel" stroke-miterlimit="10"/><path fill="none" stroke="black" paint-order="fill stroke markers" d=" M 219.75 108.47107742904836 L 219.75 43.96324159167662" stroke-linejoin="bevel" stroke-miterlimit="10"/></g></g></g><g clip-path="url(#DyMPgGIPIbKH)"><g><g><path fill="none" stroke="none"/><path fill="none" stroke="black" paint-order="fill stroke markers" d=" M 109.25 162.49439276222765 L 109.25 157.16635832288978" stroke-linejoin="bevel" stroke-miterlimit="10"/><path fill="none" stroke="black" paint-order="fill stroke markers" d=" M 219.75 162.49439276222765 L 219.75 151.47630132062952" stroke-linejoin="bevel" stroke-miterlimit="10"/></g></g></g><g clip-path="url(#CxbRwcMqSClr)"><g><g><path fill="none" stroke="none"/><path fill="#E08E79" stroke="none" paint-order="stroke fill markers" d=" M 92.675 141.8510789377204 L 125.825 141.8510789377204 L 125.825 136.8445491455391 L 92.675 136.8445491455391 L 92.675 141.8510789377204 Z"/><path fill="none" stroke="black" paint-order="fill stroke markers" d=" M 92.675 141.8510789377204 L 125.825 141.8510789377204 L 125.825 136.8445491455391 L 92.675 136.8445491455391 L 92.675 141.8510789377204 Z" stroke-linejoin="bevel" stroke-miterlimit="10"/><path fill="#E08E79" stroke="none" paint-order="stroke fill markers" d=" M 203.175 116.6803892195599 L 236.325 116.6803892195599 L 236.325 108.47107742904836 L 203.175 108.47107742904836 L 203.175 116.6803892195599 Z"/><path fill="none" stroke="black" paint-order="fill stroke markers" d=" M 203.175 116.6803892195599 L 236.325 116.6803892195599 L 236.325 108.47107742904836 L 203.175 108.47107742904836 L 203.175 116.6803892195599 Z" stroke-linejoin="bevel" stroke-miterlimit="10"/></g></g></g><g clip-path="url(#UkheVORNrIAE)"><g><g><path fill="none" stroke="none"/><path fill="#3B8686" stroke="none" paint-order="stroke fill markers" d=" M 92.675 157.16635832288978 L 125.825 157.16635832288978 L 125.825 141.8510789377204 L 92.675 141.8510789377204 L 92.675 157.16635832288978 Z"/><path fill="none" stroke="black" paint-order="fill stroke markers" d=" M 92.675 157.16635832288978 L 125.825 157.16635832288978 L 125.825 141.8510789377204 L 92.675 141.8510789377204 L 92.675 157.16635832288978 Z" stroke-linejoin="bevel" stroke-miterlimit="10"/><path fill="#3B8686" stroke="none" paint-order="stroke fill markers" d=" M 203.175 151.47630132062952 L 236.325 151.47630132062952 L 236.325 116.6803892195599 L 203.175 116.6803892195599 L 203.175 151.47630132062952 Z"/><path fill="none" stroke="black" paint-order="fill stroke markers" d=" M 203.175 151.47630132062952 L 236.325 151.47630132062952 L 236.325 116.6803892195599 L 203.175 116.6803892195599 L 203.175 151.47630132062952 Z" stroke-linejoin="bevel" stroke-miterlimit="10"/></g></g></g><g clip-path="url(#qJFPRXQXPiIb)"><g><g><path fill="none" stroke="none"/><rect fill="#1f77b4" stroke="none" x="98.2" y="162.48878552445532" width="22.10000000000001" height="0.01121447554464794"/><rect fill="#1f77b4" stroke="none" x="208.7" y="162.48878552445532" width="22.099999999999994" height="0.01121447554464794"/><path fill="none" stroke="black" paint-order="fill stroke markers" d=" M 98.2 162.48878552445532 L 120.30000000000001 162.48878552445532 L 120.30000000000001 162.49999999999997 L 98.2 162.49999999999997 L 98.2 162.48878552445532 Z" stroke-linejoin="bevel" stroke-miterlimit="10"/><path fill="none" stroke="black" paint-order="fill stroke markers" d=" M 208.7 162.48878552445532 L 230.79999999999998 162.48878552445532 L 230.79999999999998 162.49999999999997 L 208.7 162.49999999999997 L 208.7 162.48878552445532 Z" stroke-linejoin="bevel" stroke-miterlimit="10"/><path fill="none" stroke="black" paint-order="fill stroke markers" d="" stroke-linejoin="bevel" stroke-miterlimit="10"/></g></g></g><g clip-path="url(#eFmvtSnFPlTO)"><g><g><path fill="none" stroke="none"/><rect fill="#1f77b4" stroke="none" x="98.2" y="106.35622814174077" width="22.10000000000001" height="0.01121447554466215"/><rect fill="#1f77b4" stroke="none" x="208.7" y="43.95763435390428" width="22.099999999999994" height="0.01121447554464794"/><path fill="none" stroke="black" paint-order="fill stroke markers" d=" M 98.2 106.35622814174077 L 120.30000000000001 106.35622814174077 L 120.30000000000001 106.36744261728543 L 98.2 106.36744261728543 L 98.2 106.35622814174077 Z" stroke-linejoin="bevel" stroke-miterlimit="10"/><path fill="none" stroke="black" paint-order="fill stroke markers" d=" M 208.7 43.95763435390428 L 230.79999999999998 43.95763435390428 L 230.79999999999998 43.96884882944893 L 208.7 43.96884882944893 L 208.7 43.95763435390428 Z" stroke-linejoin="bevel" stroke-miterlimit="10"/><path fill="none" stroke="black" paint-order="fill stroke markers" d="" stroke-linejoin="bevel" stroke-miterlimit="10"/></g></g></g><g clip-path="url(#cGqzswyVpsGr)"><g><g><path fill="none" stroke="none"/><path fill="#F38630" stroke="#F38630" paint-order="fill stroke markers" d=" M 112.25 105.49345240268009 A 3 3 0 1 1 112.24999850000013 105.49045240318009" fill-opacity="0.6" stroke-linejoin="bevel" stroke-miterlimit="10"/></g></g></g><g clip-path="url(#ESkReUrMNBlT)"><g><g><path fill="none" stroke="none"/><path fill="#F38630" stroke="#F38630" paint-order="fill stroke markers" d=" M 222.75 13.886193050034137 A 3 3 0 1 1 222.74999850000012 13.883193050534135" fill-opacity="0.6" stroke-linejoin="bevel" stroke-miterlimit="10"/><path fill="#F38630" stroke="#F38630" paint-order="fill stroke markers" d=" M 222.75 12.5 A 3 3 0 1 1 222.74999850000012 12.497000000499998" fill-opacity="0.6" stroke-linejoin="bevel" stroke-miterlimit="10"/></g></g></g><g clip-path="url(#wwkbJinFBzSa)"><g><g/><g><path fill="#ffffff" stroke="#e5e5e5" paint-order="fill stroke markers" d=" M 64 15 L 159.25 15 L 159.25 55 L 64 55 L 64 15 Z" fill-opacity="0.95" stroke-linejoin="bevel" stroke-miterlimit="10" stroke-opacity="0.5"/><text fill="#444444" stroke="none" font-family="helvetica" font-size="10pt" font-style="normal" font-weight="normal" text-decoration="normal" x="99" y="35" text-anchor="start" dominant-baseline="central">outliers</text><path fill="#F38630" stroke="#F38630" paint-order="fill stroke markers" d=" M 88 35 A 4 4 0 1 1 87.99999800000016 34.99600000066666" fill-opacity="0.6" stroke-linejoin="bevel" stroke-miterlimit="10"/></g></g></g><g/><g><g fill="#444444"><path fill="none" stroke="black" paint-order="fill stroke markers" d=" M 54 170 L 275 170" stroke-linejoin="bevel" stroke-miterlimit="10"/><path fill="none" stroke="black" paint-order="fill stroke markers" d=" M 109 176 L 109 168" stroke-linejoin="bevel" stroke-miterlimit="10"/><path fill="" stroke="black" paint-order="fill stroke markers" d=" M 220 176 L 220 168" stroke-linejoin="bevel" stroke-miterlimit="10"/><g transform="translate(109,181) rotate(0,0,0)"><text fill="" stroke="none" font-family="helvetica" font-size="14px" font-style="normal" font-weight="normal" text-decoration="normal" x="0" y="0" text-anchor="middle" dominant-baseline="hanging">Reference genes</text><g transform="rotate(0,0,0) translate(-109,-181) translate(220,181) rotate(0,0,0)"><text fill="" stroke="none" font-family="helvetica" font-size="14px" font-style="normal" font-weight="normal" text-decoration="normal" x="0" y="0" text-anchor="middle" dominant-baseline="hanging">Candidates</text><g transform="rotate(0,0,0) translate(-220,-181)"/></g></g></g></g><g><g fill="#444444"><path fill="none" stroke="black" paint-order="fill stroke markers" d=" M 54 170 L 54 5" stroke-linejoin="bevel" stroke-miterlimit="10"/><path fill="none" stroke="black" paint-order="fill stroke markers" d=" M 48 162 L 56 162" stroke-linejoin="bevel" stroke-miterlimit="10"/><path fill="none" stroke="black" paint-order="fill stroke markers" d=" M 48 140 L 56 140" stroke-linejoin="bevel" stroke-miterlimit="10"/><path fill="none" stroke="black" paint-order="fill stroke markers" d=" M 48 118 L 56 118" stroke-linejoin="bevel" stroke-miterlimit="10"/><path fill="none" stroke="black" paint-order="fill stroke markers" d=" M 48 95 L 56 95" stroke-linejoin="bevel" stroke-miterlimit="10"/><path fill="none" stroke="black" paint-order="fill stroke markers" d=" M 48 73 L 56 73" stroke-linejoin="bevel" stroke-miterlimit="10"/><path fill="none" stroke="black" paint-order="fill stroke markers" d=" M 48 50 L 56 50" stroke-linejoin="bevel" stroke-miterlimit="10"/><path fill="none" stroke="black" paint-order="fill stroke markers" d=" M 48 28 L 56 28" stroke-linejoin="bevel" stroke-miterlimit="10"/><path fill="none" stroke="black" paint-order="fill stroke markers" d=" M 48 5 L 56 5" stroke-linejoin="bevel" stroke-miterlimit="10"/><path fill="none" stroke="black" paint-order="fill stroke markers" d=" M 50 167 L 54 167" stroke-linejoin="bevel" stroke-miterlimit="10"/><path fill="none" stroke="black" paint-order="fill stroke markers" d=" M 50 162 L 54 162" stroke-linejoin="bevel" stroke-miterlimit="10"/><path fill="none" stroke="black" paint-order="fill stroke markers" d=" M 50 158 L 54 158" stroke-linejoin="bevel" stroke-miterlimit="10"/><path fill="none" stroke="black" paint-order="fill stroke markers" d=" M 50 154 L 54 154" stroke-linejoin="bevel" stroke-miterlimit="10"/><path fill="none" stroke="black" paint-order="fill stroke markers" d=" M 50 149 L 54 149" stroke-linejoin="bevel" stroke-miterlimit="10"/><path fill="none" stroke="black" paint-order="fill stroke markers" d=" M 50 145 L 54 145" stroke-linejoin="bevel" stroke-miterlimit="10"/><path fill="none" stroke="black" paint-order="fill stroke markers" d=" M 50 140 L 54 140" stroke-linejoin="bevel" stroke-miterlimit="10"/><path fill="none" stroke="black" paint-order="fill stroke markers" d=" M 50 136 L 54 136" stroke-linejoin="bevel" stroke-miterlimit="10"/><path fill="none" stroke="black" paint-order="fill stroke markers" d=" M 50 131 L 54 131" stroke-linejoin="bevel" stroke-miterlimit="10"/><path fill="none" stroke="black" paint-order="fill stroke markers" d=" M 50 127 L 54 127" stroke-linejoin="bevel" stroke-miterlimit="10"/><path fill="none" stroke="black" paint-order="fill stroke markers" d=" M 50 122 L 54 122" stroke-linejoin="bevel" stroke-miterlimit="10"/><path fill="none" stroke="black" paint-order="fill stroke markers" d=" M 50 118 L 54 118" stroke-linejoin="bevel" stroke-miterlimit="10"/><path fill="none" stroke="black" paint-order="fill stroke markers" d=" M 50 113 L 54 113" stroke-linejoin="bevel" stroke-miterlimit="10"/><path fill="none" stroke="black" paint-order="fill stroke markers" d=" M 50 109 L 54 109" stroke-linejoin="bevel" stroke-miterlimit="10"/><path fill="none" stroke="black" paint-order="fill stroke markers" d=" M 50 104 L 54 104" stroke-linejoin="bevel" stroke-miterlimit="10"/><path fill="none" stroke="black" paint-order="fill stroke markers" d=" M 50 100 L 54 100" stroke-linejoin="bevel" stroke-miterlimit="10"/><path fill="none" stroke="black" paint-order="fill stroke markers" d=" M 50 95 L 54 95" stroke-linejoin="bevel" stroke-miterlimit="10"/><path fill="none" stroke="black" paint-order="fill stroke markers" d=" M 50 91 L 54 91" stroke-linejoin="bevel" stroke-miterlimit="10"/><path fill="none" stroke="black" paint-order="fill stroke markers" d=" M 50 86 L 54 86" stroke-linejoin="bevel" stroke-miterlimit="10"/><path fill="none" stroke="black" paint-order="fill stroke markers" d=" M 50 82 L 54 82" stroke-linejoin="bevel" stroke-miterlimit="10"/><path fill="none" stroke="black" paint-order="fill stroke markers" d=" M 50 77 L 54 77" stroke-linejoin="bevel" stroke-miterlimit="10"/><path fill="none" stroke="black" paint-order="fill stroke markers" d=" M 50 73 L 54 73" stroke-linejoin="bevel" stroke-miterlimit="10"/><path fill="none" stroke="black" paint-order="fill stroke markers" d=" M 50 68 L 54 68" stroke-linejoin="bevel" stroke-miterlimit="10"/><path fill="none" stroke="black" paint-order="fill stroke markers" d=" M 50 64 L 54 64" stroke-linejoin="bevel" stroke-miterlimit="10"/><path fill="none" stroke="black" paint-order="fill stroke markers" d=" M 50 59 L 54 59" stroke-linejoin="bevel" stroke-miterlimit="10"/><path fill="none" stroke="black" paint-order="fill stroke markers" d=" M 50 55 L 54 55" stroke-linejoin="bevel" stroke-miterlimit="10"/><path fill="none" stroke="black" paint-order="fill stroke markers" d=" M 50 50 L 54 50" stroke-linejoin="bevel" stroke-miterlimit="10"/><path fill="none" stroke="black" paint-order="fill stroke markers" d=" M 50 46 L 54 46" stroke-linejoin="bevel" stroke-miterlimit="10"/><path fill="none" stroke="black" paint-order="fill stroke markers" d=" M 50 41 L 54 41" stroke-linejoin="bevel" stroke-miterlimit="10"/><path fill="none" stroke="black" paint-order="fill stroke markers" d=" M 50 37 L 54 37" stroke-linejoin="bevel" stroke-miterlimit="10"/><path fill="none" stroke="black" paint-order="fill stroke markers" d=" M 50 32 L 54 32" stroke-linejoin="bevel" stroke-miterlimit="10"/><path fill="none" stroke="black" paint-order="fill stroke markers" d=" M 50 28 L 54 28" stroke-linejoin="bevel" stroke-miterlimit="10"/><path fill="none" stroke="black" paint-order="fill stroke markers" d=" M 50 23 L 54 23" stroke-linejoin="bevel" stroke-miterlimit="10"/><path fill="none" stroke="black" paint-order="fill stroke markers" d=" M 50 19 L 54 19" stroke-linejoin="bevel" stroke-miterlimit="10"/><path fill="none" stroke="black" paint-order="fill stroke markers" d=" M 50 14 L 54 14" stroke-linejoin="bevel" stroke-miterlimit="10"/><path fill="none" stroke="black" paint-order="fill stroke markers" d=" M 50 10 L 54 10" stroke-linejoin="bevel" stroke-miterlimit="10"/><path fill="" stroke="black" paint-order="fill stroke markers" d=" M 50 5 L 54 5" stroke-linejoin="bevel" stroke-miterlimit="10"/><g transform="translate(43,162) rotate(0,0,0)"><text fill="" stroke="none" font-family="helvetica" font-size="8pt" font-style="normal" font-weight="normal" text-decoration="normal" x="0" y="0" text-anchor="end" dominant-baseline="central">0</text><g transform="rotate(0,0,0) translate(-43,-162) translate(43,140) rotate(0,0,0)"><text fill="" stroke="none" font-family="helvetica" font-size="8pt" font-style="normal" font-weight="normal" text-decoration="normal" x="0" y="0" text-anchor="end" dominant-baseline="central">0.2</text><g transform="rotate(0,0,0) translate(-43,-140) translate(43,118) rotate(0,0,0)"><text fill="" stroke="none" font-family="helvetica" font-size="8pt" font-style="normal" font-weight="normal" text-decoration="normal" x="0" y="0" text-anchor="end" dominant-baseline="central">0.4</text><g transform="rotate(0,0,0) translate(-43,-118) translate(43,95) rotate(0,0,0)"><text fill="" stroke="none" font-family="helvetica" font-size="8pt" font-style="normal" font-weight="normal" text-decoration="normal" x="0" y="0" text-anchor="end" dominant-baseline="central">0.6</text><g transform="rotate(0,0,0) translate(-43,-95) translate(43,73) rotate(0,0,0)"><text fill="" stroke="none" font-family="helvetica" font-size="8pt" font-style="normal" font-weight="normal" text-decoration="normal" x="0" y="0" text-anchor="end" dominant-baseline="central">0.8</text><g transform="rotate(0,0,0) translate(-43,-73) translate(43,50) rotate(0,0,0)"><text fill="" stroke="none" font-family="helvetica" font-size="8pt" font-style="normal" font-weight="normal" text-decoration="normal" x="0" y="0" text-anchor="end" dominant-baseline="central">1</text><g transform="rotate(0,0,0) translate(-43,-50) translate(43,28) rotate(0,0,0)"><text fill="" stroke="none" font-family="helvetica" font-size="8pt" font-style="normal" font-weight="normal" text-decoration="normal" x="0" y="0" text-anchor="end" dominant-baseline="central">1.2</text><g transform="rotate(0,0,0) translate(-43,-28) translate(43,5) rotate(0,0,0)"><text fill="" stroke="none" font-family="helvetica" font-size="8pt" font-style="normal" font-weight="normal" text-decoration="normal" x="0" y="0" text-anchor="end" dominant-baseline="central">1.4</text><g transform="rotate(0,0,0) translate(-43,-5) translate(19,88) rotate(-90,0,0)"><text fill="" stroke="none" font-family="helvetica" font-size="14px" font-style="italic" font-weight="normal" text-decoration="normal" x="0" y="0" text-anchor="middle" dominant-baseline="alphabetic">Coefficient of variation</text><g transform="rotate(90,0,0) translate(-19,-88)"/></g></g></g></g></g></g></g></g></g></g></g></g></g></svg>