<?xml version="1.0" encoding="utf-8" standalone="no"?>
<!DOCTYPE svg PUBLIC "-//W3C//DTD SVG 1.1//EN"
  "http://www.w3.org/Graphics/SVG/1.1/DTD/svg11.dtd">
<svg height="288pt" version="1.1" viewBox="0 0 576 288" width="576pt" xmlns="http://www.w3.org/2000/svg" xmlns:xlink="http://www.w3.org/1999/xlink">
 <metadata>
  <rdf:RDF xmlns:cc="http://creativecommons.org/ns#" xmlns:dc="http://purl.org/dc/elements/1.1/" xmlns:rdf="http://www.w3.org/1999/02/22-rdf-syntax-ns#">
   <cc:Work>
    <dc:type rdf:resource="http://purl.org/dc/dcmitype/StillImage"/>
    <dc:date>2021-04-09T18:22:49.357876</dc:date>
    <dc:format>image/svg+xml</dc:format>
    <dc:creator>
     <cc:Agent>
      <dc:title>Matplotlib v3.4.1, https://matplotlib.org/</dc:title>
     </cc:Agent>
    </dc:creator>
   </cc:Work>
  </rdf:RDF>
 </metadata>
 <defs>
  <style type="text/css">*{stroke-linecap:butt;stroke-linejoin:round;}</style>
 </defs>
 <g id="figure_1">
  <g id="patch_1">
   <path d="M 0 288 
L 576 288 
L 576 0 
L 0 0 
z
" style="fill:none;"/>
  </g>
  <g id="axes_1">
   <g id="patch_2">
    <path d="M 72 252 
L 518.4 252 
L 518.4 34.56 
L 72 34.56 
z
" style="fill:#ffffff;"/>
   </g>
   <g id="matplotlib.axis_1">
    <g id="xtick_1">
     <g id="line2d_1">
      <defs>
       <path d="M 0 0 
L 0 3.5 
" id="me20cbee0dd" style="stroke:#000000;stroke-width:0.8;"/>
      </defs>
      <g>
       <use style="stroke:#000000;stroke-width:0.8;" x="92.290909" xlink:href="#me20cbee0dd" y="252"/>
      </g>
     </g>
     <g id="text_1">
      <!-- 0 -->
      <g transform="translate(89.109659 266.598437)scale(0.1 -0.1)">
       <defs>
        <path d="M 2034 4250 
Q 1547 4250 1301 3770 
Q 1056 3291 1056 2328 
Q 1056 1369 1301 889 
Q 1547 409 2034 409 
Q 2525 409 2770 889 
Q 3016 1369 3016 2328 
Q 3016 3291 2770 3770 
Q 2525 4250 2034 4250 
z
M 2034 4750 
Q 2819 4750 3233 4129 
Q 3647 3509 3647 2328 
Q 3647 1150 3233 529 
Q 2819 -91 2034 -91 
Q 1250 -91 836 529 
Q 422 1150 422 2328 
Q 422 3509 836 4129 
Q 1250 4750 2034 4750 
z
" id="DejaVuSans-30" transform="scale(0.015625)"/>
       </defs>
       <use xlink:href="#DejaVuSans-30"/>
      </g>
     </g>
    </g>
    <g id="xtick_2">
     <g id="line2d_2">
      <g>
       <use style="stroke:#000000;stroke-width:0.8;" x="152.040347" xlink:href="#me20cbee0dd" y="252"/>
      </g>
     </g>
     <g id="text_2">
      <!-- 250 -->
      <g transform="translate(142.496597 266.598437)scale(0.1 -0.1)">
       <defs>
        <path d="M 1228 531 
L 3431 531 
L 3431 0 
L 469 0 
L 469 531 
Q 828 903 1448 1529 
Q 2069 2156 2228 2338 
Q 2531 2678 2651 2914 
Q 2772 3150 2772 3378 
Q 2772 3750 2511 3984 
Q 2250 4219 1831 4219 
Q 1534 4219 1204 4116 
Q 875 4013 500 3803 
L 500 4441 
Q 881 4594 1212 4672 
Q 1544 4750 1819 4750 
Q 2544 4750 2975 4387 
Q 3406 4025 3406 3419 
Q 3406 3131 3298 2873 
Q 3191 2616 2906 2266 
Q 2828 2175 2409 1742 
Q 1991 1309 1228 531 
z
" id="DejaVuSans-32" transform="scale(0.015625)"/>
        <path d="M 691 4666 
L 3169 4666 
L 3169 4134 
L 1269 4134 
L 1269 2991 
Q 1406 3038 1543 3061 
Q 1681 3084 1819 3084 
Q 2600 3084 3056 2656 
Q 3513 2228 3513 1497 
Q 3513 744 3044 326 
Q 2575 -91 1722 -91 
Q 1428 -91 1123 -41 
Q 819 9 494 109 
L 494 744 
Q 775 591 1075 516 
Q 1375 441 1709 441 
Q 2250 441 2565 725 
Q 2881 1009 2881 1497 
Q 2881 1984 2565 2268 
Q 2250 2553 1709 2553 
Q 1456 2553 1204 2497 
Q 953 2441 691 2322 
L 691 4666 
z
" id="DejaVuSans-35" transform="scale(0.015625)"/>
       </defs>
       <use xlink:href="#DejaVuSans-32"/>
       <use x="63.623047" xlink:href="#DejaVuSans-35"/>
       <use x="127.246094" xlink:href="#DejaVuSans-30"/>
      </g>
     </g>
    </g>
    <g id="xtick_3">
     <g id="line2d_3">
      <g>
       <use style="stroke:#000000;stroke-width:0.8;" x="211.789785" xlink:href="#me20cbee0dd" y="252"/>
      </g>
     </g>
     <g id="text_3">
      <!-- 500 -->
      <g transform="translate(202.246035 266.598437)scale(0.1 -0.1)">
       <use xlink:href="#DejaVuSans-35"/>
       <use x="63.623047" xlink:href="#DejaVuSans-30"/>
       <use x="127.246094" xlink:href="#DejaVuSans-30"/>
      </g>
     </g>
    </g>
    <g id="xtick_4">
     <g id="line2d_4">
      <g>
       <use style="stroke:#000000;stroke-width:0.8;" x="271.539223" xlink:href="#me20cbee0dd" y="252"/>
      </g>
     </g>
     <g id="text_4">
      <!-- 750 -->
      <g transform="translate(261.995473 266.598437)scale(0.1 -0.1)">
       <defs>
        <path d="M 525 4666 
L 3525 4666 
L 3525 4397 
L 1831 0 
L 1172 0 
L 2766 4134 
L 525 4134 
L 525 4666 
z
" id="DejaVuSans-37" transform="scale(0.015625)"/>
       </defs>
       <use xlink:href="#DejaVuSans-37"/>
       <use x="63.623047" xlink:href="#DejaVuSans-35"/>
       <use x="127.246094" xlink:href="#DejaVuSans-30"/>
      </g>
     </g>
    </g>
    <g id="xtick_5">
     <g id="line2d_5">
      <g>
       <use style="stroke:#000000;stroke-width:0.8;" x="331.28866" xlink:href="#me20cbee0dd" y="252"/>
      </g>
     </g>
     <g id="text_5">
      <!-- 1000 -->
      <g transform="translate(318.56366 266.598437)scale(0.1 -0.1)">
       <defs>
        <path d="M 794 531 
L 1825 531 
L 1825 4091 
L 703 3866 
L 703 4441 
L 1819 4666 
L 2450 4666 
L 2450 531 
L 3481 531 
L 3481 0 
L 794 0 
L 794 531 
z
" id="DejaVuSans-31" transform="scale(0.015625)"/>
       </defs>
       <use xlink:href="#DejaVuSans-31"/>
       <use x="63.623047" xlink:href="#DejaVuSans-30"/>
       <use x="127.246094" xlink:href="#DejaVuSans-30"/>
       <use x="190.869141" xlink:href="#DejaVuSans-30"/>
      </g>
     </g>
    </g>
    <g id="xtick_6">
     <g id="line2d_6">
      <g>
       <use style="stroke:#000000;stroke-width:0.8;" x="391.038098" xlink:href="#me20cbee0dd" y="252"/>
      </g>
     </g>
     <g id="text_6">
      <!-- 1250 -->
      <g transform="translate(378.313098 266.598437)scale(0.1 -0.1)">
       <use xlink:href="#DejaVuSans-31"/>
       <use x="63.623047" xlink:href="#DejaVuSans-32"/>
       <use x="127.246094" xlink:href="#DejaVuSans-35"/>
       <use x="190.869141" xlink:href="#DejaVuSans-30"/>
      </g>
     </g>
    </g>
    <g id="xtick_7">
     <g id="line2d_7">
      <g>
       <use style="stroke:#000000;stroke-width:0.8;" x="450.787536" xlink:href="#me20cbee0dd" y="252"/>
      </g>
     </g>
     <g id="text_7">
      <!-- 1500 -->
      <g transform="translate(438.062536 266.598437)scale(0.1 -0.1)">
       <use xlink:href="#DejaVuSans-31"/>
       <use x="63.623047" xlink:href="#DejaVuSans-35"/>
       <use x="127.246094" xlink:href="#DejaVuSans-30"/>
       <use x="190.869141" xlink:href="#DejaVuSans-30"/>
      </g>
     </g>
    </g>
    <g id="xtick_8">
     <g id="line2d_8">
      <g>
       <use style="stroke:#000000;stroke-width:0.8;" x="510.536974" xlink:href="#me20cbee0dd" y="252"/>
      </g>
     </g>
     <g id="text_8">
      <!-- 1750 -->
      <g transform="translate(497.811974 266.598437)scale(0.1 -0.1)">
       <use xlink:href="#DejaVuSans-31"/>
       <use x="63.623047" xlink:href="#DejaVuSans-37"/>
       <use x="127.246094" xlink:href="#DejaVuSans-35"/>
       <use x="190.869141" xlink:href="#DejaVuSans-30"/>
      </g>
     </g>
    </g>
    <g id="text_9">
     <!-- Epochs -->
     <g transform="translate(271.909687 282.556094)scale(0.13 -0.13)">
      <defs>
       <path d="M 628 4666 
L 3578 4666 
L 3578 4134 
L 1259 4134 
L 1259 2753 
L 3481 2753 
L 3481 2222 
L 1259 2222 
L 1259 531 
L 3634 531 
L 3634 0 
L 628 0 
L 628 4666 
z
" id="DejaVuSans-45" transform="scale(0.015625)"/>
       <path d="M 1159 525 
L 1159 -1331 
L 581 -1331 
L 581 3500 
L 1159 3500 
L 1159 2969 
Q 1341 3281 1617 3432 
Q 1894 3584 2278 3584 
Q 2916 3584 3314 3078 
Q 3713 2572 3713 1747 
Q 3713 922 3314 415 
Q 2916 -91 2278 -91 
Q 1894 -91 1617 61 
Q 1341 213 1159 525 
z
M 3116 1747 
Q 3116 2381 2855 2742 
Q 2594 3103 2138 3103 
Q 1681 3103 1420 2742 
Q 1159 2381 1159 1747 
Q 1159 1113 1420 752 
Q 1681 391 2138 391 
Q 2594 391 2855 752 
Q 3116 1113 3116 1747 
z
" id="DejaVuSans-70" transform="scale(0.015625)"/>
       <path d="M 1959 3097 
Q 1497 3097 1228 2736 
Q 959 2375 959 1747 
Q 959 1119 1226 758 
Q 1494 397 1959 397 
Q 2419 397 2687 759 
Q 2956 1122 2956 1747 
Q 2956 2369 2687 2733 
Q 2419 3097 1959 3097 
z
M 1959 3584 
Q 2709 3584 3137 3096 
Q 3566 2609 3566 1747 
Q 3566 888 3137 398 
Q 2709 -91 1959 -91 
Q 1206 -91 779 398 
Q 353 888 353 1747 
Q 353 2609 779 3096 
Q 1206 3584 1959 3584 
z
" id="DejaVuSans-6f" transform="scale(0.015625)"/>
       <path d="M 3122 3366 
L 3122 2828 
Q 2878 2963 2633 3030 
Q 2388 3097 2138 3097 
Q 1578 3097 1268 2742 
Q 959 2388 959 1747 
Q 959 1106 1268 751 
Q 1578 397 2138 397 
Q 2388 397 2633 464 
Q 2878 531 3122 666 
L 3122 134 
Q 2881 22 2623 -34 
Q 2366 -91 2075 -91 
Q 1284 -91 818 406 
Q 353 903 353 1747 
Q 353 2603 823 3093 
Q 1294 3584 2113 3584 
Q 2378 3584 2631 3529 
Q 2884 3475 3122 3366 
z
" id="DejaVuSans-63" transform="scale(0.015625)"/>
       <path d="M 3513 2113 
L 3513 0 
L 2938 0 
L 2938 2094 
Q 2938 2591 2744 2837 
Q 2550 3084 2163 3084 
Q 1697 3084 1428 2787 
Q 1159 2491 1159 1978 
L 1159 0 
L 581 0 
L 581 4863 
L 1159 4863 
L 1159 2956 
Q 1366 3272 1645 3428 
Q 1925 3584 2291 3584 
Q 2894 3584 3203 3211 
Q 3513 2838 3513 2113 
z
" id="DejaVuSans-68" transform="scale(0.015625)"/>
       <path d="M 2834 3397 
L 2834 2853 
Q 2591 2978 2328 3040 
Q 2066 3103 1784 3103 
Q 1356 3103 1142 2972 
Q 928 2841 928 2578 
Q 928 2378 1081 2264 
Q 1234 2150 1697 2047 
L 1894 2003 
Q 2506 1872 2764 1633 
Q 3022 1394 3022 966 
Q 3022 478 2636 193 
Q 2250 -91 1575 -91 
Q 1294 -91 989 -36 
Q 684 19 347 128 
L 347 722 
Q 666 556 975 473 
Q 1284 391 1588 391 
Q 1994 391 2212 530 
Q 2431 669 2431 922 
Q 2431 1156 2273 1281 
Q 2116 1406 1581 1522 
L 1381 1569 
Q 847 1681 609 1914 
Q 372 2147 372 2553 
Q 372 3047 722 3315 
Q 1072 3584 1716 3584 
Q 2034 3584 2315 3537 
Q 2597 3491 2834 3397 
z
" id="DejaVuSans-73" transform="scale(0.015625)"/>
      </defs>
      <use xlink:href="#DejaVuSans-45"/>
      <use x="63.183594" xlink:href="#DejaVuSans-70"/>
      <use x="126.660156" xlink:href="#DejaVuSans-6f"/>
      <use x="187.841797" xlink:href="#DejaVuSans-63"/>
      <use x="242.822266" xlink:href="#DejaVuSans-68"/>
      <use x="306.201172" xlink:href="#DejaVuSans-73"/>
     </g>
    </g>
   </g>
   <g id="matplotlib.axis_2">
    <g id="ytick_1">
     <g id="line2d_9">
      <path clip-path="url(#p8eb186e037)" d="M 72 241.451979 
L 518.4 241.451979 
" style="fill:none;stroke:#b0b0b0;stroke-linecap:square;stroke-width:0.8;"/>
     </g>
     <g id="line2d_10">
      <defs>
       <path d="M 0 0 
L -3.5 0 
" id="mf836fcae3d" style="stroke:#000000;stroke-width:0.8;"/>
      </defs>
      <g>
       <use style="stroke:#000000;stroke-width:0.8;" x="72" xlink:href="#mf836fcae3d" y="241.451979"/>
      </g>
     </g>
     <g id="text_10">
      <!-- 0.5 -->
      <g transform="translate(49.096875 245.251198)scale(0.1 -0.1)">
       <defs>
        <path d="M 684 794 
L 1344 794 
L 1344 0 
L 684 0 
L 684 794 
z
" id="DejaVuSans-2e" transform="scale(0.015625)"/>
       </defs>
       <use xlink:href="#DejaVuSans-30"/>
       <use x="63.623047" xlink:href="#DejaVuSans-2e"/>
       <use x="95.410156" xlink:href="#DejaVuSans-35"/>
      </g>
     </g>
    </g>
    <g id="ytick_2">
     <g id="line2d_11">
      <path clip-path="url(#p8eb186e037)" d="M 72 211.388194 
L 518.4 211.388194 
" style="fill:none;stroke:#b0b0b0;stroke-linecap:square;stroke-width:0.8;"/>
     </g>
     <g id="line2d_12">
      <g>
       <use style="stroke:#000000;stroke-width:0.8;" x="72" xlink:href="#mf836fcae3d" y="211.388194"/>
      </g>
     </g>
     <g id="text_11">
      <!-- 0.6 -->
      <g transform="translate(49.096875 215.187413)scale(0.1 -0.1)">
       <defs>
        <path d="M 2113 2584 
Q 1688 2584 1439 2293 
Q 1191 2003 1191 1497 
Q 1191 994 1439 701 
Q 1688 409 2113 409 
Q 2538 409 2786 701 
Q 3034 994 3034 1497 
Q 3034 2003 2786 2293 
Q 2538 2584 2113 2584 
z
M 3366 4563 
L 3366 3988 
Q 3128 4100 2886 4159 
Q 2644 4219 2406 4219 
Q 1781 4219 1451 3797 
Q 1122 3375 1075 2522 
Q 1259 2794 1537 2939 
Q 1816 3084 2150 3084 
Q 2853 3084 3261 2657 
Q 3669 2231 3669 1497 
Q 3669 778 3244 343 
Q 2819 -91 2113 -91 
Q 1303 -91 875 529 
Q 447 1150 447 2328 
Q 447 3434 972 4092 
Q 1497 4750 2381 4750 
Q 2619 4750 2861 4703 
Q 3103 4656 3366 4563 
z
" id="DejaVuSans-36" transform="scale(0.015625)"/>
       </defs>
       <use xlink:href="#DejaVuSans-30"/>
       <use x="63.623047" xlink:href="#DejaVuSans-2e"/>
       <use x="95.410156" xlink:href="#DejaVuSans-36"/>
      </g>
     </g>
    </g>
    <g id="ytick_3">
     <g id="line2d_13">
      <path clip-path="url(#p8eb186e037)" d="M 72 181.324409 
L 518.4 181.324409 
" style="fill:none;stroke:#b0b0b0;stroke-linecap:square;stroke-width:0.8;"/>
     </g>
     <g id="line2d_14">
      <g>
       <use style="stroke:#000000;stroke-width:0.8;" x="72" xlink:href="#mf836fcae3d" y="181.324409"/>
      </g>
     </g>
     <g id="text_12">
      <!-- 0.7 -->
      <g transform="translate(49.096875 185.123628)scale(0.1 -0.1)">
       <use xlink:href="#DejaVuSans-30"/>
       <use x="63.623047" xlink:href="#DejaVuSans-2e"/>
       <use x="95.410156" xlink:href="#DejaVuSans-37"/>
      </g>
     </g>
    </g>
    <g id="ytick_4">
     <g id="line2d_15">
      <path clip-path="url(#p8eb186e037)" d="M 72 151.260625 
L 518.4 151.260625 
" style="fill:none;stroke:#b0b0b0;stroke-linecap:square;stroke-width:0.8;"/>
     </g>
     <g id="line2d_16">
      <g>
       <use style="stroke:#000000;stroke-width:0.8;" x="72" xlink:href="#mf836fcae3d" y="151.260625"/>
      </g>
     </g>
     <g id="text_13">
      <!-- 0.8 -->
      <g transform="translate(49.096875 155.059843)scale(0.1 -0.1)">
       <defs>
        <path d="M 2034 2216 
Q 1584 2216 1326 1975 
Q 1069 1734 1069 1313 
Q 1069 891 1326 650 
Q 1584 409 2034 409 
Q 2484 409 2743 651 
Q 3003 894 3003 1313 
Q 3003 1734 2745 1975 
Q 2488 2216 2034 2216 
z
M 1403 2484 
Q 997 2584 770 2862 
Q 544 3141 544 3541 
Q 544 4100 942 4425 
Q 1341 4750 2034 4750 
Q 2731 4750 3128 4425 
Q 3525 4100 3525 3541 
Q 3525 3141 3298 2862 
Q 3072 2584 2669 2484 
Q 3125 2378 3379 2068 
Q 3634 1759 3634 1313 
Q 3634 634 3220 271 
Q 2806 -91 2034 -91 
Q 1263 -91 848 271 
Q 434 634 434 1313 
Q 434 1759 690 2068 
Q 947 2378 1403 2484 
z
M 1172 3481 
Q 1172 3119 1398 2916 
Q 1625 2713 2034 2713 
Q 2441 2713 2670 2916 
Q 2900 3119 2900 3481 
Q 2900 3844 2670 4047 
Q 2441 4250 2034 4250 
Q 1625 4250 1398 4047 
Q 1172 3844 1172 3481 
z
" id="DejaVuSans-38" transform="scale(0.015625)"/>
       </defs>
       <use xlink:href="#DejaVuSans-30"/>
       <use x="63.623047" xlink:href="#DejaVuSans-2e"/>
       <use x="95.410156" xlink:href="#DejaVuSans-38"/>
      </g>
     </g>
    </g>
    <g id="ytick_5">
     <g id="line2d_17">
      <path clip-path="url(#p8eb186e037)" d="M 72 121.19684 
L 518.4 121.19684 
" style="fill:none;stroke:#b0b0b0;stroke-linecap:square;stroke-width:0.8;"/>
     </g>
     <g id="line2d_18">
      <g>
       <use style="stroke:#000000;stroke-width:0.8;" x="72" xlink:href="#mf836fcae3d" y="121.19684"/>
      </g>
     </g>
     <g id="text_14">
      <!-- 0.9 -->
      <g transform="translate(49.096875 124.996059)scale(0.1 -0.1)">
       <defs>
        <path d="M 703 97 
L 703 672 
Q 941 559 1184 500 
Q 1428 441 1663 441 
Q 2288 441 2617 861 
Q 2947 1281 2994 2138 
Q 2813 1869 2534 1725 
Q 2256 1581 1919 1581 
Q 1219 1581 811 2004 
Q 403 2428 403 3163 
Q 403 3881 828 4315 
Q 1253 4750 1959 4750 
Q 2769 4750 3195 4129 
Q 3622 3509 3622 2328 
Q 3622 1225 3098 567 
Q 2575 -91 1691 -91 
Q 1453 -91 1209 -44 
Q 966 3 703 97 
z
M 1959 2075 
Q 2384 2075 2632 2365 
Q 2881 2656 2881 3163 
Q 2881 3666 2632 3958 
Q 2384 4250 1959 4250 
Q 1534 4250 1286 3958 
Q 1038 3666 1038 3163 
Q 1038 2656 1286 2365 
Q 1534 2075 1959 2075 
z
" id="DejaVuSans-39" transform="scale(0.015625)"/>
       </defs>
       <use xlink:href="#DejaVuSans-30"/>
       <use x="63.623047" xlink:href="#DejaVuSans-2e"/>
       <use x="95.410156" xlink:href="#DejaVuSans-39"/>
      </g>
     </g>
    </g>
    <g id="ytick_6">
     <g id="line2d_19">
      <path clip-path="url(#p8eb186e037)" d="M 72 91.133055 
L 518.4 91.133055 
" style="fill:none;stroke:#b0b0b0;stroke-linecap:square;stroke-width:0.8;"/>
     </g>
     <g id="line2d_20">
      <g>
       <use style="stroke:#000000;stroke-width:0.8;" x="72" xlink:href="#mf836fcae3d" y="91.133055"/>
      </g>
     </g>
     <g id="text_15">
      <!-- 1.0 -->
      <g transform="translate(49.096875 94.932274)scale(0.1 -0.1)">
       <use xlink:href="#DejaVuSans-31"/>
       <use x="63.623047" xlink:href="#DejaVuSans-2e"/>
       <use x="95.410156" xlink:href="#DejaVuSans-30"/>
      </g>
     </g>
    </g>
    <g id="ytick_7">
     <g id="line2d_21">
      <path clip-path="url(#p8eb186e037)" d="M 72 61.06927 
L 518.4 61.06927 
" style="fill:none;stroke:#b0b0b0;stroke-linecap:square;stroke-width:0.8;"/>
     </g>
     <g id="line2d_22">
      <g>
       <use style="stroke:#000000;stroke-width:0.8;" x="72" xlink:href="#mf836fcae3d" y="61.06927"/>
      </g>
     </g>
     <g id="text_16">
      <!-- 1.1 -->
      <g transform="translate(49.096875 64.868489)scale(0.1 -0.1)">
       <use xlink:href="#DejaVuSans-31"/>
       <use x="63.623047" xlink:href="#DejaVuSans-2e"/>
       <use x="95.410156" xlink:href="#DejaVuSans-31"/>
      </g>
     </g>
    </g>
    <g id="text_17">
     <!-- Loss (binary cross-entropy) -->
     <g transform="translate(42.393281 231.633281)rotate(-90)scale(0.13 -0.13)">
      <defs>
       <path d="M 628 4666 
L 1259 4666 
L 1259 531 
L 3531 531 
L 3531 0 
L 628 0 
L 628 4666 
z
" id="DejaVuSans-4c" transform="scale(0.015625)"/>
       <path id="DejaVuSans-20" transform="scale(0.015625)"/>
       <path d="M 1984 4856 
Q 1566 4138 1362 3434 
Q 1159 2731 1159 2009 
Q 1159 1288 1364 580 
Q 1569 -128 1984 -844 
L 1484 -844 
Q 1016 -109 783 600 
Q 550 1309 550 2009 
Q 550 2706 781 3412 
Q 1013 4119 1484 4856 
L 1984 4856 
z
" id="DejaVuSans-28" transform="scale(0.015625)"/>
       <path d="M 3116 1747 
Q 3116 2381 2855 2742 
Q 2594 3103 2138 3103 
Q 1681 3103 1420 2742 
Q 1159 2381 1159 1747 
Q 1159 1113 1420 752 
Q 1681 391 2138 391 
Q 2594 391 2855 752 
Q 3116 1113 3116 1747 
z
M 1159 2969 
Q 1341 3281 1617 3432 
Q 1894 3584 2278 3584 
Q 2916 3584 3314 3078 
Q 3713 2572 3713 1747 
Q 3713 922 3314 415 
Q 2916 -91 2278 -91 
Q 1894 -91 1617 61 
Q 1341 213 1159 525 
L 1159 0 
L 581 0 
L 581 4863 
L 1159 4863 
L 1159 2969 
z
" id="DejaVuSans-62" transform="scale(0.015625)"/>
       <path d="M 603 3500 
L 1178 3500 
L 1178 0 
L 603 0 
L 603 3500 
z
M 603 4863 
L 1178 4863 
L 1178 4134 
L 603 4134 
L 603 4863 
z
" id="DejaVuSans-69" transform="scale(0.015625)"/>
       <path d="M 3513 2113 
L 3513 0 
L 2938 0 
L 2938 2094 
Q 2938 2591 2744 2837 
Q 2550 3084 2163 3084 
Q 1697 3084 1428 2787 
Q 1159 2491 1159 1978 
L 1159 0 
L 581 0 
L 581 3500 
L 1159 3500 
L 1159 2956 
Q 1366 3272 1645 3428 
Q 1925 3584 2291 3584 
Q 2894 3584 3203 3211 
Q 3513 2838 3513 2113 
z
" id="DejaVuSans-6e" transform="scale(0.015625)"/>
       <path d="M 2194 1759 
Q 1497 1759 1228 1600 
Q 959 1441 959 1056 
Q 959 750 1161 570 
Q 1363 391 1709 391 
Q 2188 391 2477 730 
Q 2766 1069 2766 1631 
L 2766 1759 
L 2194 1759 
z
M 3341 1997 
L 3341 0 
L 2766 0 
L 2766 531 
Q 2569 213 2275 61 
Q 1981 -91 1556 -91 
Q 1019 -91 701 211 
Q 384 513 384 1019 
Q 384 1609 779 1909 
Q 1175 2209 1959 2209 
L 2766 2209 
L 2766 2266 
Q 2766 2663 2505 2880 
Q 2244 3097 1772 3097 
Q 1472 3097 1187 3025 
Q 903 2953 641 2809 
L 641 3341 
Q 956 3463 1253 3523 
Q 1550 3584 1831 3584 
Q 2591 3584 2966 3190 
Q 3341 2797 3341 1997 
z
" id="DejaVuSans-61" transform="scale(0.015625)"/>
       <path d="M 2631 2963 
Q 2534 3019 2420 3045 
Q 2306 3072 2169 3072 
Q 1681 3072 1420 2755 
Q 1159 2438 1159 1844 
L 1159 0 
L 581 0 
L 581 3500 
L 1159 3500 
L 1159 2956 
Q 1341 3275 1631 3429 
Q 1922 3584 2338 3584 
Q 2397 3584 2469 3576 
Q 2541 3569 2628 3553 
L 2631 2963 
z
" id="DejaVuSans-72" transform="scale(0.015625)"/>
       <path d="M 2059 -325 
Q 1816 -950 1584 -1140 
Q 1353 -1331 966 -1331 
L 506 -1331 
L 506 -850 
L 844 -850 
Q 1081 -850 1212 -737 
Q 1344 -625 1503 -206 
L 1606 56 
L 191 3500 
L 800 3500 
L 1894 763 
L 2988 3500 
L 3597 3500 
L 2059 -325 
z
" id="DejaVuSans-79" transform="scale(0.015625)"/>
       <path d="M 313 2009 
L 1997 2009 
L 1997 1497 
L 313 1497 
L 313 2009 
z
" id="DejaVuSans-2d" transform="scale(0.015625)"/>
       <path d="M 3597 1894 
L 3597 1613 
L 953 1613 
Q 991 1019 1311 708 
Q 1631 397 2203 397 
Q 2534 397 2845 478 
Q 3156 559 3463 722 
L 3463 178 
Q 3153 47 2828 -22 
Q 2503 -91 2169 -91 
Q 1331 -91 842 396 
Q 353 884 353 1716 
Q 353 2575 817 3079 
Q 1281 3584 2069 3584 
Q 2775 3584 3186 3129 
Q 3597 2675 3597 1894 
z
M 3022 2063 
Q 3016 2534 2758 2815 
Q 2500 3097 2075 3097 
Q 1594 3097 1305 2825 
Q 1016 2553 972 2059 
L 3022 2063 
z
" id="DejaVuSans-65" transform="scale(0.015625)"/>
       <path d="M 1172 4494 
L 1172 3500 
L 2356 3500 
L 2356 3053 
L 1172 3053 
L 1172 1153 
Q 1172 725 1289 603 
Q 1406 481 1766 481 
L 2356 481 
L 2356 0 
L 1766 0 
Q 1100 0 847 248 
Q 594 497 594 1153 
L 594 3053 
L 172 3053 
L 172 3500 
L 594 3500 
L 594 4494 
L 1172 4494 
z
" id="DejaVuSans-74" transform="scale(0.015625)"/>
       <path d="M 513 4856 
L 1013 4856 
Q 1481 4119 1714 3412 
Q 1947 2706 1947 2009 
Q 1947 1309 1714 600 
Q 1481 -109 1013 -844 
L 513 -844 
Q 928 -128 1133 580 
Q 1338 1288 1338 2009 
Q 1338 2731 1133 3434 
Q 928 4138 513 4856 
z
" id="DejaVuSans-29" transform="scale(0.015625)"/>
      </defs>
      <use xlink:href="#DejaVuSans-4c"/>
      <use x="53.962891" xlink:href="#DejaVuSans-6f"/>
      <use x="115.144531" xlink:href="#DejaVuSans-73"/>
      <use x="167.244141" xlink:href="#DejaVuSans-73"/>
      <use x="219.34375" xlink:href="#DejaVuSans-20"/>
      <use x="251.130859" xlink:href="#DejaVuSans-28"/>
      <use x="290.144531" xlink:href="#DejaVuSans-62"/>
      <use x="353.621094" xlink:href="#DejaVuSans-69"/>
      <use x="381.404297" xlink:href="#DejaVuSans-6e"/>
      <use x="444.783203" xlink:href="#DejaVuSans-61"/>
      <use x="506.0625" xlink:href="#DejaVuSans-72"/>
      <use x="547.175781" xlink:href="#DejaVuSans-79"/>
      <use x="606.355469" xlink:href="#DejaVuSans-20"/>
      <use x="638.142578" xlink:href="#DejaVuSans-63"/>
      <use x="693.123047" xlink:href="#DejaVuSans-72"/>
      <use x="731.986328" xlink:href="#DejaVuSans-6f"/>
      <use x="793.167969" xlink:href="#DejaVuSans-73"/>
      <use x="845.267578" xlink:href="#DejaVuSans-73"/>
      <use x="897.367188" xlink:href="#DejaVuSans-2d"/>
      <use x="933.451172" xlink:href="#DejaVuSans-65"/>
      <use x="994.974609" xlink:href="#DejaVuSans-6e"/>
      <use x="1058.353516" xlink:href="#DejaVuSans-74"/>
      <use x="1097.5625" xlink:href="#DejaVuSans-72"/>
      <use x="1136.425781" xlink:href="#DejaVuSans-6f"/>
      <use x="1197.607422" xlink:href="#DejaVuSans-70"/>
      <use x="1261.083984" xlink:href="#DejaVuSans-79"/>
      <use x="1320.263672" xlink:href="#DejaVuSans-29"/>
     </g>
    </g>
   </g>
   <g id="line2d_23">
    <path clip-path="url(#p8eb186e037)" d="M 92.290909 173.010258 
L 93.007902 180.240977 
L 93.724896 177.037295 
L 94.441889 157.590886 
L 95.158882 164.633329 
L 95.875875 164.741687 
L 96.592869 156.306889 
L 97.309862 168.438336 
L 98.026855 166.698179 
L 98.743848 172.807695 
L 99.460842 161.718084 
L 100.177835 168.850067 
L 100.894828 177.719882 
L 101.611821 163.144288 
L 102.328815 162.212877 
L 103.045808 151.034336 
L 103.762801 182.530186 
L 104.479794 170.732582 
L 105.196788 162.138815 
L 105.913781 162.232167 
L 106.630774 158.950259 
L 107.347767 171.294575 
L 108.064761 163.812339 
L 108.781754 183.628547 
L 109.498747 146.782904 
L 110.21574 167.977487 
L 110.932734 137.354409 
L 111.649727 168.977538 
L 112.36672 159.66059 
L 113.800707 181.9934 
L 114.5177 138.984987 
L 115.234693 177.598976 
L 115.951686 165.362103 
L 116.66868 163.910554 
L 117.385673 170.609967 
L 118.102666 171.098596 
L 118.819659 159.603109 
L 119.536653 158.880044 
L 120.253646 169.717678 
L 120.970639 200.776606 
L 121.687633 151.90944 
L 122.404626 153.965342 
L 123.121619 142.523459 
L 123.838612 160.002284 
L 124.555606 162.906493 
L 125.272599 147.135632 
L 125.989592 172.428769 
L 126.706585 157.44663 
L 127.423579 166.50174 
L 128.140572 146.222155 
L 128.857565 169.858353 
L 129.574558 178.585892 
L 130.291552 155.531212 
L 131.008545 158.943627 
L 131.725538 135.366906 
L 132.442531 155.749549 
L 133.159525 155.638884 
L 133.876518 149.195811 
L 134.593511 147.344357 
L 135.310504 173.623306 
L 136.027498 155.60227 
L 136.744491 166.779582 
L 137.461484 169.30985 
L 138.895471 143.024252 
L 139.612464 162.194303 
L 140.329457 162.397212 
L 141.04645 158.411516 
L 141.763444 146.05821 
L 142.480437 142.173597 
L 143.19743 158.730019 
L 144.631417 175.701409 
L 145.34841 168.915053 
L 146.065403 149.430556 
L 146.782396 145.019329 
L 147.49939 147.717641 
L 148.216383 155.272067 
L 148.933376 149.480396 
L 149.650369 155.091921 
L 150.367363 133.619348 
L 151.084356 148.762385 
L 151.801349 157.684529 
L 152.518342 137.406914 
L 153.235336 139.272026 
L 153.952329 142.507478 
L 154.669322 148.261969 
L 155.386315 131.430128 
L 156.103309 142.521042 
L 156.820302 136.989906 
L 157.537295 130.476909 
L 158.254288 127.355424 
L 158.971282 147.605151 
L 159.688275 149.407064 
L 160.405268 130.718725 
L 161.122261 141.534684 
L 161.839255 164.533294 
L 162.556248 137.944623 
L 163.273241 151.25707 
L 163.990235 160.719517 
L 165.424221 130.530711 
L 166.141214 151.987235 
L 166.858208 122.526984 
L 167.575201 131.654664 
L 168.292194 134.675359 
L 169.009187 132.31105 
L 169.726181 138.539387 
L 170.443174 140.193581 
L 171.160167 125.167791 
L 171.87716 138.063867 
L 172.594154 138.131182 
L 174.02814 132.775503 
L 174.745133 160.518554 
L 175.462127 159.57203 
L 176.17912 128.777095 
L 176.896113 153.201663 
L 177.613106 141.353807 
L 178.3301 144.314106 
L 179.047093 141.423495 
L 179.764086 126.192857 
L 180.481079 148.680929 
L 181.198073 128.326231 
L 181.915066 169.197595 
L 182.632059 126.162361 
L 183.349052 122.964311 
L 185.500032 159.846763 
L 186.217025 145.87248 
L 186.934019 140.90859 
L 187.651012 140.528492 
L 188.368005 137.785377 
L 189.084998 115.489244 
L 190.518985 169.249681 
L 191.235978 131.754982 
L 191.952971 145.094302 
L 192.669965 150.990308 
L 193.386958 132.151833 
L 194.103951 145.1891 
L 194.820944 153.335288 
L 195.537938 135.464745 
L 196.254931 157.164578 
L 196.971924 135.592091 
L 197.688917 150.00379 
L 198.405911 141.129114 
L 199.122904 118.737148 
L 199.839897 144.944046 
L 200.55689 148.24321 
L 201.273884 130.891279 
L 201.990877 149.292585 
L 202.70787 120.760975 
L 203.424863 127.901221 
L 204.141857 114.616676 
L 204.85885 119.545445 
L 205.575843 119.816838 
L 206.292836 108.017397 
L 207.00983 115.276876 
L 207.726823 113.680261 
L 208.443816 140.549263 
L 209.16081 128.547976 
L 209.877803 175.01915 
L 210.594796 129.460781 
L 211.311789 170.521028 
L 212.028783 143.264301 
L 212.745776 133.558842 
L 213.462769 121.043036 
L 214.179762 135.062714 
L 214.896756 127.476467 
L 215.613749 123.282336 
L 216.330742 131.476218 
L 217.047735 118.662007 
L 217.764729 131.377022 
L 218.481722 135.687196 
L 219.198715 129.316505 
L 219.915708 126.138164 
L 220.632702 153.697144 
L 221.349695 117.025245 
L 222.066688 153.866295 
L 222.783681 129.286777 
L 223.500675 156.176573 
L 224.217668 141.623335 
L 224.934661 115.972871 
L 225.651654 149.74384 
L 226.368648 109.141981 
L 227.085641 128.470437 
L 227.802634 100.469289 
L 228.519627 120.098679 
L 229.236621 127.966475 
L 229.953614 129.912507 
L 230.670607 132.819798 
L 231.3876 130.570472 
L 232.104594 127.710532 
L 232.821587 128.417515 
L 233.53858 125.05793 
L 234.255573 124.084711 
L 234.972567 125.157612 
L 235.68956 134.405724 
L 236.406553 115.896709 
L 237.123546 153.343417 
L 237.84054 122.441889 
L 238.557533 115.486429 
L 239.274526 145.328919 
L 239.991519 104.759299 
L 240.708513 140.938364 
L 241.425506 109.483062 
L 242.142499 121.270806 
L 242.859492 158.418749 
L 243.576486 125.658377 
L 244.293479 153.373784 
L 245.010472 130.586062 
L 246.444459 138.197455 
L 247.161452 139.388145 
L 247.878445 125.021823 
L 248.595438 133.402266 
L 249.312432 127.923429 
L 250.029425 125.383593 
L 250.746418 117.75089 
L 251.463412 115.271502 
L 252.180405 90.309779 
L 252.897398 114.3935 
L 253.614391 99.833038 
L 254.331385 145.64298 
L 255.048378 122.056821 
L 255.765371 111.270676 
L 256.482364 127.626614 
L 257.199358 162.801691 
L 257.916351 132.025576 
L 258.633344 134.280897 
L 259.350337 113.88728 
L 260.067331 121.359256 
L 260.784324 109.222669 
L 261.501317 116.470139 
L 262.21831 127.255484 
L 262.935304 119.197828 
L 263.652297 104.628616 
L 264.36929 120.144157 
L 265.086283 108.992038 
L 265.803277 132.517513 
L 266.52027 123.302528 
L 267.237263 44.443636 
L 267.954256 117.13551 
L 268.67125 91.483066 
L 269.388243 154.794661 
L 270.105236 105.13839 
L 270.822229 81.884281 
L 271.539223 91.903142 
L 272.256216 162.386021 
L 272.973209 75.559541 
L 273.690202 98.380996 
L 274.407196 110.513599 
L 275.124189 109.395191 
L 275.841182 104.849115 
L 276.558175 134.721514 
L 277.275169 187.783728 
L 277.992162 117.637127 
L 278.709155 127.4287 
L 279.426148 114.340623 
L 280.143142 154.190389 
L 280.860135 126.615639 
L 281.577128 150.490142 
L 282.294121 123.060041 
L 283.011115 152.985339 
L 283.728108 129.010041 
L 284.445101 119.750483 
L 285.162094 107.729139 
L 285.879088 86.177546 
L 286.596081 147.417487 
L 287.313074 134.712282 
L 288.030067 117.013961 
L 288.747061 117.788528 
L 289.464054 144.011357 
L 290.181047 156.729253 
L 290.89804 129.171627 
L 291.615034 141.39392 
L 292.332027 99.992641 
L 293.04902 86.465823 
L 293.766013 138.441059 
L 294.483007 101.118956 
L 295.2 145.611324 
L 295.916993 107.698118 
L 296.633987 132.771607 
L 297.35098 116.163824 
L 298.067973 165.915762 
L 298.784966 137.577683 
L 299.50196 124.04144 
L 300.218953 145.04239 
L 300.935946 109.313114 
L 301.652939 112.551924 
L 302.369933 139.388634 
L 303.086926 143.384532 
L 303.803919 137.460331 
L 304.520912 87.163002 
L 305.237906 116.160635 
L 305.954899 152.954559 
L 306.671892 127.145424 
L 307.388885 138.227122 
L 308.105879 137.697104 
L 308.822872 117.414457 
L 309.539865 124.423001 
L 310.256858 84.766565 
L 310.973852 113.817396 
L 311.690845 135.908929 
L 312.407838 148.852663 
L 313.124831 151.907658 
L 313.841825 152.875397 
L 314.558818 135.896501 
L 315.275811 136.038843 
L 315.992804 94.192906 
L 316.709798 110.907623 
L 317.426791 142.746352 
L 318.143784 115.244836 
L 318.860777 100.587974 
L 319.577771 147.783774 
L 320.294764 138.535868 
L 321.011757 145.014843 
L 321.72875 137.074651 
L 322.445744 141.270854 
L 323.162737 111.777093 
L 323.87973 118.378694 
L 324.596723 137.308212 
L 325.313717 122.336943 
L 326.03071 161.459926 
L 326.747703 117.671844 
L 327.464696 127.699797 
L 328.18169 133.077449 
L 328.898683 156.569479 
L 329.615676 149.072988 
L 330.332669 137.950097 
L 331.049663 87.734792 
L 331.766656 133.433385 
L 332.483649 147.707852 
L 333.200642 168.69358 
L 333.917636 118.637119 
L 334.634629 123.097283 
L 335.351622 119.714869 
L 336.068615 135.166428 
L 336.785609 129.944031 
L 337.502602 70.042146 
L 338.219595 124.763091 
L 338.936588 127.112724 
L 339.653582 95.116479 
L 340.370575 128.657325 
L 341.087568 125.362849 
L 341.804562 118.297682 
L 342.521555 124.656227 
L 343.238548 114.681711 
L 343.955541 154.419961 
L 345.389528 118.28083 
L 346.106521 97.522627 
L 346.823514 139.877912 
L 347.540508 157.335009 
L 348.257501 144.721574 
L 348.974494 150.217693 
L 349.691487 105.914815 
L 350.408481 150.123129 
L 351.125474 130.532951 
L 351.842467 156.612371 
L 352.55946 121.967883 
L 353.276454 134.785532 
L 353.993447 107.351096 
L 354.71044 99.878789 
L 355.427433 131.264345 
L 356.144427 121.256216 
L 356.86142 127.157197 
L 357.578413 142.039398 
L 359.0124 127.374172 
L 359.729393 100.388659 
L 360.446386 107.186594 
L 361.163379 164.082175 
L 361.880373 124.900576 
L 362.597366 169.126164 
L 363.314359 110.228737 
L 364.031352 114.914565 
L 364.748346 135.350084 
L 365.465339 165.10603 
L 366.182332 126.710365 
L 366.899325 157.080197 
L 367.616319 99.248183 
L 368.333312 130.557822 
L 369.050305 140.423945 
L 369.767298 96.504688 
L 370.484292 145.650902 
L 371.201285 173.818875 
L 371.918278 116.959511 
L 372.635271 114.815307 
L 373.352265 153.379726 
L 374.069258 114.300053 
L 374.786251 128.919823 
L 375.503244 156.248364 
L 376.220238 122.00098 
L 376.937231 155.420545 
L 377.654224 137.197829 
L 378.371217 187.977552 
L 379.805204 120.001823 
L 380.522197 158.188268 
L 381.23919 120.336928 
L 381.956184 201.847757 
L 382.673177 138.157167 
L 383.39017 165.965308 
L 384.107164 125.2075 
L 384.824157 138.363441 
L 385.54115 169.988612 
L 386.258143 155.928494 
L 386.975137 151.224557 
L 387.69213 116.453329 
L 388.409123 155.816956 
L 389.126116 160.533982 
L 389.84311 151.818939 
L 390.560103 164.68346 
L 391.277096 136.980125 
L 391.994089 142.168186 
L 392.711083 149.314776 
L 393.428076 162.201593 
L 394.145069 149.139966 
L 394.862062 147.793044 
L 395.579056 136.149676 
L 396.296049 167.584824 
L 397.013042 169.396852 
L 397.730035 161.739315 
L 398.447029 140.803384 
L 399.164022 177.942069 
L 399.881015 178.143622 
L 400.598008 160.846739 
L 401.315002 136.186119 
L 402.031995 155.782349 
L 402.748988 181.376158 
L 403.465981 168.726984 
L 404.182975 147.865345 
L 404.899968 168.437662 
L 405.616961 160.761333 
L 406.333954 115.557992 
L 407.050948 176.254568 
L 407.767941 124.685824 
L 408.484934 135.013891 
L 409.918921 147.176166 
L 410.635914 136.686127 
L 411.352907 118.058206 
L 412.0699 152.083499 
L 412.786894 160.915248 
L 413.503887 171.471563 
L 414.22088 143.68352 
L 414.937873 127.528426 
L 415.654867 127.112194 
L 416.37186 172.306524 
L 417.088853 147.117188 
L 418.52284 143.183635 
L 419.239833 149.347519 
L 419.956826 123.532172 
L 420.673819 141.040049 
L 421.390813 133.575755 
L 422.107806 165.014842 
L 422.824799 174.344088 
L 423.541792 153.915902 
L 424.258786 139.22601 
L 424.975779 134.608343 
L 425.692772 134.074534 
L 427.843752 165.751399 
L 428.560745 156.259145 
L 429.277739 141.031783 
L 429.994732 157.87133 
L 430.711725 135.643349 
L 431.428718 155.969988 
L 432.145712 135.750308 
L 432.862705 156.42472 
L 433.579698 150.190467 
L 434.296691 160.788299 
L 435.013685 135.40852 
L 435.730678 150.665833 
L 436.447671 122.673452 
L 437.164664 164.576998 
L 437.881658 147.844067 
L 438.598651 167.856706 
L 439.315644 156.339593 
L 440.032637 165.699645 
L 440.749631 190.821019 
L 441.466624 156.701292 
L 442.183617 177.093713 
L 442.90061 154.354219 
L 443.617604 141.626695 
L 444.334597 158.671858 
L 445.768583 143.282033 
L 446.485577 141.982132 
L 447.20257 154.041908 
L 447.919563 154.856987 
L 448.636556 176.805492 
L 449.35355 177.086291 
L 450.070543 152.620025 
L 450.787536 174.542263 
L 452.221523 142.649158 
L 452.938516 160.778225 
L 453.655509 141.095498 
L 454.372502 126.422599 
L 455.089496 159.998038 
L 455.806489 155.534156 
L 456.523482 167.518683 
L 457.240475 155.622463 
L 457.957469 134.191782 
L 458.674462 168.368308 
L 459.391455 164.425293 
L 460.108448 166.886902 
L 460.825442 144.759747 
L 461.542435 155.944727 
L 462.259428 173.233208 
L 462.976421 129.339673 
L 463.693415 175.059838 
L 464.410408 132.822953 
L 465.127401 142.749779 
L 465.844394 149.95232 
L 466.561388 161.237862 
L 467.278381 161.539161 
L 467.995374 162.955136 
L 468.712367 155.932623 
L 469.429361 158.058041 
L 470.146354 161.073328 
L 470.863347 165.076169 
L 471.580341 150.245075 
L 472.297334 174.722868 
L 473.014327 143.94154 
L 473.73132 169.381516 
L 474.448314 141.674611 
L 475.165307 165.054094 
L 477.316287 135.181054 
L 478.03328 152.135403 
L 478.750273 159.936249 
L 479.467266 134.381567 
L 480.18426 171.582799 
L 480.901253 175.279205 
L 481.618246 159.101247 
L 482.335239 169.323678 
L 483.052233 172.863965 
L 483.769226 167.250478 
L 484.486219 158.645286 
L 485.203212 160.053901 
L 485.920206 160.958758 
L 486.637199 148.675424 
L 487.354192 176.820768 
L 488.071185 169.671782 
L 488.788179 172.316027 
L 489.505172 173.114316 
L 490.222165 150.632588 
L 490.939158 163.607918 
L 491.656152 162.833378 
L 492.373145 178.151601 
L 493.090138 153.514198 
L 493.807131 166.805378 
L 494.524125 153.520949 
L 495.241118 175.746826 
L 495.958111 159.04172 
L 496.675104 169.31335 
L 497.392098 166.569514 
L 498.109091 162.222698 
L 498.109091 162.222698 
" style="fill:none;stroke:#ffb248;stroke-linecap:square;stroke-width:1.5;"/>
   </g>
   <g id="line2d_24">
    <path clip-path="url(#p8eb186e037)" d="M 92.290909 184.887557 
L 93.007902 181.725695 
L 93.724896 183.167158 
L 94.441889 192.379406 
L 95.158882 190.412844 
L 95.875875 188.87241 
L 96.592869 194.348485 
L 97.309862 189.570025 
L 98.026855 190.353929 
L 98.743848 186.270863 
L 99.460842 194.119272 
L 100.177835 190.545951 
L 100.894828 188.384035 
L 101.611821 195.730323 
L 102.328815 196.312919 
L 103.045808 201.21399 
L 103.762801 187.345085 
L 104.479794 193.019069 
L 105.196788 197.150818 
L 105.913781 198.198664 
L 106.630774 198.54763 
L 107.347767 193.443028 
L 108.064761 197.849347 
L 108.781754 187.887933 
L 109.498747 205.067191 
L 110.21574 195.316656 
L 110.932734 209.254964 
L 111.649727 193.993714 
L 112.36672 200.8745 
L 113.800707 190.509654 
L 114.5177 209.349187 
L 115.234693 193.403374 
L 115.951686 199.617846 
L 116.66868 200.073141 
L 117.385673 196.89088 
L 118.102666 196.68176 
L 118.819659 202.217049 
L 119.536653 202.977794 
L 120.253646 198.665788 
L 120.970639 183.519577 
L 121.687633 205.674627 
L 122.404626 204.792823 
L 123.121619 209.306584 
L 123.838612 203.120739 
L 124.555606 200.037497 
L 125.272599 209.920979 
L 125.989592 197.815702 
L 126.706585 202.561993 
L 127.423579 199.386305 
L 128.140572 210.062664 
L 128.857565 199.421435 
L 129.574558 193.797532 
L 130.291552 206.091601 
L 131.008545 205.325201 
L 131.725538 213.179666 
L 132.442531 206.259455 
L 133.876518 209.368137 
L 134.593511 209.326709 
L 135.310504 198.971589 
L 136.027498 206.523936 
L 136.744491 203.511858 
L 137.461484 201.640594 
L 138.178477 208.66502 
L 138.895471 213.273455 
L 139.612464 204.261607 
L 140.329457 203.673071 
L 141.04645 204.053021 
L 141.763444 209.432499 
L 142.480437 212.570621 
L 143.19743 203.829977 
L 143.914423 202.268531 
L 144.631417 199.831671 
L 145.34841 202.54022 
L 146.065403 210.566457 
L 146.782396 212.022681 
L 147.49939 210.54798 
L 148.216383 205.869695 
L 148.933376 208.498077 
L 149.650369 208.699193 
L 150.367363 216.920886 
L 151.084356 211.498092 
L 151.801349 207.544807 
L 152.518342 215.592764 
L 153.235336 214.635675 
L 153.952329 214.723049 
L 154.669322 211.968722 
L 155.386315 217.54295 
L 156.103309 212.873305 
L 156.820302 215.08988 
L 157.537295 219.150879 
L 158.254288 220.06836 
L 158.971282 212.727462 
L 159.688275 212.756813 
L 160.405268 220.021702 
L 161.122261 213.846085 
L 161.839255 206.212822 
L 162.556248 214.853575 
L 163.273241 210.730142 
L 163.990235 205.666898 
L 164.707228 214.133898 
L 165.424221 220.345195 
L 166.141214 212.370398 
L 166.858208 223.8542 
L 167.575201 217.880695 
L 168.292194 217.333476 
L 169.009187 218.913617 
L 169.726181 216.291576 
L 170.443174 214.409538 
L 171.160167 223.232537 
L 171.87716 216.645816 
L 172.594154 217.472105 
L 173.311147 217.774561 
L 174.02814 218.310173 
L 174.745133 207.53418 
L 175.462127 208.870564 
L 176.17912 220.958346 
L 176.896113 211.731939 
L 177.613106 215.142484 
L 178.3301 213.440208 
L 179.047093 216.196535 
L 179.764086 220.844777 
L 180.481079 211.294764 
L 181.198073 219.731731 
L 181.915066 203.095686 
L 182.632059 222.434351 
L 183.349052 219.179135 
L 184.066046 219.193585 
L 184.783039 214.306034 
L 185.500032 208.363668 
L 186.217025 212.823836 
L 186.934019 215.433325 
L 187.651012 212.469826 
L 188.368005 218.321884 
L 189.084998 225.963725 
L 190.518985 204.338754 
L 191.235978 220.343919 
L 191.952971 215.356789 
L 192.669965 214.268511 
L 193.386958 220.046017 
L 194.820944 208.409517 
L 195.537938 217.914945 
L 196.254931 210.211937 
L 196.971924 219.264314 
L 197.688917 211.897227 
L 198.405911 217.246063 
L 199.122904 226.38204 
L 199.839897 215.515641 
L 200.55689 214.313656 
L 201.273884 220.119722 
L 201.990877 213.980619 
L 202.70787 224.379348 
L 203.424863 221.749054 
L 204.141857 225.772819 
L 204.85885 224.783979 
L 205.575843 225.193107 
L 206.292836 228.420431 
L 207.00983 226.72029 
L 207.726823 224.367342 
L 208.443816 216.884814 
L 209.16081 221.290661 
L 209.877803 202.05453 
L 210.594796 221.931123 
L 211.311789 206.149333 
L 212.028783 217.780619 
L 212.745776 218.980989 
L 213.462769 225.03424 
L 214.179762 219.62459 
L 214.896756 222.933577 
L 215.613749 223.364681 
L 216.330742 221.617751 
L 217.047735 224.68379 
L 217.764729 222.352491 
L 218.481722 217.882086 
L 219.198715 222.556962 
L 219.915708 222.950292 
L 220.632702 214.127759 
L 221.349695 223.406876 
L 222.066688 211.966513 
L 222.783681 221.642455 
L 223.500675 212.098565 
L 224.217668 215.290083 
L 224.934661 225.922846 
L 225.651654 215.673714 
L 226.368648 228.513936 
L 227.085641 220.988278 
L 227.802634 229.044138 
L 228.519627 224.863947 
L 229.236621 223.086502 
L 229.953614 223.284128 
L 230.670607 219.964419 
L 231.3876 218.650108 
L 232.104594 219.724494 
L 232.821587 223.741185 
L 233.53858 223.249442 
L 234.255573 225.133502 
L 234.972567 224.325898 
L 235.68956 218.91318 
L 236.406553 226.602754 
L 237.123546 212.505017 
L 237.84054 224.103778 
L 238.557533 226.808711 
L 239.274526 214.528848 
L 239.991519 229.89114 
L 240.708513 217.418098 
L 241.425506 227.783616 
L 242.142499 227.628484 
L 242.859492 210.067267 
L 243.576486 225.1554 
L 244.293479 213.73127 
L 245.010472 222.818809 
L 245.727465 219.165624 
L 246.444459 219.946958 
L 247.161452 216.647025 
L 247.878445 221.426193 
L 248.595438 216.828645 
L 249.312432 223.086011 
L 250.029425 221.8412 
L 250.746418 225.153968 
L 251.463412 225.891172 
L 252.180405 234.637074 
L 252.897398 225.015625 
L 253.614391 230.67571 
L 254.331385 217.012465 
L 255.048378 222.191262 
L 255.765371 223.494735 
L 256.482364 222.209728 
L 257.199358 201.78431 
L 257.916351 219.273623 
L 258.633344 219.384504 
L 259.350337 226.420827 
L 260.067331 221.612085 
L 260.784324 228.907451 
L 261.501317 221.480909 
L 262.21831 223.936378 
L 262.935304 225.416074 
L 263.652297 225.159281 
L 264.36929 220.694582 
L 265.086283 220.203329 
L 265.803277 218.491148 
L 266.52027 222.851376 
L 267.237263 242.116364 
L 267.954256 219.913877 
L 268.67125 232.073038 
L 269.388243 206.65528 
L 270.105236 226.253987 
L 270.822229 235.288847 
L 271.539223 232.799574 
L 272.256216 209.324684 
L 272.973209 236.999365 
L 273.690202 230.544131 
L 274.407196 229.474948 
L 275.124189 227.482093 
L 275.841182 227.584086 
L 276.558175 220.091668 
L 277.275169 192.876178 
L 277.992162 220.130777 
L 278.709155 222.749481 
L 279.426148 221.632733 
L 280.143142 201.915522 
L 280.860135 220.513247 
L 281.577128 212.481725 
L 282.294121 218.61251 
L 283.011115 203.372384 
L 283.728108 217.194836 
L 284.445101 222.123373 
L 285.162094 222.49666 
L 285.879088 232.371588 
L 286.596081 210.178215 
L 287.313074 215.127404 
L 288.030067 221.628611 
L 288.747061 221.812596 
L 290.181047 205.107946 
L 290.89804 218.078413 
L 291.615034 211.688982 
L 292.332027 225.486884 
L 293.04902 232.34258 
L 293.766013 210.47432 
L 294.483007 225.807418 
L 295.2 207.978224 
L 295.916993 226.673632 
L 296.633987 211.970478 
L 297.35098 222.707083 
L 298.067973 193.669981 
L 298.784966 209.676403 
L 299.50196 213.106992 
L 300.218953 204.828583 
L 300.935946 223.746934 
L 301.652939 222.541496 
L 302.369933 208.381463 
L 303.086926 206.579571 
L 303.803919 211.186895 
L 304.520912 231.080868 
L 305.954899 202.599939 
L 306.671892 215.887166 
L 307.388885 211.35294 
L 308.105879 209.334568 
L 308.822872 218.151829 
L 309.539865 214.559424 
L 310.256858 227.547008 
L 310.973852 215.477763 
L 311.690845 207.379826 
L 312.407838 204.339194 
L 313.124831 198.656994 
L 313.841825 205.349913 
L 314.558818 210.515111 
L 315.275811 212.997619 
L 315.992804 228.262971 
L 317.426791 205.255953 
L 318.143784 218.625724 
L 318.860777 225.534712 
L 319.577771 207.128042 
L 320.294764 208.462276 
L 321.011757 199.907247 
L 321.72875 210.593925 
L 322.445744 203.861578 
L 323.162737 223.955099 
L 324.596723 204.136079 
L 325.313717 215.810574 
L 326.03071 195.51616 
L 326.747703 211.705102 
L 327.464696 210.859069 
L 328.18169 212.689153 
L 328.898683 193.807504 
L 329.615676 198.280149 
L 330.332669 207.675674 
L 331.049663 226.848045 
L 331.766656 208.423542 
L 332.483649 203.199314 
L 333.200642 189.822733 
L 333.917636 211.149459 
L 334.634629 213.950126 
L 335.351622 213.442105 
L 336.068615 204.055018 
L 336.785609 210.929157 
L 337.502602 228.867083 
L 338.219595 208.544769 
L 338.936588 212.950033 
L 339.653582 222.844643 
L 340.370575 210.654771 
L 341.087568 209.074368 
L 341.804562 211.597687 
L 342.521555 212.944653 
L 343.238548 210.092903 
L 343.955541 198.960474 
L 344.672535 202.683547 
L 346.106521 221.057057 
L 346.823514 202.75665 
L 347.540508 195.839236 
L 348.257501 205.019306 
L 348.974494 194.259593 
L 349.691487 217.429954 
L 350.408481 198.455298 
L 351.125474 204.194848 
L 351.842467 195.123642 
L 352.55946 211.73502 
L 353.276454 204.026426 
L 353.993447 213.930352 
L 354.71044 219.863903 
L 355.427433 205.052057 
L 356.144427 209.407041 
L 356.86142 206.422593 
L 358.295406 197.567707 
L 359.729393 212.199915 
L 360.446386 216.332598 
L 361.163379 187.519535 
L 361.880373 200.537361 
L 362.597366 183.676392 
L 363.314359 209.430985 
L 364.031352 212.751437 
L 364.748346 203.92792 
L 365.465339 181.011965 
L 366.182332 200.765404 
L 366.899325 193.245661 
L 367.616319 219.851502 
L 368.333312 202.603201 
L 369.050305 198.581953 
L 369.767298 216.428525 
L 371.201285 184.448276 
L 371.918278 210.137066 
L 372.635271 209.067433 
L 373.352265 194.069935 
L 374.069258 209.703631 
L 374.786251 204.502847 
L 375.503244 193.638829 
L 376.220238 207.223575 
L 376.937231 192.778628 
L 377.654224 202.932735 
L 378.371217 180.304232 
L 379.088211 190.634339 
L 379.805204 206.431584 
L 380.522197 190.24597 
L 381.23919 202.224471 
L 381.956184 166.307802 
L 382.673177 197.423365 
L 383.39017 187.701196 
L 384.107164 198.593448 
L 384.824157 200.19774 
L 385.54115 183.810558 
L 386.258143 189.863377 
L 386.975137 191.74395 
L 387.69213 206.539754 
L 388.409123 185.136375 
L 389.126116 186.497189 
L 389.84311 189.131593 
L 390.560103 178.119686 
L 391.277096 195.310394 
L 392.711083 192.173713 
L 393.428076 182.661911 
L 394.145069 194.568818 
L 394.862062 196.317873 
L 395.579056 199.540491 
L 396.296049 183.668247 
L 397.013042 183.193373 
L 397.730035 190.793145 
L 398.447029 193.853465 
L 399.164022 175.948508 
L 399.881015 180.503641 
L 400.598008 187.568363 
L 401.315002 199.381882 
L 402.748988 177.310225 
L 403.465981 182.081823 
L 404.182975 190.998812 
L 404.899968 183.034342 
L 405.616961 186.47362 
L 406.333954 203.451216 
L 407.050948 176.349809 
L 407.767941 199.273255 
L 409.918921 189.125849 
L 410.635914 194.503867 
L 411.352907 204.236867 
L 412.0699 191.413771 
L 412.786894 184.411248 
L 413.503887 186.135615 
L 414.22088 197.336293 
L 415.654867 197.988317 
L 416.37186 178.798482 
L 417.088853 191.499296 
L 417.805846 192.568771 
L 418.52284 198.07157 
L 419.239833 190.166323 
L 419.956826 205.116041 
L 420.673819 195.979389 
L 421.390813 200.180893 
L 422.107806 184.897119 
L 422.824799 181.352922 
L 423.541792 190.750941 
L 424.258786 197.360405 
L 424.975779 198.082417 
L 425.692772 200.639542 
L 426.409765 194.133969 
L 427.126759 190.653439 
L 427.843752 184.027439 
L 429.277739 197.439036 
L 429.994732 189.90912 
L 430.711725 198.457823 
L 431.428718 191.518462 
L 432.145712 197.391903 
L 432.862705 190.899817 
L 433.579698 193.839138 
L 434.296691 188.649372 
L 435.013685 194.328981 
L 435.730678 189.479977 
L 436.447671 203.544331 
L 437.164664 184.51913 
L 437.881658 191.453467 
L 438.598651 186.348253 
L 439.315644 191.459478 
L 440.032637 187.112398 
L 440.749631 174.633977 
L 441.466624 187.573767 
L 442.183617 180.705144 
L 442.90061 188.237062 
L 443.617604 194.412649 
L 444.334597 188.789488 
L 445.05159 190.80271 
L 445.768583 195.636161 
L 446.485577 194.579788 
L 447.20257 190.565866 
L 447.919563 188.729095 
L 448.636556 178.350128 
L 449.35355 179.843772 
L 450.070543 190.285601 
L 450.787536 178.978821 
L 451.504529 186.457187 
L 452.221523 195.889616 
L 452.938516 187.76068 
L 453.655509 197.906576 
L 454.372502 203.380605 
L 455.089496 186.26352 
L 455.806489 190.506998 
L 456.523482 184.043096 
L 457.240475 188.044732 
L 457.957469 199.162643 
L 458.674462 182.071686 
L 459.391455 184.705884 
L 460.108448 185.476903 
L 460.825442 190.982057 
L 461.542435 188.051815 
L 462.259428 183.102895 
L 462.976421 200.30007 
L 463.693415 181.212647 
L 464.410408 198.30859 
L 465.127401 194.276368 
L 465.844394 192.249448 
L 466.561388 184.882397 
L 467.278381 187.469503 
L 467.995374 185.8211 
L 468.712367 188.702891 
L 469.429361 186.442017 
L 470.146354 185.726252 
L 470.863347 183.991045 
L 471.580341 192.137097 
L 472.297334 181.976942 
L 473.014327 192.826102 
L 473.73132 182.847969 
L 474.448314 195.134836 
L 475.165307 185.919628 
L 475.8823 190.286182 
L 476.599293 193.908833 
L 477.316287 198.322949 
L 478.03328 193.380875 
L 478.750273 190.505156 
L 479.467266 202.236322 
L 480.18426 184.593449 
L 480.901253 184.062204 
L 481.618246 190.56946 
L 482.335239 185.776244 
L 483.052233 184.076726 
L 483.769226 188.482215 
L 484.486219 188.467792 
L 485.203212 190.924126 
L 485.920206 189.596897 
L 486.637199 194.263697 
L 487.354192 183.202503 
L 488.071185 186.752533 
L 488.788179 185.527379 
L 489.505172 184.587356 
L 490.222165 193.875933 
L 490.939158 188.856545 
L 491.656152 189.554734 
L 492.373145 183.173783 
L 493.090138 192.172412 
L 493.807131 187.206328 
L 494.524125 194.386705 
L 495.241118 184.495106 
L 495.958111 192.886743 
L 496.675104 187.395879 
L 497.392098 188.894639 
L 498.109091 188.932132 
L 498.109091 188.932132 
" style="fill:none;stroke:#5f84b4;stroke-linecap:square;stroke-width:1.5;"/>
   </g>
   <g id="patch_3">
    <path d="M 72 252 
L 72 34.56 
" style="fill:none;stroke:#000000;stroke-linecap:square;stroke-linejoin:miter;stroke-width:0.8;"/>
   </g>
   <g id="patch_4">
    <path d="M 72 252 
L 518.4 252 
" style="fill:none;stroke:#000000;stroke-linecap:square;stroke-linejoin:miter;stroke-width:0.8;"/>
   </g>
   <g id="legend_1">
    <g id="patch_5">
     <path d="M 412.190625 71.91625 
L 511.4 71.91625 
Q 513.4 71.91625 513.4 69.91625 
L 513.4 41.56 
Q 513.4 39.56 511.4 39.56 
L 412.190625 39.56 
Q 410.190625 39.56 410.190625 41.56 
L 410.190625 69.91625 
Q 410.190625 71.91625 412.190625 71.91625 
z
" style="fill:#ffffff;opacity:0.8;stroke:#cccccc;stroke-linejoin:miter;"/>
    </g>
    <g id="line2d_25">
     <path d="M 414.190625 47.658437 
L 434.190625 47.658437 
" style="fill:none;stroke:#ffb248;stroke-linecap:square;stroke-width:1.5;"/>
    </g>
    <g id="line2d_26"/>
    <g id="text_18">
     <!-- Generator -->
     <g transform="translate(442.190625 51.158437)scale(0.1 -0.1)">
      <defs>
       <path d="M 3809 666 
L 3809 1919 
L 2778 1919 
L 2778 2438 
L 4434 2438 
L 4434 434 
Q 4069 175 3628 42 
Q 3188 -91 2688 -91 
Q 1594 -91 976 548 
Q 359 1188 359 2328 
Q 359 3472 976 4111 
Q 1594 4750 2688 4750 
Q 3144 4750 3555 4637 
Q 3966 4525 4313 4306 
L 4313 3634 
Q 3963 3931 3569 4081 
Q 3175 4231 2741 4231 
Q 1884 4231 1454 3753 
Q 1025 3275 1025 2328 
Q 1025 1384 1454 906 
Q 1884 428 2741 428 
Q 3075 428 3337 486 
Q 3600 544 3809 666 
z
" id="DejaVuSans-47" transform="scale(0.015625)"/>
      </defs>
      <use xlink:href="#DejaVuSans-47"/>
      <use x="77.490234" xlink:href="#DejaVuSans-65"/>
      <use x="139.013672" xlink:href="#DejaVuSans-6e"/>
      <use x="202.392578" xlink:href="#DejaVuSans-65"/>
      <use x="263.916016" xlink:href="#DejaVuSans-72"/>
      <use x="305.029297" xlink:href="#DejaVuSans-61"/>
      <use x="366.308594" xlink:href="#DejaVuSans-74"/>
      <use x="405.517578" xlink:href="#DejaVuSans-6f"/>
      <use x="466.699219" xlink:href="#DejaVuSans-72"/>
     </g>
    </g>
    <g id="line2d_27">
     <path d="M 414.190625 62.336562 
L 434.190625 62.336562 
" style="fill:none;stroke:#5f84b4;stroke-linecap:square;stroke-width:1.5;"/>
    </g>
    <g id="line2d_28"/>
    <g id="text_19">
     <!-- Discriminator -->
     <g transform="translate(442.190625 65.836562)scale(0.1 -0.1)">
      <defs>
       <path d="M 1259 4147 
L 1259 519 
L 2022 519 
Q 2988 519 3436 956 
Q 3884 1394 3884 2338 
Q 3884 3275 3436 3711 
Q 2988 4147 2022 4147 
L 1259 4147 
z
M 628 4666 
L 1925 4666 
Q 3281 4666 3915 4102 
Q 4550 3538 4550 2338 
Q 4550 1131 3912 565 
Q 3275 0 1925 0 
L 628 0 
L 628 4666 
z
" id="DejaVuSans-44" transform="scale(0.015625)"/>
       <path d="M 3328 2828 
Q 3544 3216 3844 3400 
Q 4144 3584 4550 3584 
Q 5097 3584 5394 3201 
Q 5691 2819 5691 2113 
L 5691 0 
L 5113 0 
L 5113 2094 
Q 5113 2597 4934 2840 
Q 4756 3084 4391 3084 
Q 3944 3084 3684 2787 
Q 3425 2491 3425 1978 
L 3425 0 
L 2847 0 
L 2847 2094 
Q 2847 2600 2669 2842 
Q 2491 3084 2119 3084 
Q 1678 3084 1418 2786 
Q 1159 2488 1159 1978 
L 1159 0 
L 581 0 
L 581 3500 
L 1159 3500 
L 1159 2956 
Q 1356 3278 1631 3431 
Q 1906 3584 2284 3584 
Q 2666 3584 2933 3390 
Q 3200 3197 3328 2828 
z
" id="DejaVuSans-6d" transform="scale(0.015625)"/>
      </defs>
      <use xlink:href="#DejaVuSans-44"/>
      <use x="77.001953" xlink:href="#DejaVuSans-69"/>
      <use x="104.785156" xlink:href="#DejaVuSans-73"/>
      <use x="156.884766" xlink:href="#DejaVuSans-63"/>
      <use x="211.865234" xlink:href="#DejaVuSans-72"/>
      <use x="252.978516" xlink:href="#DejaVuSans-69"/>
      <use x="280.761719" xlink:href="#DejaVuSans-6d"/>
      <use x="378.173828" xlink:href="#DejaVuSans-69"/>
      <use x="405.957031" xlink:href="#DejaVuSans-6e"/>
      <use x="469.335938" xlink:href="#DejaVuSans-61"/>
      <use x="530.615234" xlink:href="#DejaVuSans-74"/>
      <use x="569.824219" xlink:href="#DejaVuSans-6f"/>
      <use x="631.005859" xlink:href="#DejaVuSans-72"/>
     </g>
    </g>
   </g>
  </g>
 </g>
 <defs>
  <clipPath id="p8eb186e037">
   <rect height="217.44" width="446.4" x="72" y="34.56"/>
  </clipPath>
 </defs>
</svg>
