<?xml version="1.0" encoding="utf-8" standalone="no"?>
<!DOCTYPE svg PUBLIC "-//W3C//DTD SVG 1.1//EN"
  "http://www.w3.org/Graphics/SVG/1.1/DTD/svg11.dtd">
<svg height="360pt" version="1.1" viewBox="0 0 720 360" width="720pt" xmlns="http://www.w3.org/2000/svg" xmlns:xlink="http://www.w3.org/1999/xlink">
 <metadata>
  <rdf:RDF xmlns:cc="http://creativecommons.org/ns#" xmlns:dc="http://purl.org/dc/elements/1.1/" xmlns:rdf="http://www.w3.org/1999/02/22-rdf-syntax-ns#">
   <cc:Work>
    <dc:type rdf:resource="http://purl.org/dc/dcmitype/StillImage"/>
    <dc:date>2021-04-07T13:49:36.450297</dc:date>
    <dc:format>image/svg+xml</dc:format>
    <dc:creator>
     <cc:Agent>
      <dc:title>Matplotlib v3.4.1, https://matplotlib.org/</dc:title>
     </cc:Agent>
    </dc:creator>
   </cc:Work>
  </rdf:RDF>
 </metadata>
 <defs>
  <style type="text/css">*{stroke-linecap:butt;stroke-linejoin:round;}</style>
 </defs>
 <g id="figure_1">
  <g id="patch_1">
   <path d="M 0 360 
L 720 360 
L 720 0 
L 0 0 
z
" style="fill:none;"/>
  </g>
  <g id="axes_1">
   <g id="patch_2">
    <path d="M 90 315 
L 648 315 
L 648 43.2 
L 90 43.2 
z
" style="fill:#ffffff;"/>
   </g>
   <g id="PolyCollection_1">
    <path clip-path="url(#p609a828abe)" d="M 115.363636 99.380806 
L 115.363636 185.205684 
L 132.855799 110.707484 
L 150.347962 109.969282 
L 167.840125 115.144995 
L 185.332288 106.267873 
L 202.824451 108.22119 
L 220.316614 113.921493 
L 237.808777 110.897788 
L 255.30094 107.470307 
L 272.793103 111.001172 
L 290.285266 115.802907 
L 307.777429 116.438444 
L 325.269592 120.898317 
L 342.761755 135.099341 
L 360.253918 128.607916 
L 377.746082 133.084133 
L 395.238245 127.400129 
L 412.730408 129.053777 
L 430.222571 136.092122 
L 447.714734 131.721284 
L 465.206897 133.203594 
L 482.69906 142.469989 
L 500.191223 148.749939 
L 517.683386 155.859465 
L 535.175549 170.860144 
L 552.667712 173.107639 
L 570.159875 172.561217 
L 587.652038 181.643338 
L 605.144201 190.194021 
L 622.636364 197.714312 
L 622.636364 144.74986 
L 622.636364 144.74986 
L 605.144201 137.387319 
L 587.652038 135.189289 
L 570.159875 125.254457 
L 552.667712 116.439795 
L 535.175549 112.072698 
L 517.683386 102.268656 
L 500.191223 93.668524 
L 482.69906 90.026587 
L 465.206897 87.717444 
L 447.714734 85.065634 
L 430.222571 85.655741 
L 412.730408 78.638077 
L 395.238245 76.984429 
L 377.746082 86.183257 
L 360.253918 79.910762 
L 342.761755 84.994873 
L 325.269592 67.776584 
L 307.777429 60.66092 
L 290.285266 60.469633 
L 272.793103 60.310424 
L 255.30094 58.880345 
L 237.808777 57.933336 
L 220.316614 64.004695 
L 202.824451 58.956286 
L 185.332288 59.255955 
L 167.840125 62.781194 
L 150.347962 55.554545 
L 132.855799 59.777289 
L 115.363636 99.380806 
z
" style="fill:#1f77b4;fill-opacity:0.3;"/>
   </g>
   <g id="PolyCollection_2">
    <path clip-path="url(#p609a828abe)" d="M 115.363636 95.595304 
L 115.363636 271.673589 
L 132.855799 247.340307 
L 150.347962 245.869148 
L 167.840125 245.869148 
L 185.332288 244.378806 
L 202.824451 244.378806 
L 220.316614 244.378806 
L 237.808777 244.378806 
L 255.30094 244.378806 
L 272.793103 244.378806 
L 290.285266 244.378806 
L 307.777429 244.378806 
L 325.269592 247.681013 
L 342.761755 251.613227 
L 360.253918 251.613227 
L 377.746082 252.922611 
L 395.238245 251.462474 
L 412.730408 251.462474 
L 430.222571 252.790399 
L 447.714734 261.194798 
L 465.206897 264.772348 
L 482.69906 264.772348 
L 500.191223 271.572009 
L 517.683386 279.130521 
L 535.175549 284.529428 
L 552.667712 284.531501 
L 570.159875 288.179871 
L 587.652038 295.094227 
L 605.144201 295.847765 
L 622.636364 302.645455 
L 622.636364 131.596186 
L 622.636364 131.596186 
L 605.144201 125.991515 
L 587.652038 124.264581 
L 570.159875 113.815632 
L 552.667712 102.58117 
L 535.175549 100.102771 
L 517.683386 93.099317 
L 500.191223 93.216413 
L 482.69906 92.574657 
L 465.206897 92.574657 
L 447.714734 91.191263 
L 430.222571 92.154245 
L 412.730408 91.001698 
L 395.238245 91.001698 
L 377.746082 94.502505 
L 360.253918 93.331418 
L 342.761755 93.331418 
L 325.269592 79.900327 
L 307.777429 75.761118 
L 290.285266 75.761118 
L 272.793103 75.761118 
L 255.30094 75.761118 
L 237.808777 75.761118 
L 220.316614 75.761118 
L 202.824451 75.761118 
L 185.332288 75.761118 
L 167.840125 76.751247 
L 150.347962 76.751247 
L 132.855799 77.760561 
L 115.363636 95.595304 
z
" style="fill:#ff7f0e;fill-opacity:0.3;"/>
   </g>
   <g id="PathCollection_1">
    <path clip-path="url(#p609a828abe)" d="M 115.363636 186.64956 
C 116.163254 186.64956 116.930229 186.331869 117.495644 185.766454 
C 118.061058 185.201039 118.37875 184.434064 118.37875 183.634447 
C 118.37875 182.834829 118.061058 182.067855 117.495644 181.50244 
C 116.930229 180.937025 116.163254 180.619333 115.363636 180.619333 
C 114.564019 180.619333 113.797044 180.937025 113.231629 181.50244 
C 112.666214 182.067855 112.348523 182.834829 112.348523 183.634447 
C 112.348523 184.434064 112.666214 185.201039 113.231629 185.766454 
C 113.797044 186.331869 114.564019 186.64956 115.363636 186.64956 
z
" style="fill:#0fc238;stroke:#00801d;"/>
    <path clip-path="url(#p609a828abe)" d="M 132.855799 169.621502 
C 134.731068 169.621502 136.529784 168.876449 137.855799 167.550434 
C 139.181815 166.224418 139.926867 164.425703 139.926867 162.550434 
C 139.926867 160.675165 139.181815 158.876449 137.855799 157.550434 
C 136.529784 156.224418 134.731068 155.479366 132.855799 155.479366 
C 130.98053 155.479366 129.181815 156.224418 127.855799 157.550434 
C 126.529784 158.876449 125.784732 160.675165 125.784732 162.550434 
C 125.784732 164.425703 126.529784 166.224418 127.855799 167.550434 
C 129.181815 168.876449 130.98053 169.621502 132.855799 169.621502 
z
" style="fill:#0fc238;stroke:#00801d;"/>
    <path clip-path="url(#p609a828abe)" d="M 150.347962 163.442205 
C 150.913377 163.442205 151.45571 163.217563 151.855519 162.817754 
C 152.255328 162.417946 152.47997 161.875613 152.47997 161.310198 
C 152.47997 160.744783 152.255328 160.20245 151.855519 159.802641 
C 151.45571 159.402832 150.913377 159.178191 150.347962 159.178191 
C 149.782547 159.178191 149.240214 159.402832 148.840406 159.802641 
C 148.440597 160.20245 148.215955 160.744783 148.215955 161.310198 
C 148.215955 161.875613 148.440597 162.417946 148.840406 162.817754 
C 149.240214 163.217563 149.782547 163.442205 150.347962 163.442205 
z
" style="fill:#0fc238;stroke:#00801d;"/>
    <path clip-path="url(#p609a828abe)" d="M 185.332288 162.201969 
C 185.897703 162.201969 186.440036 161.977327 186.839845 161.577518 
C 187.239654 161.17771 187.464296 160.635377 187.464296 160.069962 
C 187.464296 159.504547 187.239654 158.962214 186.839845 158.562405 
C 186.440036 158.162596 185.897703 157.937955 185.332288 157.937955 
C 184.766873 157.937955 184.22454 158.162596 183.824732 158.562405 
C 183.424923 158.962214 183.200281 159.504547 183.200281 160.069962 
C 183.200281 160.635377 183.424923 161.17771 183.824732 161.577518 
C 184.22454 161.977327 184.766873 162.201969 185.332288 162.201969 
z
" style="fill:#0fc238;stroke:#00801d;"/>
   </g>
   <g id="matplotlib.axis_1">
    <g id="xtick_1">
     <g id="line2d_1">
      <path clip-path="url(#p609a828abe)" d="M 114.347058 315 
L 114.347058 43.2 
" style="fill:none;stroke:#b0b0b0;stroke-linecap:square;stroke-width:0.8;"/>
     </g>
     <g id="line2d_2">
      <defs>
       <path d="M 0 0 
L 0 3.5 
" id="m0a4622e505" style="stroke:#000000;stroke-width:0.8;"/>
      </defs>
      <g>
       <use style="stroke:#000000;stroke-width:0.8;" x="114.347058" xlink:href="#m0a4622e505" y="315"/>
      </g>
     </g>
     <g id="text_1">
      <!-- 0.0 -->
      <g transform="translate(106.395495 329.598437)scale(0.1 -0.1)">
       <defs>
        <path d="M 2034 4250 
Q 1547 4250 1301 3770 
Q 1056 3291 1056 2328 
Q 1056 1369 1301 889 
Q 1547 409 2034 409 
Q 2525 409 2770 889 
Q 3016 1369 3016 2328 
Q 3016 3291 2770 3770 
Q 2525 4250 2034 4250 
z
M 2034 4750 
Q 2819 4750 3233 4129 
Q 3647 3509 3647 2328 
Q 3647 1150 3233 529 
Q 2819 -91 2034 -91 
Q 1250 -91 836 529 
Q 422 1150 422 2328 
Q 422 3509 836 4129 
Q 1250 4750 2034 4750 
z
" id="DejaVuSans-30" transform="scale(0.015625)"/>
        <path d="M 684 794 
L 1344 794 
L 1344 0 
L 684 0 
L 684 794 
z
" id="DejaVuSans-2e" transform="scale(0.015625)"/>
       </defs>
       <use xlink:href="#DejaVuSans-30"/>
       <use x="63.623047" xlink:href="#DejaVuSans-2e"/>
       <use x="95.410156" xlink:href="#DejaVuSans-30"/>
      </g>
     </g>
    </g>
    <g id="xtick_2">
     <g id="line2d_3">
      <path clip-path="url(#p609a828abe)" d="M 216.004919 315 
L 216.004919 43.2 
" style="fill:none;stroke:#b0b0b0;stroke-linecap:square;stroke-width:0.8;"/>
     </g>
     <g id="line2d_4">
      <g>
       <use style="stroke:#000000;stroke-width:0.8;" x="216.004919" xlink:href="#m0a4622e505" y="315"/>
      </g>
     </g>
     <g id="text_2">
      <!-- 0.1 -->
      <g transform="translate(208.053356 329.598437)scale(0.1 -0.1)">
       <defs>
        <path d="M 794 531 
L 1825 531 
L 1825 4091 
L 703 3866 
L 703 4441 
L 1819 4666 
L 2450 4666 
L 2450 531 
L 3481 531 
L 3481 0 
L 794 0 
L 794 531 
z
" id="DejaVuSans-31" transform="scale(0.015625)"/>
       </defs>
       <use xlink:href="#DejaVuSans-30"/>
       <use x="63.623047" xlink:href="#DejaVuSans-2e"/>
       <use x="95.410156" xlink:href="#DejaVuSans-31"/>
      </g>
     </g>
    </g>
    <g id="xtick_3">
     <g id="line2d_5">
      <path clip-path="url(#p609a828abe)" d="M 317.66278 315 
L 317.66278 43.2 
" style="fill:none;stroke:#b0b0b0;stroke-linecap:square;stroke-width:0.8;"/>
     </g>
     <g id="line2d_6">
      <g>
       <use style="stroke:#000000;stroke-width:0.8;" x="317.66278" xlink:href="#m0a4622e505" y="315"/>
      </g>
     </g>
     <g id="text_3">
      <!-- 0.2 -->
      <g transform="translate(309.711218 329.598437)scale(0.1 -0.1)">
       <defs>
        <path d="M 1228 531 
L 3431 531 
L 3431 0 
L 469 0 
L 469 531 
Q 828 903 1448 1529 
Q 2069 2156 2228 2338 
Q 2531 2678 2651 2914 
Q 2772 3150 2772 3378 
Q 2772 3750 2511 3984 
Q 2250 4219 1831 4219 
Q 1534 4219 1204 4116 
Q 875 4013 500 3803 
L 500 4441 
Q 881 4594 1212 4672 
Q 1544 4750 1819 4750 
Q 2544 4750 2975 4387 
Q 3406 4025 3406 3419 
Q 3406 3131 3298 2873 
Q 3191 2616 2906 2266 
Q 2828 2175 2409 1742 
Q 1991 1309 1228 531 
z
" id="DejaVuSans-32" transform="scale(0.015625)"/>
       </defs>
       <use xlink:href="#DejaVuSans-30"/>
       <use x="63.623047" xlink:href="#DejaVuSans-2e"/>
       <use x="95.410156" xlink:href="#DejaVuSans-32"/>
      </g>
     </g>
    </g>
    <g id="xtick_4">
     <g id="line2d_7">
      <path clip-path="url(#p609a828abe)" d="M 419.320641 315 
L 419.320641 43.2 
" style="fill:none;stroke:#b0b0b0;stroke-linecap:square;stroke-width:0.8;"/>
     </g>
     <g id="line2d_8">
      <g>
       <use style="stroke:#000000;stroke-width:0.8;" x="419.320641" xlink:href="#m0a4622e505" y="315"/>
      </g>
     </g>
     <g id="text_4">
      <!-- 0.3 -->
      <g transform="translate(411.369079 329.598437)scale(0.1 -0.1)">
       <defs>
        <path d="M 2597 2516 
Q 3050 2419 3304 2112 
Q 3559 1806 3559 1356 
Q 3559 666 3084 287 
Q 2609 -91 1734 -91 
Q 1441 -91 1130 -33 
Q 819 25 488 141 
L 488 750 
Q 750 597 1062 519 
Q 1375 441 1716 441 
Q 2309 441 2620 675 
Q 2931 909 2931 1356 
Q 2931 1769 2642 2001 
Q 2353 2234 1838 2234 
L 1294 2234 
L 1294 2753 
L 1863 2753 
Q 2328 2753 2575 2939 
Q 2822 3125 2822 3475 
Q 2822 3834 2567 4026 
Q 2313 4219 1838 4219 
Q 1578 4219 1281 4162 
Q 984 4106 628 3988 
L 628 4550 
Q 988 4650 1302 4700 
Q 1616 4750 1894 4750 
Q 2613 4750 3031 4423 
Q 3450 4097 3450 3541 
Q 3450 3153 3228 2886 
Q 3006 2619 2597 2516 
z
" id="DejaVuSans-33" transform="scale(0.015625)"/>
       </defs>
       <use xlink:href="#DejaVuSans-30"/>
       <use x="63.623047" xlink:href="#DejaVuSans-2e"/>
       <use x="95.410156" xlink:href="#DejaVuSans-33"/>
      </g>
     </g>
    </g>
    <g id="xtick_5">
     <g id="line2d_9">
      <path clip-path="url(#p609a828abe)" d="M 520.978502 315 
L 520.978502 43.2 
" style="fill:none;stroke:#b0b0b0;stroke-linecap:square;stroke-width:0.8;"/>
     </g>
     <g id="line2d_10">
      <g>
       <use style="stroke:#000000;stroke-width:0.8;" x="520.978502" xlink:href="#m0a4622e505" y="315"/>
      </g>
     </g>
     <g id="text_5">
      <!-- 0.4 -->
      <g transform="translate(513.02694 329.598437)scale(0.1 -0.1)">
       <defs>
        <path d="M 2419 4116 
L 825 1625 
L 2419 1625 
L 2419 4116 
z
M 2253 4666 
L 3047 4666 
L 3047 1625 
L 3713 1625 
L 3713 1100 
L 3047 1100 
L 3047 0 
L 2419 0 
L 2419 1100 
L 313 1100 
L 313 1709 
L 2253 4666 
z
" id="DejaVuSans-34" transform="scale(0.015625)"/>
       </defs>
       <use xlink:href="#DejaVuSans-30"/>
       <use x="63.623047" xlink:href="#DejaVuSans-2e"/>
       <use x="95.410156" xlink:href="#DejaVuSans-34"/>
      </g>
     </g>
    </g>
    <g id="xtick_6">
     <g id="line2d_11">
      <path clip-path="url(#p609a828abe)" d="M 622.636364 315 
L 622.636364 43.2 
" style="fill:none;stroke:#b0b0b0;stroke-linecap:square;stroke-width:0.8;"/>
     </g>
     <g id="line2d_12">
      <g>
       <use style="stroke:#000000;stroke-width:0.8;" x="622.636364" xlink:href="#m0a4622e505" y="315"/>
      </g>
     </g>
     <g id="text_6">
      <!-- 0.5 -->
      <g transform="translate(614.684801 329.598437)scale(0.1 -0.1)">
       <defs>
        <path d="M 691 4666 
L 3169 4666 
L 3169 4134 
L 1269 4134 
L 1269 2991 
Q 1406 3038 1543 3061 
Q 1681 3084 1819 3084 
Q 2600 3084 3056 2656 
Q 3513 2228 3513 1497 
Q 3513 744 3044 326 
Q 2575 -91 1722 -91 
Q 1428 -91 1123 -41 
Q 819 9 494 109 
L 494 744 
Q 775 591 1075 516 
Q 1375 441 1709 441 
Q 2250 441 2565 725 
Q 2881 1009 2881 1497 
Q 2881 1984 2565 2268 
Q 2250 2553 1709 2553 
Q 1456 2553 1204 2497 
Q 953 2441 691 2322 
L 691 4666 
z
" id="DejaVuSans-35" transform="scale(0.015625)"/>
       </defs>
       <use xlink:href="#DejaVuSans-30"/>
       <use x="63.623047" xlink:href="#DejaVuSans-2e"/>
       <use x="95.410156" xlink:href="#DejaVuSans-35"/>
      </g>
     </g>
    </g>
    <g id="text_7">
     <!-- nu values -->
     <g transform="translate(335.135312 346.315938)scale(0.14 -0.14)">
      <defs>
       <path d="M 3513 2113 
L 3513 0 
L 2938 0 
L 2938 2094 
Q 2938 2591 2744 2837 
Q 2550 3084 2163 3084 
Q 1697 3084 1428 2787 
Q 1159 2491 1159 1978 
L 1159 0 
L 581 0 
L 581 3500 
L 1159 3500 
L 1159 2956 
Q 1366 3272 1645 3428 
Q 1925 3584 2291 3584 
Q 2894 3584 3203 3211 
Q 3513 2838 3513 2113 
z
" id="DejaVuSans-6e" transform="scale(0.015625)"/>
       <path d="M 544 1381 
L 544 3500 
L 1119 3500 
L 1119 1403 
Q 1119 906 1312 657 
Q 1506 409 1894 409 
Q 2359 409 2629 706 
Q 2900 1003 2900 1516 
L 2900 3500 
L 3475 3500 
L 3475 0 
L 2900 0 
L 2900 538 
Q 2691 219 2414 64 
Q 2138 -91 1772 -91 
Q 1169 -91 856 284 
Q 544 659 544 1381 
z
M 1991 3584 
L 1991 3584 
z
" id="DejaVuSans-75" transform="scale(0.015625)"/>
       <path id="DejaVuSans-20" transform="scale(0.015625)"/>
       <path d="M 191 3500 
L 800 3500 
L 1894 563 
L 2988 3500 
L 3597 3500 
L 2284 0 
L 1503 0 
L 191 3500 
z
" id="DejaVuSans-76" transform="scale(0.015625)"/>
       <path d="M 2194 1759 
Q 1497 1759 1228 1600 
Q 959 1441 959 1056 
Q 959 750 1161 570 
Q 1363 391 1709 391 
Q 2188 391 2477 730 
Q 2766 1069 2766 1631 
L 2766 1759 
L 2194 1759 
z
M 3341 1997 
L 3341 0 
L 2766 0 
L 2766 531 
Q 2569 213 2275 61 
Q 1981 -91 1556 -91 
Q 1019 -91 701 211 
Q 384 513 384 1019 
Q 384 1609 779 1909 
Q 1175 2209 1959 2209 
L 2766 2209 
L 2766 2266 
Q 2766 2663 2505 2880 
Q 2244 3097 1772 3097 
Q 1472 3097 1187 3025 
Q 903 2953 641 2809 
L 641 3341 
Q 956 3463 1253 3523 
Q 1550 3584 1831 3584 
Q 2591 3584 2966 3190 
Q 3341 2797 3341 1997 
z
" id="DejaVuSans-61" transform="scale(0.015625)"/>
       <path d="M 603 4863 
L 1178 4863 
L 1178 0 
L 603 0 
L 603 4863 
z
" id="DejaVuSans-6c" transform="scale(0.015625)"/>
       <path d="M 3597 1894 
L 3597 1613 
L 953 1613 
Q 991 1019 1311 708 
Q 1631 397 2203 397 
Q 2534 397 2845 478 
Q 3156 559 3463 722 
L 3463 178 
Q 3153 47 2828 -22 
Q 2503 -91 2169 -91 
Q 1331 -91 842 396 
Q 353 884 353 1716 
Q 353 2575 817 3079 
Q 1281 3584 2069 3584 
Q 2775 3584 3186 3129 
Q 3597 2675 3597 1894 
z
M 3022 2063 
Q 3016 2534 2758 2815 
Q 2500 3097 2075 3097 
Q 1594 3097 1305 2825 
Q 1016 2553 972 2059 
L 3022 2063 
z
" id="DejaVuSans-65" transform="scale(0.015625)"/>
       <path d="M 2834 3397 
L 2834 2853 
Q 2591 2978 2328 3040 
Q 2066 3103 1784 3103 
Q 1356 3103 1142 2972 
Q 928 2841 928 2578 
Q 928 2378 1081 2264 
Q 1234 2150 1697 2047 
L 1894 2003 
Q 2506 1872 2764 1633 
Q 3022 1394 3022 966 
Q 3022 478 2636 193 
Q 2250 -91 1575 -91 
Q 1294 -91 989 -36 
Q 684 19 347 128 
L 347 722 
Q 666 556 975 473 
Q 1284 391 1588 391 
Q 1994 391 2212 530 
Q 2431 669 2431 922 
Q 2431 1156 2273 1281 
Q 2116 1406 1581 1522 
L 1381 1569 
Q 847 1681 609 1914 
Q 372 2147 372 2553 
Q 372 3047 722 3315 
Q 1072 3584 1716 3584 
Q 2034 3584 2315 3537 
Q 2597 3491 2834 3397 
z
" id="DejaVuSans-73" transform="scale(0.015625)"/>
      </defs>
      <use xlink:href="#DejaVuSans-6e"/>
      <use x="63.378906" xlink:href="#DejaVuSans-75"/>
      <use x="126.757812" xlink:href="#DejaVuSans-20"/>
      <use x="158.544922" xlink:href="#DejaVuSans-76"/>
      <use x="217.724609" xlink:href="#DejaVuSans-61"/>
      <use x="279.003906" xlink:href="#DejaVuSans-6c"/>
      <use x="306.787109" xlink:href="#DejaVuSans-75"/>
      <use x="370.166016" xlink:href="#DejaVuSans-65"/>
      <use x="431.689453" xlink:href="#DejaVuSans-73"/>
     </g>
    </g>
   </g>
   <g id="matplotlib.axis_2">
    <g id="ytick_1">
     <g id="line2d_13">
      <path clip-path="url(#p609a828abe)" d="M 90 289.054512 
L 648 289.054512 
" style="fill:none;stroke:#b0b0b0;stroke-linecap:square;stroke-width:0.8;"/>
     </g>
     <g id="line2d_14">
      <defs>
       <path d="M 0 0 
L -3.5 0 
" id="md612f55e5f" style="stroke:#000000;stroke-width:0.8;"/>
      </defs>
      <g>
       <use style="stroke:#000000;stroke-width:0.8;" x="90" xlink:href="#md612f55e5f" y="289.054512"/>
      </g>
     </g>
     <g id="text_8">
      <!-- 0.2 -->
      <g transform="translate(67.096875 292.853731)scale(0.1 -0.1)">
       <use xlink:href="#DejaVuSans-30"/>
       <use x="63.623047" xlink:href="#DejaVuSans-2e"/>
       <use x="95.410156" xlink:href="#DejaVuSans-32"/>
      </g>
     </g>
    </g>
    <g id="ytick_2">
     <g id="line2d_15">
      <path clip-path="url(#p609a828abe)" d="M 90 251.84743 
L 648 251.84743 
" style="fill:none;stroke:#b0b0b0;stroke-linecap:square;stroke-width:0.8;"/>
     </g>
     <g id="line2d_16">
      <g>
       <use style="stroke:#000000;stroke-width:0.8;" x="90" xlink:href="#md612f55e5f" y="251.84743"/>
      </g>
     </g>
     <g id="text_9">
      <!-- 0.3 -->
      <g transform="translate(67.096875 255.646649)scale(0.1 -0.1)">
       <use xlink:href="#DejaVuSans-30"/>
       <use x="63.623047" xlink:href="#DejaVuSans-2e"/>
       <use x="95.410156" xlink:href="#DejaVuSans-33"/>
      </g>
     </g>
    </g>
    <g id="ytick_3">
     <g id="line2d_17">
      <path clip-path="url(#p609a828abe)" d="M 90 214.640348 
L 648 214.640348 
" style="fill:none;stroke:#b0b0b0;stroke-linecap:square;stroke-width:0.8;"/>
     </g>
     <g id="line2d_18">
      <g>
       <use style="stroke:#000000;stroke-width:0.8;" x="90" xlink:href="#md612f55e5f" y="214.640348"/>
      </g>
     </g>
     <g id="text_10">
      <!-- 0.4 -->
      <g transform="translate(67.096875 218.439567)scale(0.1 -0.1)">
       <use xlink:href="#DejaVuSans-30"/>
       <use x="63.623047" xlink:href="#DejaVuSans-2e"/>
       <use x="95.410156" xlink:href="#DejaVuSans-34"/>
      </g>
     </g>
    </g>
    <g id="ytick_4">
     <g id="line2d_19">
      <path clip-path="url(#p609a828abe)" d="M 90 177.433267 
L 648 177.433267 
" style="fill:none;stroke:#b0b0b0;stroke-linecap:square;stroke-width:0.8;"/>
     </g>
     <g id="line2d_20">
      <g>
       <use style="stroke:#000000;stroke-width:0.8;" x="90" xlink:href="#md612f55e5f" y="177.433267"/>
      </g>
     </g>
     <g id="text_11">
      <!-- 0.5 -->
      <g transform="translate(67.096875 181.232485)scale(0.1 -0.1)">
       <use xlink:href="#DejaVuSans-30"/>
       <use x="63.623047" xlink:href="#DejaVuSans-2e"/>
       <use x="95.410156" xlink:href="#DejaVuSans-35"/>
      </g>
     </g>
    </g>
    <g id="ytick_5">
     <g id="line2d_21">
      <path clip-path="url(#p609a828abe)" d="M 90 140.226185 
L 648 140.226185 
" style="fill:none;stroke:#b0b0b0;stroke-linecap:square;stroke-width:0.8;"/>
     </g>
     <g id="line2d_22">
      <g>
       <use style="stroke:#000000;stroke-width:0.8;" x="90" xlink:href="#md612f55e5f" y="140.226185"/>
      </g>
     </g>
     <g id="text_12">
      <!-- 0.6 -->
      <g transform="translate(67.096875 144.025403)scale(0.1 -0.1)">
       <defs>
        <path d="M 2113 2584 
Q 1688 2584 1439 2293 
Q 1191 2003 1191 1497 
Q 1191 994 1439 701 
Q 1688 409 2113 409 
Q 2538 409 2786 701 
Q 3034 994 3034 1497 
Q 3034 2003 2786 2293 
Q 2538 2584 2113 2584 
z
M 3366 4563 
L 3366 3988 
Q 3128 4100 2886 4159 
Q 2644 4219 2406 4219 
Q 1781 4219 1451 3797 
Q 1122 3375 1075 2522 
Q 1259 2794 1537 2939 
Q 1816 3084 2150 3084 
Q 2853 3084 3261 2657 
Q 3669 2231 3669 1497 
Q 3669 778 3244 343 
Q 2819 -91 2113 -91 
Q 1303 -91 875 529 
Q 447 1150 447 2328 
Q 447 3434 972 4092 
Q 1497 4750 2381 4750 
Q 2619 4750 2861 4703 
Q 3103 4656 3366 4563 
z
" id="DejaVuSans-36" transform="scale(0.015625)"/>
       </defs>
       <use xlink:href="#DejaVuSans-30"/>
       <use x="63.623047" xlink:href="#DejaVuSans-2e"/>
       <use x="95.410156" xlink:href="#DejaVuSans-36"/>
      </g>
     </g>
    </g>
    <g id="ytick_6">
     <g id="line2d_23">
      <path clip-path="url(#p609a828abe)" d="M 90 103.019103 
L 648 103.019103 
" style="fill:none;stroke:#b0b0b0;stroke-linecap:square;stroke-width:0.8;"/>
     </g>
     <g id="line2d_24">
      <g>
       <use style="stroke:#000000;stroke-width:0.8;" x="90" xlink:href="#md612f55e5f" y="103.019103"/>
      </g>
     </g>
     <g id="text_13">
      <!-- 0.7 -->
      <g transform="translate(67.096875 106.818322)scale(0.1 -0.1)">
       <defs>
        <path d="M 525 4666 
L 3525 4666 
L 3525 4397 
L 1831 0 
L 1172 0 
L 2766 4134 
L 525 4134 
L 525 4666 
z
" id="DejaVuSans-37" transform="scale(0.015625)"/>
       </defs>
       <use xlink:href="#DejaVuSans-30"/>
       <use x="63.623047" xlink:href="#DejaVuSans-2e"/>
       <use x="95.410156" xlink:href="#DejaVuSans-37"/>
      </g>
     </g>
    </g>
    <g id="ytick_7">
     <g id="line2d_25">
      <path clip-path="url(#p609a828abe)" d="M 90 65.812021 
L 648 65.812021 
" style="fill:none;stroke:#b0b0b0;stroke-linecap:square;stroke-width:0.8;"/>
     </g>
     <g id="line2d_26">
      <g>
       <use style="stroke:#000000;stroke-width:0.8;" x="90" xlink:href="#md612f55e5f" y="65.812021"/>
      </g>
     </g>
     <g id="text_14">
      <!-- 0.8 -->
      <g transform="translate(67.096875 69.61124)scale(0.1 -0.1)">
       <defs>
        <path d="M 2034 2216 
Q 1584 2216 1326 1975 
Q 1069 1734 1069 1313 
Q 1069 891 1326 650 
Q 1584 409 2034 409 
Q 2484 409 2743 651 
Q 3003 894 3003 1313 
Q 3003 1734 2745 1975 
Q 2488 2216 2034 2216 
z
M 1403 2484 
Q 997 2584 770 2862 
Q 544 3141 544 3541 
Q 544 4100 942 4425 
Q 1341 4750 2034 4750 
Q 2731 4750 3128 4425 
Q 3525 4100 3525 3541 
Q 3525 3141 3298 2862 
Q 3072 2584 2669 2484 
Q 3125 2378 3379 2068 
Q 3634 1759 3634 1313 
Q 3634 634 3220 271 
Q 2806 -91 2034 -91 
Q 1263 -91 848 271 
Q 434 634 434 1313 
Q 434 1759 690 2068 
Q 947 2378 1403 2484 
z
M 1172 3481 
Q 1172 3119 1398 2916 
Q 1625 2713 2034 2713 
Q 2441 2713 2670 2916 
Q 2900 3119 2900 3481 
Q 2900 3844 2670 4047 
Q 2441 4250 2034 4250 
Q 1625 4250 1398 4047 
Q 1172 3844 1172 3481 
z
" id="DejaVuSans-38" transform="scale(0.015625)"/>
       </defs>
       <use xlink:href="#DejaVuSans-30"/>
       <use x="63.623047" xlink:href="#DejaVuSans-2e"/>
       <use x="95.410156" xlink:href="#DejaVuSans-38"/>
      </g>
     </g>
    </g>
    <g id="text_15">
     <!-- Recall score -->
     <g transform="translate(60.185312 221.014688)rotate(-90)scale(0.14 -0.14)">
      <defs>
       <path d="M 2841 2188 
Q 3044 2119 3236 1894 
Q 3428 1669 3622 1275 
L 4263 0 
L 3584 0 
L 2988 1197 
Q 2756 1666 2539 1819 
Q 2322 1972 1947 1972 
L 1259 1972 
L 1259 0 
L 628 0 
L 628 4666 
L 2053 4666 
Q 2853 4666 3247 4331 
Q 3641 3997 3641 3322 
Q 3641 2881 3436 2590 
Q 3231 2300 2841 2188 
z
M 1259 4147 
L 1259 2491 
L 2053 2491 
Q 2509 2491 2742 2702 
Q 2975 2913 2975 3322 
Q 2975 3731 2742 3939 
Q 2509 4147 2053 4147 
L 1259 4147 
z
" id="DejaVuSans-52" transform="scale(0.015625)"/>
       <path d="M 3122 3366 
L 3122 2828 
Q 2878 2963 2633 3030 
Q 2388 3097 2138 3097 
Q 1578 3097 1268 2742 
Q 959 2388 959 1747 
Q 959 1106 1268 751 
Q 1578 397 2138 397 
Q 2388 397 2633 464 
Q 2878 531 3122 666 
L 3122 134 
Q 2881 22 2623 -34 
Q 2366 -91 2075 -91 
Q 1284 -91 818 406 
Q 353 903 353 1747 
Q 353 2603 823 3093 
Q 1294 3584 2113 3584 
Q 2378 3584 2631 3529 
Q 2884 3475 3122 3366 
z
" id="DejaVuSans-63" transform="scale(0.015625)"/>
       <path d="M 1959 3097 
Q 1497 3097 1228 2736 
Q 959 2375 959 1747 
Q 959 1119 1226 758 
Q 1494 397 1959 397 
Q 2419 397 2687 759 
Q 2956 1122 2956 1747 
Q 2956 2369 2687 2733 
Q 2419 3097 1959 3097 
z
M 1959 3584 
Q 2709 3584 3137 3096 
Q 3566 2609 3566 1747 
Q 3566 888 3137 398 
Q 2709 -91 1959 -91 
Q 1206 -91 779 398 
Q 353 888 353 1747 
Q 353 2609 779 3096 
Q 1206 3584 1959 3584 
z
" id="DejaVuSans-6f" transform="scale(0.015625)"/>
       <path d="M 2631 2963 
Q 2534 3019 2420 3045 
Q 2306 3072 2169 3072 
Q 1681 3072 1420 2755 
Q 1159 2438 1159 1844 
L 1159 0 
L 581 0 
L 581 3500 
L 1159 3500 
L 1159 2956 
Q 1341 3275 1631 3429 
Q 1922 3584 2338 3584 
Q 2397 3584 2469 3576 
Q 2541 3569 2628 3553 
L 2631 2963 
z
" id="DejaVuSans-72" transform="scale(0.015625)"/>
      </defs>
      <use xlink:href="#DejaVuSans-52"/>
      <use x="64.982422" xlink:href="#DejaVuSans-65"/>
      <use x="126.505859" xlink:href="#DejaVuSans-63"/>
      <use x="181.486328" xlink:href="#DejaVuSans-61"/>
      <use x="242.765625" xlink:href="#DejaVuSans-6c"/>
      <use x="270.548828" xlink:href="#DejaVuSans-6c"/>
      <use x="298.332031" xlink:href="#DejaVuSans-20"/>
      <use x="330.119141" xlink:href="#DejaVuSans-73"/>
      <use x="382.21875" xlink:href="#DejaVuSans-63"/>
      <use x="437.199219" xlink:href="#DejaVuSans-6f"/>
      <use x="498.380859" xlink:href="#DejaVuSans-72"/>
      <use x="537.244141" xlink:href="#DejaVuSans-65"/>
     </g>
    </g>
   </g>
   <g id="line2d_27">
    <path clip-path="url(#p609a828abe)" d="M 115.363636 142.293245 
L 132.855799 85.242386 
L 150.347962 82.761914 
L 167.840125 88.963094 
L 185.332288 82.761914 
L 202.824451 83.588738 
L 220.316614 88.963094 
L 237.808777 84.415562 
L 255.30094 83.175326 
L 272.793103 85.655798 
L 290.285266 88.13627 
L 307.777429 88.549682 
L 325.269592 94.337451 
L 342.761755 110.047107 
L 360.253918 104.259339 
L 377.746082 109.633695 
L 395.238245 102.192279 
L 412.730408 103.845927 
L 430.222571 110.873931 
L 447.714734 108.393459 
L 465.206897 110.460519 
L 482.69906 116.248288 
L 500.191223 121.209232 
L 517.683386 129.06406 
L 535.175549 141.466421 
L 552.667712 144.773717 
L 570.159875 148.907837 
L 587.652038 158.416314 
L 605.144201 163.79067 
L 622.636364 171.232086 
" style="fill:none;stroke:#1f77b4;stroke-linecap:square;stroke-width:1.5;"/>
   </g>
   <g id="line2d_28">
    <path clip-path="url(#p609a828abe)" d="M 115.363636 183.634447 
L 132.855799 162.550434 
L 150.347962 161.310198 
L 167.840125 161.310198 
L 185.332288 160.069962 
L 202.824451 160.069962 
L 220.316614 160.069962 
L 237.808777 160.069962 
L 255.30094 160.069962 
L 272.793103 160.069962 
L 290.285266 160.069962 
L 307.777429 160.069962 
L 325.269592 163.79067 
L 342.761755 172.472322 
L 360.253918 172.472322 
L 377.746082 173.712558 
L 395.238245 171.232086 
L 412.730408 171.232086 
L 430.222571 172.472322 
L 447.714734 176.19303 
L 465.206897 178.673503 
L 482.69906 178.673503 
L 500.191223 182.394211 
L 517.683386 186.114919 
L 535.175549 192.316099 
L 552.667712 193.556335 
L 570.159875 200.997752 
L 587.652038 209.679404 
L 605.144201 210.91964 
L 622.636364 217.12082 
" style="fill:none;stroke:#ff7f0e;stroke-linecap:square;stroke-width:1.5;"/>
   </g>
   <g id="patch_3">
    <path d="M 90 315 
L 90 43.2 
" style="fill:none;stroke:#000000;stroke-linecap:square;stroke-linejoin:miter;stroke-width:0.8;"/>
   </g>
   <g id="patch_4">
    <path d="M 648 315 
L 648 43.2 
" style="fill:none;stroke:#000000;stroke-linecap:square;stroke-linejoin:miter;stroke-width:0.8;"/>
   </g>
   <g id="patch_5">
    <path d="M 90 315 
L 648 315 
" style="fill:none;stroke:#000000;stroke-linecap:square;stroke-linejoin:miter;stroke-width:0.8;"/>
   </g>
   <g id="patch_6">
    <path d="M 90 43.2 
L 648 43.2 
" style="fill:none;stroke:#000000;stroke-linecap:square;stroke-linejoin:miter;stroke-width:0.8;"/>
   </g>
   <g id="text_16">
    <!-- best nu: 0.01820689655172414 -->
    <g transform="translate(449.818 311.378761)scale(0.1 -0.1)">
     <defs>
      <path d="M 3116 1747 
Q 3116 2381 2855 2742 
Q 2594 3103 2138 3103 
Q 1681 3103 1420 2742 
Q 1159 2381 1159 1747 
Q 1159 1113 1420 752 
Q 1681 391 2138 391 
Q 2594 391 2855 752 
Q 3116 1113 3116 1747 
z
M 1159 2969 
Q 1341 3281 1617 3432 
Q 1894 3584 2278 3584 
Q 2916 3584 3314 3078 
Q 3713 2572 3713 1747 
Q 3713 922 3314 415 
Q 2916 -91 2278 -91 
Q 1894 -91 1617 61 
Q 1341 213 1159 525 
L 1159 0 
L 581 0 
L 581 4863 
L 1159 4863 
L 1159 2969 
z
" id="DejaVuSans-62" transform="scale(0.015625)"/>
      <path d="M 1172 4494 
L 1172 3500 
L 2356 3500 
L 2356 3053 
L 1172 3053 
L 1172 1153 
Q 1172 725 1289 603 
Q 1406 481 1766 481 
L 2356 481 
L 2356 0 
L 1766 0 
Q 1100 0 847 248 
Q 594 497 594 1153 
L 594 3053 
L 172 3053 
L 172 3500 
L 594 3500 
L 594 4494 
L 1172 4494 
z
" id="DejaVuSans-74" transform="scale(0.015625)"/>
      <path d="M 750 794 
L 1409 794 
L 1409 0 
L 750 0 
L 750 794 
z
M 750 3309 
L 1409 3309 
L 1409 2516 
L 750 2516 
L 750 3309 
z
" id="DejaVuSans-3a" transform="scale(0.015625)"/>
      <path d="M 703 97 
L 703 672 
Q 941 559 1184 500 
Q 1428 441 1663 441 
Q 2288 441 2617 861 
Q 2947 1281 2994 2138 
Q 2813 1869 2534 1725 
Q 2256 1581 1919 1581 
Q 1219 1581 811 2004 
Q 403 2428 403 3163 
Q 403 3881 828 4315 
Q 1253 4750 1959 4750 
Q 2769 4750 3195 4129 
Q 3622 3509 3622 2328 
Q 3622 1225 3098 567 
Q 2575 -91 1691 -91 
Q 1453 -91 1209 -44 
Q 966 3 703 97 
z
M 1959 2075 
Q 2384 2075 2632 2365 
Q 2881 2656 2881 3163 
Q 2881 3666 2632 3958 
Q 2384 4250 1959 4250 
Q 1534 4250 1286 3958 
Q 1038 3666 1038 3163 
Q 1038 2656 1286 2365 
Q 1534 2075 1959 2075 
z
" id="DejaVuSans-39" transform="scale(0.015625)"/>
     </defs>
     <use xlink:href="#DejaVuSans-62"/>
     <use x="63.476562" xlink:href="#DejaVuSans-65"/>
     <use x="125" xlink:href="#DejaVuSans-73"/>
     <use x="177.099609" xlink:href="#DejaVuSans-74"/>
     <use x="216.308594" xlink:href="#DejaVuSans-20"/>
     <use x="248.095703" xlink:href="#DejaVuSans-6e"/>
     <use x="311.474609" xlink:href="#DejaVuSans-75"/>
     <use x="374.853516" xlink:href="#DejaVuSans-3a"/>
     <use x="408.544922" xlink:href="#DejaVuSans-20"/>
     <use x="440.332031" xlink:href="#DejaVuSans-30"/>
     <use x="503.955078" xlink:href="#DejaVuSans-2e"/>
     <use x="535.742188" xlink:href="#DejaVuSans-30"/>
     <use x="599.365234" xlink:href="#DejaVuSans-31"/>
     <use x="662.988281" xlink:href="#DejaVuSans-38"/>
     <use x="726.611328" xlink:href="#DejaVuSans-32"/>
     <use x="790.234375" xlink:href="#DejaVuSans-30"/>
     <use x="853.857422" xlink:href="#DejaVuSans-36"/>
     <use x="917.480469" xlink:href="#DejaVuSans-38"/>
     <use x="981.103516" xlink:href="#DejaVuSans-39"/>
     <use x="1044.726562" xlink:href="#DejaVuSans-36"/>
     <use x="1108.349609" xlink:href="#DejaVuSans-35"/>
     <use x="1171.972656" xlink:href="#DejaVuSans-35"/>
     <use x="1235.595703" xlink:href="#DejaVuSans-31"/>
     <use x="1299.21875" xlink:href="#DejaVuSans-37"/>
     <use x="1362.841797" xlink:href="#DejaVuSans-32"/>
     <use x="1426.464844" xlink:href="#DejaVuSans-34"/>
     <use x="1490.087891" xlink:href="#DejaVuSans-31"/>
     <use x="1553.710938" xlink:href="#DejaVuSans-34"/>
    </g>
   </g>
   <g id="legend_1">
    <g id="patch_7">
     <path d="M 547.882812 95.234375 
L 641 95.234375 
Q 643 95.234375 643 93.234375 
L 643 50.2 
Q 643 48.2 641 48.2 
L 547.882812 48.2 
Q 545.882812 48.2 545.882812 50.2 
L 545.882812 93.234375 
Q 545.882812 95.234375 547.882812 95.234375 
z
" style="fill:#ffffff;opacity:0.8;stroke:#cccccc;stroke-linejoin:miter;"/>
    </g>
    <g id="line2d_29">
     <path d="M 549.882812 56.298437 
L 569.882812 56.298437 
" style="fill:none;stroke:#1f77b4;stroke-linecap:square;stroke-width:1.5;"/>
    </g>
    <g id="line2d_30"/>
    <g id="text_17">
     <!-- Train score -->
     <g transform="translate(577.882812 59.798437)scale(0.1 -0.1)">
      <defs>
       <path d="M -19 4666 
L 3928 4666 
L 3928 4134 
L 2272 4134 
L 2272 0 
L 1638 0 
L 1638 4134 
L -19 4134 
L -19 4666 
z
" id="DejaVuSans-54" transform="scale(0.015625)"/>
       <path d="M 603 3500 
L 1178 3500 
L 1178 0 
L 603 0 
L 603 3500 
z
M 603 4863 
L 1178 4863 
L 1178 4134 
L 603 4134 
L 603 4863 
z
" id="DejaVuSans-69" transform="scale(0.015625)"/>
      </defs>
      <use xlink:href="#DejaVuSans-54"/>
      <use x="46.333984" xlink:href="#DejaVuSans-72"/>
      <use x="87.447266" xlink:href="#DejaVuSans-61"/>
      <use x="148.726562" xlink:href="#DejaVuSans-69"/>
      <use x="176.509766" xlink:href="#DejaVuSans-6e"/>
      <use x="239.888672" xlink:href="#DejaVuSans-20"/>
      <use x="271.675781" xlink:href="#DejaVuSans-73"/>
      <use x="323.775391" xlink:href="#DejaVuSans-63"/>
      <use x="378.755859" xlink:href="#DejaVuSans-6f"/>
      <use x="439.9375" xlink:href="#DejaVuSans-72"/>
      <use x="478.800781" xlink:href="#DejaVuSans-65"/>
     </g>
    </g>
    <g id="line2d_31">
     <path d="M 549.882812 70.976562 
L 569.882812 70.976562 
" style="fill:none;stroke:#ff7f0e;stroke-linecap:square;stroke-width:1.5;"/>
    </g>
    <g id="line2d_32"/>
    <g id="text_18">
     <!-- Test score -->
     <g transform="translate(577.882812 74.476562)scale(0.1 -0.1)">
      <use xlink:href="#DejaVuSans-54"/>
      <use x="44.083984" xlink:href="#DejaVuSans-65"/>
      <use x="105.607422" xlink:href="#DejaVuSans-73"/>
      <use x="157.707031" xlink:href="#DejaVuSans-74"/>
      <use x="196.916016" xlink:href="#DejaVuSans-20"/>
      <use x="228.703125" xlink:href="#DejaVuSans-73"/>
      <use x="280.802734" xlink:href="#DejaVuSans-63"/>
      <use x="335.783203" xlink:href="#DejaVuSans-6f"/>
      <use x="396.964844" xlink:href="#DejaVuSans-72"/>
      <use x="435.828125" xlink:href="#DejaVuSans-65"/>
     </g>
    </g>
    <g id="PathCollection_2">
     <defs>
      <path d="M 0 5.22233 
C 1.384978 5.22233 2.713417 4.672072 3.692745 3.692745 
C 4.672072 2.713417 5.22233 1.384978 5.22233 0 
C 5.22233 -1.384978 4.672072 -2.713417 3.692745 -3.692745 
C 2.713417 -4.672072 1.384978 -5.22233 0 -5.22233 
C -1.384978 -5.22233 -2.713417 -4.672072 -3.692745 -3.692745 
C -4.672072 -2.713417 -5.22233 -1.384978 -5.22233 0 
C -5.22233 1.384978 -4.672072 2.713417 -3.692745 3.692745 
C -2.713417 4.672072 -1.384978 5.22233 0 5.22233 
z
" id="m60d9b1e159" style="stroke:#00801d;"/>
     </defs>
     <g>
      <use style="fill:#0fc238;stroke:#00801d;" x="559.882812" xlink:href="#m60d9b1e159" y="86.529687"/>
     </g>
    </g>
    <g id="text_19">
     <!-- Melhores nu -->
     <g transform="translate(577.882812 89.154687)scale(0.1 -0.1)">
      <defs>
       <path d="M 628 4666 
L 1569 4666 
L 2759 1491 
L 3956 4666 
L 4897 4666 
L 4897 0 
L 4281 0 
L 4281 4097 
L 3078 897 
L 2444 897 
L 1241 4097 
L 1241 0 
L 628 0 
L 628 4666 
z
" id="DejaVuSans-4d" transform="scale(0.015625)"/>
       <path d="M 3513 2113 
L 3513 0 
L 2938 0 
L 2938 2094 
Q 2938 2591 2744 2837 
Q 2550 3084 2163 3084 
Q 1697 3084 1428 2787 
Q 1159 2491 1159 1978 
L 1159 0 
L 581 0 
L 581 4863 
L 1159 4863 
L 1159 2956 
Q 1366 3272 1645 3428 
Q 1925 3584 2291 3584 
Q 2894 3584 3203 3211 
Q 3513 2838 3513 2113 
z
" id="DejaVuSans-68" transform="scale(0.015625)"/>
      </defs>
      <use xlink:href="#DejaVuSans-4d"/>
      <use x="86.279297" xlink:href="#DejaVuSans-65"/>
      <use x="147.802734" xlink:href="#DejaVuSans-6c"/>
      <use x="175.585938" xlink:href="#DejaVuSans-68"/>
      <use x="238.964844" xlink:href="#DejaVuSans-6f"/>
      <use x="300.146484" xlink:href="#DejaVuSans-72"/>
      <use x="339.009766" xlink:href="#DejaVuSans-65"/>
      <use x="400.533203" xlink:href="#DejaVuSans-73"/>
      <use x="452.632812" xlink:href="#DejaVuSans-20"/>
      <use x="484.419922" xlink:href="#DejaVuSans-6e"/>
      <use x="547.798828" xlink:href="#DejaVuSans-75"/>
     </g>
    </g>
   </g>
  </g>
 </g>
 <defs>
  <clipPath id="p609a828abe">
   <rect height="271.8" width="558" x="90" y="43.2"/>
  </clipPath>
 </defs>
</svg>
