<svg version="1.1" xmlns="http://www.w3.org/2000/svg" xmlns:xlink="http://www.w3.org/1999/xlink" width="300" height="250" style="width: 300px; height: 250px;"><defs><clipPath id="QKlzlhMfEiWH"><path fill="none" stroke="none" d=" M 53 5 L 270 5 L 270 201 L 53 201 L 53 5 Z"/></clipPath><clipPath id="AVqHOZhhzIAM"><path fill="none" stroke="none" d=" M 53 5 L 270 5 L 270 201 L 53 201 L 53 5 Z"/></clipPath><clipPath id="ftICceqUaphg"><path fill="none" stroke="none" d=" M 53 5 L 270 5 L 270 201 L 53 201 L 53 5 Z"/></clipPath><clipPath id="WTdtTbbXfZrB"><path fill="none" stroke="none" d=" M 53 5 L 270 5 L 270 201 L 53 201 L 53 5 Z"/></clipPath><clipPath id="MluxzCJcfVug"><path fill="none" stroke="none" d=" M 53 5 L 270 5 L 270 201 L 53 201 L 53 5 Z"/></clipPath><clipPath id="kTVadQvGirwz"><path fill="none" stroke="none" d=" M 53 5 L 270 5 L 270 201 L 53 201 L 53 5 Z"/></clipPath><clipPath id="LtmvtGsKvUPT"><path fill="none" stroke="none" d=" M 53 5 L 270 5 L 270 201 L 53 201 L 53 5 Z"/></clipPath><clipPath id="ppPiyAFIPZqQ"><path fill="none" stroke="none" d=" M 53 5 L 270 5 L 270 201 L 53 201 L 53 5 Z"/></clipPath><clipPath id="IdyHgnppxbcb"><path fill="none" stroke="none" d=" M 53 5 L 270 5 L 270 201 L 53 201 L 53 5 Z"/></clipPath></defs><g><g transform="scale(1,1) translate(0.5,0.5)"><rect fill="#FFFFFF" stroke="none" x="0" y="0" width="300" height="250"/><rect fill="#ffffff" stroke="none" x="0" y="0" width="300" height="250"/><rect fill="#FFFFFF" stroke="none" x="53" y="5" width="217" height="196"/><rect fill="#efefef" stroke="none" x="53" y="5" width="217" height="196"/><g><rect fill="none" stroke="#e5e5e5" x="53" y="5" width="217" height="196" stroke-linejoin="bevel" stroke-miterlimit="10"/></g><g clip-path="url(#QKlzlhMfEiWH)"><g><g/></g></g><g clip-path="url(#AVqHOZhhzIAM)"><g><g><path fill="none" stroke="white" paint-order="fill stroke markers" d=" M 53 183 L 270 183" stroke-linejoin="bevel" stroke-miterlimit="10"/><path fill="none" stroke="white" paint-order="fill stroke markers" d=" M 53 158 L 270 158" stroke-linejoin="bevel" stroke-miterlimit="10"/><path fill="none" stroke="white" paint-order="fill stroke markers" d=" M 53 132 L 270 132" stroke-linejoin="bevel" stroke-miterlimit="10"/><path fill="none" stroke="white" paint-order="fill stroke markers" d=" M 53 106 L 270 106" stroke-linejoin="bevel" stroke-miterlimit="10"/><path fill="none" stroke="white" paint-order="fill stroke markers" d=" M 53 80 L 270 80" stroke-linejoin="bevel" stroke-miterlimit="10"/><path fill="none" stroke="white" paint-order="fill stroke markers" d=" M 53 55 L 270 55" stroke-linejoin="bevel" stroke-miterlimit="10"/><path fill="none" stroke="white" paint-order="fill stroke markers" d=" M 53 29 L 270 29" stroke-linejoin="bevel" stroke-miterlimit="10"/></g></g></g><g clip-path="url(#ftICceqUaphg)"><g><g><path fill="none" stroke="none"/><rect fill="#1f77b4" stroke="none" x="100.74000000000001" y="69.04718620672409" width="13.019999999999996" height="0.5146222227778878"/><rect fill="#1f77b4" stroke="none" x="209.23999999999998" y="191.57628686813115" width="13.020000000000039" height="0.5146222227779162"/><path fill="none" stroke="black" paint-order="fill stroke markers" d=" M 100.74000000000001 69.04718620672409 L 113.76 69.04718620672409 L 113.76 69.56180842950198 L 100.74000000000001 69.56180842950198 L 100.74000000000001 69.04718620672409 Z" stroke-linejoin="bevel" stroke-miterlimit="10"/><path fill="none" stroke="black" paint-order="fill stroke markers" d=" M 209.23999999999998 191.57628686813115 L 222.26000000000002 191.57628686813115 L 222.26000000000002 192.09090909090907 L 209.23999999999998 192.09090909090907 L 209.23999999999998 191.57628686813115 Z" stroke-linejoin="bevel" stroke-miterlimit="10"/><path fill="none" stroke="black" paint-order="fill stroke markers" d="" stroke-linejoin="bevel" stroke-miterlimit="10"/></g></g></g><g clip-path="url(#WTdtTbbXfZrB)"><g><g><path fill="none" stroke="none"/><rect fill="#1f77b4" stroke="none" x="100.74000000000001" y="13.909090909090935" width="13.019999999999996" height="0.5146222227778878"/><rect fill="#1f77b4" stroke="none" x="209.23999999999998" y="20.035545942161264" width="13.020000000000039" height="0.5146222227779162"/><path fill="none" stroke="black" paint-order="fill stroke markers" d=" M 100.74000000000001 13.909090909090935 L 113.76 13.909090909090935 L 113.76 14.423713131868823 L 100.74000000000001 14.423713131868823 L 100.74000000000001 13.909090909090935 Z" stroke-linejoin="bevel" stroke-miterlimit="10"/><path fill="none" stroke="black" paint-order="fill stroke markers" d=" M 209.23999999999998 20.035545942161264 L 222.26000000000002 20.035545942161264 L 222.26000000000002 20.55016816493918 L 209.23999999999998 20.55016816493918 L 209.23999999999998 20.035545942161264 Z" stroke-linejoin="bevel" stroke-miterlimit="10"/><path fill="none" stroke="black" paint-order="fill stroke markers" d="" stroke-linejoin="bevel" stroke-miterlimit="10"/></g></g></g><g clip-path="url(#MluxzCJcfVug)"><g><g><path fill="none" stroke="none"/><path fill="none" stroke="black" paint-order="fill stroke markers" d=" M 107.25 69.30449731811302 L 107.25 50.92513221890198" stroke-linejoin="bevel" stroke-miterlimit="10"/><path fill="none" stroke="black" paint-order="fill stroke markers" d=" M 215.75 191.8335979795201 L 215.75 148.94841274802764" stroke-linejoin="bevel" stroke-miterlimit="10"/></g></g></g><g clip-path="url(#kTVadQvGirwz)"><g><g><path fill="none" stroke="none"/><path fill="none" stroke="black" paint-order="fill stroke markers" d=" M 107.25 32.545767119690936 L 107.25 14.166402020479893" stroke-linejoin="bevel" stroke-miterlimit="10"/><path fill="none" stroke="black" paint-order="fill stroke markers" d=" M 215.75 63.17804228504269 L 215.75 20.29285705355022" stroke-linejoin="bevel" stroke-miterlimit="10"/></g></g></g><g clip-path="url(#LtmvtGsKvUPT)"><g><g><path fill="none" stroke="none"/><path fill="#E08E79" stroke="none" paint-order="stroke fill markers" d=" M 88.26249999999999 32.545767119690936 L 126.23750000000001 32.545767119690936 L 126.23750000000001 50.92513221890198 L 88.26249999999999 50.92513221890198 L 88.26249999999999 32.545767119690936 Z"/><path fill="none" stroke="black" paint-order="fill stroke markers" d=" M 88.26249999999999 32.545767119690936 L 126.23750000000001 32.545767119690936 L 126.23750000000001 50.92513221890198 L 88.26249999999999 50.92513221890198 L 88.26249999999999 32.545767119690936 Z" stroke-linejoin="bevel" stroke-miterlimit="10"/><path fill="#E08E79" stroke="none" paint-order="stroke fill markers" d=" M 196.7625 106.06322751653516 L 234.7375 106.06322751653516 L 234.7375 148.94841274802764 L 196.7625 148.94841274802764 L 196.7625 106.06322751653516 Z"/><path fill="none" stroke="black" paint-order="fill stroke markers" d=" M 196.7625 106.06322751653516 L 234.7375 106.06322751653516 L 234.7375 148.94841274802764 L 196.7625 148.94841274802764 L 196.7625 106.06322751653516 Z" stroke-linejoin="bevel" stroke-miterlimit="10"/></g></g></g><g clip-path="url(#ppPiyAFIPZqQ)"><g><g><path fill="none" stroke="none"/><path fill="#3B8686" stroke="none" paint-order="stroke fill markers" d=" M 88.26249999999999 32.545767119690936 L 126.23750000000001 32.545767119690936 L 126.23750000000001 32.545767119690936 L 88.26249999999999 32.545767119690936 L 88.26249999999999 32.545767119690936 Z"/><path fill="none" stroke="black" paint-order="fill stroke markers" d=" M 88.26249999999999 32.545767119690936 L 126.23750000000001 32.545767119690936 L 126.23750000000001 32.545767119690936 L 88.26249999999999 32.545767119690936 L 88.26249999999999 32.545767119690936 Z" stroke-linejoin="bevel" stroke-miterlimit="10"/><path fill="#3B8686" stroke="none" paint-order="stroke fill markers" d=" M 196.7625 106.06322751653516 L 234.7375 106.06322751653516 L 234.7375 63.17804228504269 L 196.7625 63.17804228504269 L 196.7625 106.06322751653516 Z"/><path fill="none" stroke="black" paint-order="fill stroke markers" d=" M 196.7625 106.06322751653516 L 234.7375 106.06322751653516 L 234.7375 63.17804228504269 L 196.7625 63.17804228504269 L 196.7625 106.06322751653516 Z" stroke-linejoin="bevel" stroke-miterlimit="10"/></g></g></g><g/><g/><g><g fill="#444444"><path fill="none" stroke="black" paint-order="fill stroke markers" d=" M 53 201 L 270 201" stroke-linejoin="bevel" stroke-miterlimit="10"/><path fill="none" stroke="black" paint-order="fill stroke markers" d=" M 107 207 L 107 199" stroke-linejoin="bevel" stroke-miterlimit="10"/><path fill="" stroke="black" paint-order="fill stroke markers" d=" M 216 207 L 216 199" stroke-linejoin="bevel" stroke-miterlimit="10"/><g transform="translate(107,212) rotate(0,0,0)"><text fill="" stroke="none" font-family="helvetica" font-size="8pt" font-style="normal" font-weight="normal" text-decoration="normal" x="0" y="0" text-anchor="middle" dominant-baseline="hanging">Train</text><g transform="rotate(0,0,0) translate(-107,-212) translate(216,212) rotate(0,0,0)"><text fill="" stroke="none" font-family="helvetica" font-size="8pt" font-style="normal" font-weight="normal" text-decoration="normal" x="0" y="0" text-anchor="middle" dominant-baseline="hanging">Test</text><g transform="rotate(0,0,0) translate(-216,-212) translate(162,232) rotate(0,0,0)"><text fill="" stroke="none" font-family="helvetica" font-size="10pt" font-style="italic" font-weight="normal" text-decoration="normal" x="0" y="0" text-anchor="middle" dominant-baseline="hanging">conjunto de dados</text><g transform="rotate(0,0,0) translate(-162,-232)"/></g></g></g></g></g><g><g fill="#444444"><path fill="none" stroke="black" paint-order="fill stroke markers" d=" M 53 201 L 53 5" stroke-linejoin="bevel" stroke-miterlimit="10"/><path fill="none" stroke="black" paint-order="fill stroke markers" d=" M 47 183 L 55 183" stroke-linejoin="bevel" stroke-miterlimit="10"/><path fill="none" stroke="black" paint-order="fill stroke markers" d=" M 47 158 L 55 158" stroke-linejoin="bevel" stroke-miterlimit="10"/><path fill="none" stroke="black" paint-order="fill stroke markers" d=" M 47 132 L 55 132" stroke-linejoin="bevel" stroke-miterlimit="10"/><path fill="none" stroke="black" paint-order="fill stroke markers" d=" M 47 106 L 55 106" stroke-linejoin="bevel" stroke-miterlimit="10"/><path fill="none" stroke="black" paint-order="fill stroke markers" d=" M 47 80 L 55 80" stroke-linejoin="bevel" stroke-miterlimit="10"/><path fill="none" stroke="black" paint-order="fill stroke markers" d=" M 47 55 L 55 55" stroke-linejoin="bevel" stroke-miterlimit="10"/><path fill="none" stroke="black" paint-order="fill stroke markers" d=" M 47 29 L 55 29" stroke-linejoin="bevel" stroke-miterlimit="10"/><path fill="none" stroke="black" paint-order="fill stroke markers" d=" M 49 188 L 53 188" stroke-linejoin="bevel" stroke-miterlimit="10"/><path fill="none" stroke="black" paint-order="fill stroke markers" d=" M 49 194 L 53 194" stroke-linejoin="bevel" stroke-miterlimit="10"/><path fill="none" stroke="black" paint-order="fill stroke markers" d=" M 49 199 L 53 199" stroke-linejoin="bevel" stroke-miterlimit="10"/><path fill="none" stroke="black" paint-order="fill stroke markers" d=" M 49 183 L 53 183" stroke-linejoin="bevel" stroke-miterlimit="10"/><path fill="none" stroke="black" paint-order="fill stroke markers" d=" M 49 178 L 53 178" stroke-linejoin="bevel" stroke-miterlimit="10"/><path fill="none" stroke="black" paint-order="fill stroke markers" d=" M 49 173 L 53 173" stroke-linejoin="bevel" stroke-miterlimit="10"/><path fill="none" stroke="black" paint-order="fill stroke markers" d=" M 49 168 L 53 168" stroke-linejoin="bevel" stroke-miterlimit="10"/><path fill="none" stroke="black" paint-order="fill stroke markers" d=" M 49 163 L 53 163" stroke-linejoin="bevel" stroke-miterlimit="10"/><path fill="none" stroke="black" paint-order="fill stroke markers" d=" M 49 158 L 53 158" stroke-linejoin="bevel" stroke-miterlimit="10"/><path fill="none" stroke="black" paint-order="fill stroke markers" d=" M 49 152 L 53 152" stroke-linejoin="bevel" stroke-miterlimit="10"/><path fill="none" stroke="black" paint-order="fill stroke markers" d=" M 49 147 L 53 147" stroke-linejoin="bevel" stroke-miterlimit="10"/><path fill="none" stroke="black" paint-order="fill stroke markers" d=" M 49 142 L 53 142" stroke-linejoin="bevel" stroke-miterlimit="10"/><path fill="none" stroke="black" paint-order="fill stroke markers" d=" M 49 137 L 53 137" stroke-linejoin="bevel" stroke-miterlimit="10"/><path fill="none" stroke="black" paint-order="fill stroke markers" d=" M 49 132 L 53 132" stroke-linejoin="bevel" stroke-miterlimit="10"/><path fill="none" stroke="black" paint-order="fill stroke markers" d=" M 49 127 L 53 127" stroke-linejoin="bevel" stroke-miterlimit="10"/><path fill="none" stroke="black" paint-order="fill stroke markers" d=" M 49 122 L 53 122" stroke-linejoin="bevel" stroke-miterlimit="10"/><path fill="none" stroke="black" paint-order="fill stroke markers" d=" M 49 116 L 53 116" stroke-linejoin="bevel" stroke-miterlimit="10"/><path fill="none" stroke="black" paint-order="fill stroke markers" d=" M 49 111 L 53 111" stroke-linejoin="bevel" stroke-miterlimit="10"/><path fill="none" stroke="black" paint-order="fill stroke markers" d=" M 49 106 L 53 106" stroke-linejoin="bevel" stroke-miterlimit="10"/><path fill="none" stroke="black" paint-order="fill stroke markers" d=" M 49 101 L 53 101" stroke-linejoin="bevel" stroke-miterlimit="10"/><path fill="none" stroke="black" paint-order="fill stroke markers" d=" M 49 96 L 53 96" stroke-linejoin="bevel" stroke-miterlimit="10"/><path fill="none" stroke="black" paint-order="fill stroke markers" d=" M 49 91 L 53 91" stroke-linejoin="bevel" stroke-miterlimit="10"/><path fill="none" stroke="black" paint-order="fill stroke markers" d=" M 49 85 L 53 85" stroke-linejoin="bevel" stroke-miterlimit="10"/><path fill="none" stroke="black" paint-order="fill stroke markers" d=" M 49 80 L 53 80" stroke-linejoin="bevel" stroke-miterlimit="10"/><path fill="none" stroke="black" paint-order="fill stroke markers" d=" M 49 75 L 53 75" stroke-linejoin="bevel" stroke-miterlimit="10"/><path fill="none" stroke="black" paint-order="fill stroke markers" d=" M 49 70 L 53 70" stroke-linejoin="bevel" stroke-miterlimit="10"/><path fill="none" stroke="black" paint-order="fill stroke markers" d=" M 49 65 L 53 65" stroke-linejoin="bevel" stroke-miterlimit="10"/><path fill="none" stroke="black" paint-order="fill stroke markers" d=" M 49 60 L 53 60" stroke-linejoin="bevel" stroke-miterlimit="10"/><path fill="none" stroke="black" paint-order="fill stroke markers" d=" M 49 55 L 53 55" stroke-linejoin="bevel" stroke-miterlimit="10"/><path fill="none" stroke="black" paint-order="fill stroke markers" d=" M 49 49 L 53 49" stroke-linejoin="bevel" stroke-miterlimit="10"/><path fill="none" stroke="black" paint-order="fill stroke markers" d=" M 49 44 L 53 44" stroke-linejoin="bevel" stroke-miterlimit="10"/><path fill="none" stroke="black" paint-order="fill stroke markers" d=" M 49 39 L 53 39" stroke-linejoin="bevel" stroke-miterlimit="10"/><path fill="none" stroke="black" paint-order="fill stroke markers" d=" M 49 34 L 53 34" stroke-linejoin="bevel" stroke-miterlimit="10"/><path fill="none" stroke="black" paint-order="fill stroke markers" d=" M 49 29 L 53 29" stroke-linejoin="bevel" stroke-miterlimit="10"/><path fill="none" stroke="black" paint-order="fill stroke markers" d=" M 49 24 L 53 24" stroke-linejoin="bevel" stroke-miterlimit="10"/><path fill="none" stroke="black" paint-order="fill stroke markers" d=" M 49 19 L 53 19" stroke-linejoin="bevel" stroke-miterlimit="10"/><path fill="none" stroke="black" paint-order="fill stroke markers" d=" M 49 13 L 53 13" stroke-linejoin="bevel" stroke-miterlimit="10"/><path fill="" stroke="black" paint-order="fill stroke markers" d=" M 49 8 L 53 8" stroke-linejoin="bevel" stroke-miterlimit="10"/><g transform="translate(42,183) rotate(0,0,0)"><text fill="" stroke="none" font-family="helvetica" font-size="8pt" font-style="normal" font-weight="normal" text-decoration="normal" x="0" y="0" text-anchor="end" dominant-baseline="central">0.2</text><g transform="rotate(0,0,0) translate(-42,-183) translate(42,158) rotate(0,0,0)"><text fill="" stroke="none" font-family="helvetica" font-size="8pt" font-style="normal" font-weight="normal" text-decoration="normal" x="0" y="0" text-anchor="end" dominant-baseline="central">0.3</text><g transform="rotate(0,0,0) translate(-42,-158) translate(42,132) rotate(0,0,0)"><text fill="" stroke="none" font-family="helvetica" font-size="8pt" font-style="normal" font-weight="normal" text-decoration="normal" x="0" y="0" text-anchor="end" dominant-baseline="central">0.4</text><g transform="rotate(0,0,0) translate(-42,-132) translate(42,106) rotate(0,0,0)"><text fill="" stroke="none" font-family="helvetica" font-size="8pt" font-style="normal" font-weight="normal" text-decoration="normal" x="0" y="0" text-anchor="end" dominant-baseline="central">0.5</text><g transform="rotate(0,0,0) translate(-42,-106) translate(42,80) rotate(0,0,0)"><text fill="" stroke="none" font-family="helvetica" font-size="8pt" font-style="normal" font-weight="normal" text-decoration="normal" x="0" y="0" text-anchor="end" dominant-baseline="central">0.6</text><g transform="rotate(0,0,0) translate(-42,-80) translate(42,55) rotate(0,0,0)"><text fill="" stroke="none" font-family="helvetica" font-size="8pt" font-style="normal" font-weight="normal" text-decoration="normal" x="0" y="0" text-anchor="end" dominant-baseline="central">0.7</text><g transform="rotate(0,0,0) translate(-42,-55) translate(42,29) rotate(0,0,0)"><text fill="" stroke="none" font-family="helvetica" font-size="8pt" font-style="normal" font-weight="normal" text-decoration="normal" x="0" y="0" text-anchor="end" dominant-baseline="central">0.8</text><g transform="rotate(0,0,0) translate(-42,-29) translate(18,103) rotate(-90,0,0)"><text fill="" stroke="none" font-family="helvetica" font-size="10pt" font-style="italic" font-weight="normal" text-decoration="normal" x="0" y="0" text-anchor="middle" dominant-baseline="alphabetic">pontuação recall</text><g transform="rotate(90,0,0) translate(-18,-103)"/></g></g></g></g></g></g></g></g></g></g><g clip-path="url(#IdyHgnppxbcb)"><g/></g></g></g></svg>