<svg version="1.1" xmlns="http://www.w3.org/2000/svg" xmlns:xlink="http://www.w3.org/1999/xlink" width="300" height="250"><defs><clipPath id="HCDhTtGVpuAG"><path fill="none" stroke="none" d="M 53.5 5.5 L 270.5 5.5 L 270.5 198.5 L 53.5 198.5 L 53.5 5.5"/></clipPath><clipPath id="VRFBkKRsFKIp"><path fill="none" stroke="none" d="M 53.5 5.5 L 270.5 5.5 L 270.5 198.5 L 53.5 198.5 L 53.5 5.5"/></clipPath><clipPath id="cIHZVDiRaVVX"><path fill="none" stroke="none" d="M 53.5 5.5 L 270.5 5.5 L 270.5 198.5 L 53.5 198.5 L 53.5 5.5"/></clipPath><clipPath id="dXFTHKUsqyZP"><path fill="none" stroke="none" d="M 53.5 5.5 L 270.5 5.5 L 270.5 198.5 L 53.5 198.5 L 53.5 5.5"/></clipPath><clipPath id="bWNVQXuannxP"><path fill="none" stroke="none" d="M 53.5 5.5 L 270.5 5.5 L 270.5 198.5 L 53.5 198.5 L 53.5 5.5"/></clipPath><clipPath id="AeovTrQmSNKX"><path fill="none" stroke="none" d="M 53.5 5.5 L 270.5 5.5 L 270.5 198.5 L 53.5 198.5 L 53.5 5.5"/></clipPath><clipPath id="SFvTxSPrOfCk"><path fill="none" stroke="none" d="M 53.5 5.5 L 270.5 5.5 L 270.5 198.5 L 53.5 198.5 L 53.5 5.5"/></clipPath><clipPath id="EDaTZTDUQPUG"><path fill="none" stroke="none" d="M 53.5 5.5 L 270.5 5.5 L 270.5 198.5 L 53.5 198.5 L 53.5 5.5"/></clipPath><clipPath id="rwLxnHXkcNOo"><path fill="none" stroke="none" d="M 53.5 5.5 L 270.5 5.5 L 270.5 198.5 L 53.5 198.5 L 53.5 5.5"/></clipPath><clipPath id="AgxFCxSkxJdT"><path fill="none" stroke="none" d="M 53.5 5.5 L 270.5 5.5 L 270.5 198.5 L 53.5 198.5 L 53.5 5.5"/></clipPath><clipPath id="BmdfcTVbrTlR"><path fill="none" stroke="none" d="M 53.5 5.5 L 270.5 5.5 L 270.5 198.5 L 53.5 198.5 L 53.5 5.5"/></clipPath></defs><path fill="rgb(255,255,255)" stroke="none" paint-order="stroke" d="M 0.5 0.5 L 300.5 0.5 L 300.5 250.5 L 0.5 250.5 L 0.5 0.5" fill-opacity="1"/><rect fill="#FFFFFF" stroke="none" x="53" y="5" width="217" height="193" transform="matrix(1, 0, 0, 1, 0.5, 0.5)"/><path fill="rgb(239,239,239)" stroke="none" paint-order="stroke" d="M 53.5 5.5 L 270.5 5.5 L 270.5 198.5 L 53.5 198.5 L 53.5 5.5" fill-opacity="1"/><path fill="none" stroke="rgb(229,229,229)" paint-order="fill" d="M 53.5 5.5 L 270.5 5.5 L 270.5 198.5 L 53.5 198.5 L 53.5 5.5" stroke-opacity="1" stroke-linejoin="bevel" stroke-miterlimit="10" stroke-dasharray=""/><path fill="none" stroke="rgb(255,255,255)" paint-order="fill" d="M 53.5 189.5 L 270.5 189.5 M 53.5 154.5 L 270.5 154.5 M 53.5 119.5 L 270.5 119.5 M 53.5 84.5 L 270.5 84.5 M 53.5 49.5 L 270.5 49.5 M 53.5 14.5 L 270.5 14.5" stroke-opacity="1" stroke-linejoin="bevel" stroke-miterlimit="10" stroke-dasharray="" clip-path="url(#VRFBkKRsFKIp)"/><path fill="none" stroke="none"/><path fill="rgb(31,119,180)" stroke="rgb(0,0,0)" paint-order="fill" d="M 101.23999786376953 83.14022064208984 L 114.2599983215332 83.14022064208984 L 114.2599983215332 83.22792598605156 L 101.23999786376953 83.22792598605156 L 101.23999786376953 83.14022064208984" fill-opacity="1" clip-path="url(#cIHZVDiRaVVX)" stroke-opacity="1" stroke-linejoin="bevel" stroke-miterlimit="10" stroke-dasharray=""/><path fill="rgb(31,119,180)" stroke="rgb(0,0,0)" paint-order="fill" d="M 209.74000549316406 189.6395721435547 L 222.76000595092773 189.6395721435547 L 222.76000595092773 189.7272774875164 L 209.74000549316406 189.7272774875164 L 209.74000549316406 189.6395721435547" fill-opacity="1" clip-path="url(#cIHZVDiRaVVX)" stroke-opacity="1" stroke-linejoin="bevel" stroke-miterlimit="10" stroke-dasharray=""/><path fill="none" stroke="none"/><path fill="rgb(31,119,180)" stroke="rgb(0,0,0)" paint-order="fill" d="M 101.23999786376953 33.02287673950195 L 114.2599983215332 33.02287673950195 L 114.2599983215332 33.11058208346367 L 101.23999786376953 33.11058208346367 L 101.23999786376953 33.02287673950195" fill-opacity="1" clip-path="url(#dXFTHKUsqyZP)" stroke-opacity="1" stroke-linejoin="bevel" stroke-miterlimit="10" stroke-dasharray=""/><path fill="rgb(31,119,180)" stroke="rgb(0,0,0)" paint-order="fill" d="M 209.74000549316406 21.53765296936035 L 222.76000595092773 21.53765296936035 L 222.76000595092773 21.625358313322067 L 209.74000549316406 21.625358313322067 L 209.74000549316406 21.53765296936035" fill-opacity="1" clip-path="url(#dXFTHKUsqyZP)" stroke-opacity="1" stroke-linejoin="bevel" stroke-miterlimit="10" stroke-dasharray=""/><path fill="none" stroke="none"/><path fill="none" stroke="rgb(0,0,0)" paint-order="fill" d="M 107.75 83.18407440185547 L 107.75 64.39006805419922" stroke-opacity="1" stroke-linejoin="bevel" stroke-miterlimit="10" stroke-dasharray="" clip-path="url(#bWNVQXuannxP)"/><path fill="none" stroke="rgb(0,0,0)" paint-order="fill" d="M 216.25 189.6834259033203 L 216.25 131.21319580078125" stroke-opacity="1" stroke-linejoin="bevel" stroke-miterlimit="10" stroke-dasharray="" clip-path="url(#bWNVQXuannxP)"/><path fill="none" stroke="none"/><path fill="none" stroke="rgb(0,0,0)" paint-order="fill" d="M 107.75 51.86073303222656 L 107.75 33.06673049926758" stroke-opacity="1" stroke-linejoin="bevel" stroke-miterlimit="10" stroke-dasharray="" clip-path="url(#AeovTrQmSNKX)"/><path fill="none" stroke="rgb(0,0,0)" paint-order="fill" d="M 216.25 87.36051940917969 L 216.25 21.581506729125977" stroke-opacity="1" stroke-linejoin="bevel" stroke-miterlimit="10" stroke-dasharray="" clip-path="url(#AeovTrQmSNKX)"/><path fill="none" stroke="none"/><path fill="rgb(224,142,121)" stroke="none" paint-order="stroke" d="M 88.76249694824219 64.39006805419922 L 126.73750305175781 64.39006805419922 L 126.73750305175781 64.39006805419922 L 88.76249694824219 64.39006805419922 L 88.76249694824219 64.39006805419922" fill-opacity="1" clip-path="url(#SFvTxSPrOfCk)"/><path fill="none" stroke="rgb(0,0,0)" paint-order="fill" d="M 88.76249694824219 64.39006805419922 L 126.73750305175781 64.39006805419922 L 126.73750305175781 64.39006805419922 L 88.76249694824219 64.39006805419922 L 88.76249694824219 64.39006805419922" stroke-opacity="1" stroke-linejoin="bevel" stroke-miterlimit="10" stroke-dasharray="" clip-path="url(#SFvTxSPrOfCk)"/><path fill="rgb(224,142,121)" stroke="none" paint-order="stroke" d="M 197.2624969482422 101.97807312011719 L 235.2375030517578 101.97807312011719 L 235.2375030517578 131.21319580078125 L 197.2624969482422 131.21319580078125 L 197.2624969482422 101.97807312011719" fill-opacity="1" clip-path="url(#SFvTxSPrOfCk)"/><path fill="none" stroke="rgb(0,0,0)" paint-order="fill" d="M 197.2624969482422 101.97807312011719 L 235.2375030517578 101.97807312011719 L 235.2375030517578 131.21319580078125 L 197.2624969482422 131.21319580078125 L 197.2624969482422 101.97807312011719" stroke-opacity="1" stroke-linejoin="bevel" stroke-miterlimit="10" stroke-dasharray="" clip-path="url(#SFvTxSPrOfCk)"/><path fill="none" stroke="none"/><path fill="rgb(59,134,134)" stroke="none" paint-order="stroke" d="M 88.76249694824219 64.39006805419922 L 126.73750305175781 64.39006805419922 L 126.73750305175781 51.86073303222656 L 88.76249694824219 51.86073303222656 L 88.76249694824219 64.39006805419922" fill-opacity="1" clip-path="url(#EDaTZTDUQPUG)"/><path fill="none" stroke="rgb(0,0,0)" paint-order="fill" d="M 88.76249694824219 64.39006805419922 L 126.73750305175781 64.39006805419922 L 126.73750305175781 51.86073303222656 L 88.76249694824219 51.86073303222656 L 88.76249694824219 64.39006805419922" stroke-opacity="1" stroke-linejoin="bevel" stroke-miterlimit="10" stroke-dasharray="" clip-path="url(#EDaTZTDUQPUG)"/><path fill="rgb(59,134,134)" stroke="none" paint-order="stroke" d="M 197.2624969482422 101.97807312011719 L 235.2375030517578 101.97807312011719 L 235.2375030517578 87.36051940917969 L 197.2624969482422 87.36051940917969 L 197.2624969482422 101.97807312011719" fill-opacity="1" clip-path="url(#EDaTZTDUQPUG)"/><path fill="none" stroke="rgb(0,0,0)" paint-order="fill" d="M 197.2624969482422 101.97807312011719 L 235.2375030517578 101.97807312011719 L 235.2375030517578 87.36051940917969 L 197.2624969482422 87.36051940917969 L 197.2624969482422 101.97807312011719" stroke-opacity="1" stroke-linejoin="bevel" stroke-miterlimit="10" stroke-dasharray="" clip-path="url(#EDaTZTDUQPUG)"/><path fill="none" stroke="none"/><path fill="rgb(255,165,0)" stroke="rgb(255,165,0)" paint-order="fill" d="M 109.75 89.44873809814453 A 2 2 0 1 1 109.74999900000009 89.44673809847787" fill-opacity="1" clip-path="url(#rwLxnHXkcNOo)" stroke-opacity="1" stroke-linejoin="bevel" stroke-miterlimit="10" stroke-width="3" stroke-dasharray=""/><path fill="rgb(255,165,0)" stroke="rgb(255,165,0)" paint-order="fill" d="M 109.75 89.44873809814453 A 2 2 0 1 1 109.74999900000009 89.44673809847787" fill-opacity="1" clip-path="url(#rwLxnHXkcNOo)" stroke-opacity="1" stroke-linejoin="bevel" stroke-miterlimit="10" stroke-width="3" stroke-dasharray=""/><path fill="rgb(255,165,0)" stroke="rgb(255,165,0)" paint-order="fill" d="M 109.75 26.80206298828125 A 2 2 0 1 1 109.74999900000009 26.80006298861458" fill-opacity="1" clip-path="url(#rwLxnHXkcNOo)" stroke-opacity="1" stroke-linejoin="bevel" stroke-miterlimit="10" stroke-width="3" stroke-dasharray=""/><path fill="none" stroke="none"/><path fill="rgb(255,165,0)" stroke="rgb(255,165,0)" paint-order="fill" d="M 218.25 14.272727012634277 A 2 2 0 1 1 218.2499990000001 14.27072701296761" fill-opacity="1" clip-path="url(#AgxFCxSkxJdT)" stroke-opacity="1" stroke-linejoin="bevel" stroke-miterlimit="10" stroke-width="3" stroke-dasharray=""/><path fill="none" stroke="rgb(0,0,0)" paint-order="fill" d="M 53.5 198.5 L 270.5 198.5" stroke-opacity="1" stroke-linejoin="bevel" stroke-miterlimit="10" stroke-dasharray=""/><path fill="none" stroke="rgb(0,0,0)" paint-order="fill" d="M 107.5 204.5 L 107.5 196.5 M 216.5 204.5 L 216.5 196.5" stroke-opacity="1" stroke-linejoin="bevel" stroke-miterlimit="10" stroke-dasharray=""/><path fill="none" stroke="rgb(0,0,0)" paint-order="fill" d="" stroke-opacity="1" stroke-linejoin="bevel" stroke-miterlimit="10" stroke-dasharray=""/><text fill="rgb(68,68,68)" stroke="none" font-family="helvetica" font-size="11px" font-style="normal" font-weight="normal" text-decoration="normal" x="95.24166679382324" y="220" text-anchor="start" dominant-baseline="alphabetic" transform="matrix(1, 0, 0, 1, 0.5, 0.5)" fill-opacity="1">Train</text><text fill="rgb(68,68,68)" stroke="none" font-family="helvetica" font-size="11px" font-style="normal" font-weight="normal" text-decoration="normal" x="205.60833358764648" y="220" text-anchor="start" dominant-baseline="alphabetic" transform="matrix(1, 0, 0, 1, 0.5, 0.5)" fill-opacity="1">Test</text><text fill="rgb(68,68,68)" stroke="none" font-family="helvetica" font-size="13px" font-style="italic" font-weight="normal" text-decoration="normal" x="108.41666793823242" y="244" text-anchor="start" dominant-baseline="alphabetic" transform="matrix(1, 0, 0, 1, 0.5, 0.5)" fill-opacity="1">conjunto de dados</text><path fill="none" stroke="rgb(0,0,0)" paint-order="fill" d="M 53.5 198.5 L 53.5 5.5" stroke-opacity="1" stroke-linejoin="bevel" stroke-miterlimit="10" stroke-dasharray=""/><path fill="none" stroke="rgb(0,0,0)" paint-order="fill" d="M 47.5 189.5 L 55.5 189.5 M 47.5 154.5 L 55.5 154.5 M 47.5 119.5 L 55.5 119.5 M 47.5 84.5 L 55.5 84.5 M 47.5 49.5 L 55.5 49.5 M 47.5 14.5 L 55.5 14.5" stroke-opacity="1" stroke-linejoin="bevel" stroke-miterlimit="10" stroke-dasharray=""/><path fill="none" stroke="rgb(0,0,0)" paint-order="fill" d="M 49.5 196.5 L 53.5 196.5 M 49.5 189.5 L 53.5 189.5 M 49.5 182.5 L 53.5 182.5 M 49.5 175.5 L 53.5 175.5 M 49.5 168.5 L 53.5 168.5 M 49.5 161.5 L 53.5 161.5 M 49.5 154.5 L 53.5 154.5 M 49.5 147.5 L 53.5 147.5 M 49.5 140.5 L 53.5 140.5 M 49.5 133.5 L 53.5 133.5 M 49.5 126.5 L 53.5 126.5 M 49.5 119.5 L 53.5 119.5 M 49.5 112.5 L 53.5 112.5 M 49.5 105.5 L 53.5 105.5 M 49.5 98.5 L 53.5 98.5 M 49.5 91.5 L 53.5 91.5 M 49.5 84.5 L 53.5 84.5 M 49.5 77.5 L 53.5 77.5 M 49.5 70.5 L 53.5 70.5 M 49.5 63.5 L 53.5 63.5 M 49.5 56.5 L 53.5 56.5 M 49.5 49.5 L 53.5 49.5 M 49.5 42.5 L 53.5 42.5 M 49.5 35.5 L 53.5 35.5 M 49.5 28.5 L 53.5 28.5 M 49.5 21.5 L 53.5 21.5 M 49.5 14.5 L 53.5 14.5 M 49.5 7.5 L 53.5 7.5" stroke-opacity="1" stroke-linejoin="bevel" stroke-miterlimit="10" stroke-dasharray=""/><text fill="rgb(68,68,68)" stroke="none" font-family="helvetica" font-size="11px" font-style="normal" font-weight="normal" text-decoration="normal" x="35.88333320617676" y="193.1834259033203" text-anchor="start" dominant-baseline="alphabetic" transform="matrix(1, 0, 0, 1, 0.5, 0.5)" fill-opacity="1">0</text><text fill="rgb(68,68,68)" stroke="none" font-family="helvetica" font-size="11px" font-style="normal" font-weight="normal" text-decoration="normal" x="26.716666221618652" y="158.10128784179688" text-anchor="start" dominant-baseline="alphabetic" transform="matrix(1, 0, 0, 1, 0.5, 0.5)" fill-opacity="1">0.2</text><text fill="rgb(68,68,68)" stroke="none" font-family="helvetica" font-size="11px" font-style="normal" font-weight="normal" text-decoration="normal" x="26.716666221618652" y="123.0191421508789" text-anchor="start" dominant-baseline="alphabetic" transform="matrix(1, 0, 0, 1, 0.5, 0.5)" fill-opacity="1">0.4</text><text fill="rgb(68,68,68)" stroke="none" font-family="helvetica" font-size="11px" font-style="normal" font-weight="normal" text-decoration="normal" x="26.716666221618652" y="87.93700408935547" text-anchor="start" dominant-baseline="alphabetic" transform="matrix(1, 0, 0, 1, 0.5, 0.5)" fill-opacity="1">0.6</text><text fill="rgb(68,68,68)" stroke="none" font-family="helvetica" font-size="11px" font-style="normal" font-weight="normal" text-decoration="normal" x="26.716666221618652" y="52.85486602783203" text-anchor="start" dominant-baseline="alphabetic" transform="matrix(1, 0, 0, 1, 0.5, 0.5)" fill-opacity="1">0.8</text><text fill="rgb(68,68,68)" stroke="none" font-family="helvetica" font-size="11px" font-style="normal" font-weight="normal" text-decoration="normal" x="35.88333320617676" y="17.772727012634277" text-anchor="start" dominant-baseline="alphabetic" transform="matrix(1, 0, 0, 1, 0.5, 0.5)" fill-opacity="1">1</text><text fill="rgb(68,68,68)" stroke="none" font-family="helvetica" font-size="13px" font-style="italic" font-weight="normal" text-decoration="normal" x="-28.84999942779541" y="98.5" text-anchor="start" dominant-baseline="alphabetic" transform="matrix(6.123233995736766e-17, -1, 1, 6.123233995736766e-17, -82.28333377838135, 120.71666622161865)" fill-opacity="1">pontuação recall</text></svg>