<svg version="1.1" xmlns="http://www.w3.org/2000/svg" xmlns:xlink="http://www.w3.org/1999/xlink" width="300" height="250" style="width: 300px; height: 250px;"><defs><clipPath id="PgVOvdXdifnV"><path fill="none" stroke="none" d=" M 61 5 L 270 5 L 270 201 L 61 201 L 61 5 Z"/></clipPath><clipPath id="pCmdtQLogGMH"><path fill="none" stroke="none" d=" M 61 5 L 270 5 L 270 201 L 61 201 L 61 5 Z"/></clipPath><clipPath id="LEfupQmPIexB"><path fill="none" stroke="none" d=" M 61 5 L 270 5 L 270 201 L 61 201 L 61 5 Z"/></clipPath><clipPath id="NfezLQMbBRXN"><path fill="none" stroke="none" d=" M 61 5 L 270 5 L 270 201 L 61 201 L 61 5 Z"/></clipPath><clipPath id="zeSyeSCvSzDb"><path fill="none" stroke="none" d=" M 61 5 L 270 5 L 270 201 L 61 201 L 61 5 Z"/></clipPath><clipPath id="PTzVFkcRWOma"><path fill="none" stroke="none" d=" M 61 5 L 270 5 L 270 201 L 61 201 L 61 5 Z"/></clipPath><clipPath id="mMWCGlsETeiB"><path fill="none" stroke="none" d=" M 61 5 L 270 5 L 270 201 L 61 201 L 61 5 Z"/></clipPath><clipPath id="RcquVuSqossF"><path fill="none" stroke="none" d=" M 61 5 L 270 5 L 270 201 L 61 201 L 61 5 Z"/></clipPath><clipPath id="uTbQqfuUahJF"><path fill="none" stroke="none" d=" M 61 5 L 270 5 L 270 201 L 61 201 L 61 5 Z"/></clipPath><clipPath id="GWSzEFckyqTL"><path fill="none" stroke="none" d=" M 61 5 L 270 5 L 270 201 L 61 201 L 61 5 Z"/></clipPath></defs><g><g transform="scale(1,1) translate(0.5,0.5)"><rect fill="#FFFFFF" stroke="none" x="0" y="0" width="300" height="250"/><rect fill="#ffffff" stroke="none" x="0" y="0" width="300" height="250"/><rect fill="#FFFFFF" stroke="none" x="61" y="5" width="209" height="196"/><rect fill="#efefef" stroke="none" x="61" y="5" width="209" height="196"/><g><rect fill="none" stroke="#e5e5e5" x="61" y="5" width="209" height="196" stroke-linejoin="bevel" stroke-miterlimit="10"/></g><g clip-path="url(#PgVOvdXdifnV)"><g><g/></g></g><g clip-path="url(#pCmdtQLogGMH)"><g><g><path fill="none" stroke="white" paint-order="fill stroke markers" d=" M 61 178 L 270 178" stroke-linejoin="bevel" stroke-miterlimit="10"/><path fill="none" stroke="white" paint-order="fill stroke markers" d=" M 61 137 L 270 137" stroke-linejoin="bevel" stroke-miterlimit="10"/><path fill="none" stroke="white" paint-order="fill stroke markers" d=" M 61 96 L 270 96" stroke-linejoin="bevel" stroke-miterlimit="10"/><path fill="none" stroke="white" paint-order="fill stroke markers" d=" M 61 55 L 270 55" stroke-linejoin="bevel" stroke-miterlimit="10"/><path fill="none" stroke="white" paint-order="fill stroke markers" d=" M 61 14 L 270 14" stroke-linejoin="bevel" stroke-miterlimit="10"/></g></g></g><g clip-path="url(#LEfupQmPIexB)"><g><g><path fill="none" stroke="none"/><rect fill="#1f77b4" stroke="none" x="106.97999999999999" y="37.37851430167984" width="12.54000000000002" height="0.41071490937031285"/><rect fill="#1f77b4" stroke="none" x="211.48" y="174.77243041246106" width="12.54000000000002" height="0.41071490937031285"/><path fill="none" stroke="black" paint-order="fill stroke markers" d=" M 106.97999999999999 37.37851430167984 L 119.52000000000001 37.37851430167984 L 119.52000000000001 37.789229211050156 L 106.97999999999999 37.789229211050156 L 106.97999999999999 37.37851430167984 Z" stroke-linejoin="bevel" stroke-miterlimit="10"/><path fill="none" stroke="black" paint-order="fill stroke markers" d=" M 211.48 174.77243041246106 L 224.02 174.77243041246106 L 224.02 175.18314532183138 L 211.48 175.18314532183138 L 211.48 174.77243041246106 Z" stroke-linejoin="bevel" stroke-miterlimit="10"/><path fill="none" stroke="black" paint-order="fill stroke markers" d="" stroke-linejoin="bevel" stroke-miterlimit="10"/></g></g></g><g clip-path="url(#NfezLQMbBRXN)"><g><g><path fill="none" stroke="none"/><rect fill="#1f77b4" stroke="none" x="106.97999999999999" y="13.909090909090878" width="12.54000000000002" height="0.41071490937019917"/><rect fill="#1f77b4" stroke="none" x="211.48" y="27.59958788810104" width="12.54000000000002" height="0.41071490937031285"/><path fill="none" stroke="black" paint-order="fill stroke markers" d=" M 106.97999999999999 13.909090909090878 L 119.52000000000001 13.909090909090878 L 119.52000000000001 14.319805818461077 L 106.97999999999999 14.319805818461077 L 106.97999999999999 13.909090909090878 Z" stroke-linejoin="bevel" stroke-miterlimit="10"/><path fill="none" stroke="black" paint-order="fill stroke markers" d=" M 211.48 27.59958788810104 L 224.02 27.59958788810104 L 224.02 28.010302797471354 L 211.48 28.010302797471354 L 211.48 27.59958788810104 Z" stroke-linejoin="bevel" stroke-miterlimit="10"/><path fill="none" stroke="black" paint-order="fill stroke markers" d="" stroke-linejoin="bevel" stroke-miterlimit="10"/></g></g></g><g clip-path="url(#zeSyeSCvSzDb)"><g><g><path fill="none" stroke="none"/><path fill="none" stroke="black" paint-order="fill stroke markers" d=" M 113.25 37.58387175636494 L 113.25 31.716515908217616" stroke-linejoin="bevel" stroke-miterlimit="10"/><path fill="none" stroke="black" paint-order="fill stroke markers" d=" M 217.75 174.97778786714628 L 217.75 103.10267872734244" stroke-linejoin="bevel" stroke-miterlimit="10"/></g></g></g><g clip-path="url(#PTzVFkcRWOma)"><g><g><path fill="none" stroke="none"/><path fill="none" stroke="black" paint-order="fill stroke markers" d=" M 113.25 19.98180421192319 L 113.25 14.114448363775978" stroke-linejoin="bevel" stroke-miterlimit="10"/><path fill="none" stroke="black" paint-order="fill stroke markers" d=" M 217.75 55.185939300806695 L 217.75 27.80494534278614" stroke-linejoin="bevel" stroke-miterlimit="10"/></g></g></g><g clip-path="url(#mMWCGlsETeiB)"><g><g><path fill="none" stroke="none"/><path fill="#E08E79" stroke="none" paint-order="stroke fill markers" d=" M 94.96249999999999 25.849160060070403 L 131.53750000000002 25.849160060070403 L 131.53750000000002 31.716515908217616 L 94.96249999999999 31.716515908217616 L 94.96249999999999 25.849160060070403 Z"/><path fill="none" stroke="black" paint-order="fill stroke markers" d=" M 94.96249999999999 25.849160060070403 L 131.53750000000002 25.849160060070403 L 131.53750000000002 31.716515908217616 L 94.96249999999999 31.716515908217616 L 94.96249999999999 25.849160060070403 Z" stroke-linejoin="bevel" stroke-miterlimit="10"/><path fill="#E08E79" stroke="none" paint-order="stroke fill markers" d=" M 199.4625 75.721684769322 L 236.0375 75.721684769322 L 236.0375 103.10267872734244 L 199.4625 103.10267872734244 L 199.4625 75.721684769322 Z"/><path fill="none" stroke="black" paint-order="fill stroke markers" d=" M 199.4625 75.721684769322 L 236.0375 75.721684769322 L 236.0375 103.10267872734244 L 199.4625 103.10267872734244 L 199.4625 75.721684769322 Z" stroke-linejoin="bevel" stroke-miterlimit="10"/></g></g></g><g clip-path="url(#RcquVuSqossF)"><g><g><path fill="none" stroke="none"/><path fill="#3B8686" stroke="none" paint-order="stroke fill markers" d=" M 94.96249999999999 25.849160060070403 L 131.53750000000002 25.849160060070403 L 131.53750000000002 19.98180421192319 L 94.96249999999999 19.98180421192319 L 94.96249999999999 25.849160060070403 Z"/><path fill="none" stroke="black" paint-order="fill stroke markers" d=" M 94.96249999999999 25.849160060070403 L 131.53750000000002 25.849160060070403 L 131.53750000000002 19.98180421192319 L 94.96249999999999 19.98180421192319 L 94.96249999999999 25.849160060070403 Z" stroke-linejoin="bevel" stroke-miterlimit="10"/><path fill="#3B8686" stroke="none" paint-order="stroke fill markers" d=" M 199.4625 75.721684769322 L 236.0375 75.721684769322 L 236.0375 55.185939300806695 L 199.4625 55.185939300806695 L 199.4625 75.721684769322 Z"/><path fill="none" stroke="black" paint-order="fill stroke markers" d=" M 199.4625 75.721684769322 L 236.0375 75.721684769322 L 236.0375 55.185939300806695 L 199.4625 55.185939300806695 L 199.4625 75.721684769322 Z" stroke-linejoin="bevel" stroke-miterlimit="10"/></g></g></g><g clip-path="url(#uTbQqfuUahJF)"><g><g><path fill="none" stroke="none"/><path fill="orange" stroke="orange" paint-order="fill stroke markers" d=" M 219.75 192.09090909090912 A 2 2 0 1 1 219.7499990000001 192.08890909124244" stroke-linejoin="bevel" stroke-miterlimit="10" stroke-width="3"/></g></g></g><g/><g/><g><g fill="#444444"><path fill="none" stroke="black" paint-order="fill stroke markers" d=" M 61 201 L 270 201" stroke-linejoin="bevel" stroke-miterlimit="10"/><path fill="none" stroke="black" paint-order="fill stroke markers" d=" M 113 207 L 113 199" stroke-linejoin="bevel" stroke-miterlimit="10"/><path fill="" stroke="black" paint-order="fill stroke markers" d=" M 218 207 L 218 199" stroke-linejoin="bevel" stroke-miterlimit="10"/><g transform="translate(113,212) rotate(0,0,0)"><text fill="" stroke="none" font-family="helvetica" font-size="8pt" font-style="normal" font-weight="normal" text-decoration="normal" x="0" y="0" text-anchor="middle" dominant-baseline="hanging">Train</text><g transform="rotate(0,0,0) translate(-113,-212) translate(218,212) rotate(0,0,0)"><text fill="" stroke="none" font-family="helvetica" font-size="8pt" font-style="normal" font-weight="normal" text-decoration="normal" x="0" y="0" text-anchor="middle" dominant-baseline="hanging">Test</text><g transform="rotate(0,0,0) translate(-218,-212) translate(166,232) rotate(0,0,0)"><text fill="" stroke="none" font-family="helvetica" font-size="10pt" font-style="italic" font-weight="normal" text-decoration="normal" x="0" y="0" text-anchor="middle" dominant-baseline="hanging">conjunto de dados</text><g transform="rotate(0,0,0) translate(-166,-232)"/></g></g></g></g></g><g><g fill="#444444"><path fill="none" stroke="black" paint-order="fill stroke markers" d=" M 61 201 L 61 5" stroke-linejoin="bevel" stroke-miterlimit="10"/><path fill="none" stroke="black" paint-order="fill stroke markers" d=" M 55 178 L 63 178" stroke-linejoin="bevel" stroke-miterlimit="10"/><path fill="none" stroke="black" paint-order="fill stroke markers" d=" M 55 137 L 63 137" stroke-linejoin="bevel" stroke-miterlimit="10"/><path fill="none" stroke="black" paint-order="fill stroke markers" d=" M 55 96 L 63 96" stroke-linejoin="bevel" stroke-miterlimit="10"/><path fill="none" stroke="black" paint-order="fill stroke markers" d=" M 55 55 L 63 55" stroke-linejoin="bevel" stroke-miterlimit="10"/><path fill="none" stroke="black" paint-order="fill stroke markers" d=" M 55 14 L 63 14" stroke-linejoin="bevel" stroke-miterlimit="10"/><path fill="none" stroke="black" paint-order="fill stroke markers" d=" M 57 187 L 61 187" stroke-linejoin="bevel" stroke-miterlimit="10"/><path fill="none" stroke="black" paint-order="fill stroke markers" d=" M 57 195 L 61 195" stroke-linejoin="bevel" stroke-miterlimit="10"/><path fill="none" stroke="black" paint-order="fill stroke markers" d=" M 57 178 L 61 178" stroke-linejoin="bevel" stroke-miterlimit="10"/><path fill="none" stroke="black" paint-order="fill stroke markers" d=" M 57 170 L 61 170" stroke-linejoin="bevel" stroke-miterlimit="10"/><path fill="none" stroke="black" paint-order="fill stroke markers" d=" M 57 162 L 61 162" stroke-linejoin="bevel" stroke-miterlimit="10"/><path fill="none" stroke="black" paint-order="fill stroke markers" d=" M 57 154 L 61 154" stroke-linejoin="bevel" stroke-miterlimit="10"/><path fill="none" stroke="black" paint-order="fill stroke markers" d=" M 57 146 L 61 146" stroke-linejoin="bevel" stroke-miterlimit="10"/><path fill="none" stroke="black" paint-order="fill stroke markers" d=" M 57 137 L 61 137" stroke-linejoin="bevel" stroke-miterlimit="10"/><path fill="none" stroke="black" paint-order="fill stroke markers" d=" M 57 129 L 61 129" stroke-linejoin="bevel" stroke-miterlimit="10"/><path fill="none" stroke="black" paint-order="fill stroke markers" d=" M 57 121 L 61 121" stroke-linejoin="bevel" stroke-miterlimit="10"/><path fill="none" stroke="black" paint-order="fill stroke markers" d=" M 57 113 L 61 113" stroke-linejoin="bevel" stroke-miterlimit="10"/><path fill="none" stroke="black" paint-order="fill stroke markers" d=" M 57 104 L 61 104" stroke-linejoin="bevel" stroke-miterlimit="10"/><path fill="none" stroke="black" paint-order="fill stroke markers" d=" M 57 96 L 61 96" stroke-linejoin="bevel" stroke-miterlimit="10"/><path fill="none" stroke="black" paint-order="fill stroke markers" d=" M 57 88 L 61 88" stroke-linejoin="bevel" stroke-miterlimit="10"/><path fill="none" stroke="black" paint-order="fill stroke markers" d=" M 57 80 L 61 80" stroke-linejoin="bevel" stroke-miterlimit="10"/><path fill="none" stroke="black" paint-order="fill stroke markers" d=" M 57 72 L 61 72" stroke-linejoin="bevel" stroke-miterlimit="10"/><path fill="none" stroke="black" paint-order="fill stroke markers" d=" M 57 63 L 61 63" stroke-linejoin="bevel" stroke-miterlimit="10"/><path fill="none" stroke="black" paint-order="fill stroke markers" d=" M 57 55 L 61 55" stroke-linejoin="bevel" stroke-miterlimit="10"/><path fill="none" stroke="black" paint-order="fill stroke markers" d=" M 57 47 L 61 47" stroke-linejoin="bevel" stroke-miterlimit="10"/><path fill="none" stroke="black" paint-order="fill stroke markers" d=" M 57 39 L 61 39" stroke-linejoin="bevel" stroke-miterlimit="10"/><path fill="none" stroke="black" paint-order="fill stroke markers" d=" M 57 31 L 61 31" stroke-linejoin="bevel" stroke-miterlimit="10"/><path fill="none" stroke="black" paint-order="fill stroke markers" d=" M 57 22 L 61 22" stroke-linejoin="bevel" stroke-miterlimit="10"/><path fill="none" stroke="black" paint-order="fill stroke markers" d=" M 57 14 L 61 14" stroke-linejoin="bevel" stroke-miterlimit="10"/><path fill="" stroke="black" paint-order="fill stroke markers" d=" M 57 6 L 61 6" stroke-linejoin="bevel" stroke-miterlimit="10"/><g transform="translate(50,178) rotate(0,0,0)"><text fill="" stroke="none" font-family="helvetica" font-size="8pt" font-style="normal" font-weight="normal" text-decoration="normal" x="0" y="0" text-anchor="end" dominant-baseline="central">0.75</text><g transform="rotate(0,0,0) translate(-50,-178) translate(50,137) rotate(0,0,0)"><text fill="" stroke="none" font-family="helvetica" font-size="8pt" font-style="normal" font-weight="normal" text-decoration="normal" x="0" y="0" text-anchor="end" dominant-baseline="central">0.8</text><g transform="rotate(0,0,0) translate(-50,-137) translate(50,96) rotate(0,0,0)"><text fill="" stroke="none" font-family="helvetica" font-size="8pt" font-style="normal" font-weight="normal" text-decoration="normal" x="0" y="0" text-anchor="end" dominant-baseline="central">0.85</text><g transform="rotate(0,0,0) translate(-50,-96) translate(50,55) rotate(0,0,0)"><text fill="" stroke="none" font-family="helvetica" font-size="8pt" font-style="normal" font-weight="normal" text-decoration="normal" x="0" y="0" text-anchor="end" dominant-baseline="central">0.9</text><g transform="rotate(0,0,0) translate(-50,-55) translate(50,14) rotate(0,0,0)"><text fill="" stroke="none" font-family="helvetica" font-size="8pt" font-style="normal" font-weight="normal" text-decoration="normal" x="0" y="0" text-anchor="end" dominant-baseline="central">0.95</text><g transform="rotate(0,0,0) translate(-50,-14) translate(18,103) rotate(-90,0,0)"><text fill="" stroke="none" font-family="helvetica" font-size="10pt" font-style="italic" font-weight="normal" text-decoration="normal" x="0" y="0" text-anchor="middle" dominant-baseline="alphabetic">pontuação recall</text><g transform="rotate(90,0,0) translate(-18,-103)"/></g></g></g></g></g></g></g></g><g clip-path="url(#GWSzEFckyqTL)"><g/></g></g></g></svg>