<svg version="1.1" xmlns="http://www.w3.org/2000/svg" xmlns:xlink="http://www.w3.org/1999/xlink" width="300" height="250" style="width: 300px; height: 250px;"><defs><clipPath id="AATndDbbBXJv"><path fill="none" stroke="none" d=" M 53 5 L 270 5 L 270 201 L 53 201 L 53 5 Z"/></clipPath><clipPath id="KGMEenPsewcG"><path fill="none" stroke="none" d=" M 53 5 L 270 5 L 270 201 L 53 201 L 53 5 Z"/></clipPath><clipPath id="bdARlUonhKGQ"><path fill="none" stroke="none" d=" M 53 5 L 270 5 L 270 201 L 53 201 L 53 5 Z"/></clipPath><clipPath id="FWxcfQOWtxeM"><path fill="none" stroke="none" d=" M 53 5 L 270 5 L 270 201 L 53 201 L 53 5 Z"/></clipPath><clipPath id="HeCPDrbtMIlm"><path fill="none" stroke="none" d=" M 53 5 L 270 5 L 270 201 L 53 201 L 53 5 Z"/></clipPath><clipPath id="lRZNdvtramcu"><path fill="none" stroke="none" d=" M 53 5 L 270 5 L 270 201 L 53 201 L 53 5 Z"/></clipPath><clipPath id="vdSrzOuZpIHB"><path fill="none" stroke="none" d=" M 53 5 L 270 5 L 270 201 L 53 201 L 53 5 Z"/></clipPath><clipPath id="GOvbxilVHepT"><path fill="none" stroke="none" d=" M 53 5 L 270 5 L 270 201 L 53 201 L 53 5 Z"/></clipPath><clipPath id="agrtKKPByVAq"><path fill="none" stroke="none" d=" M 53 5 L 270 5 L 270 201 L 53 201 L 53 5 Z"/></clipPath><clipPath id="UcTvmATxSrop"><path fill="none" stroke="none" d=" M 53 5 L 270 5 L 270 201 L 53 201 L 53 5 Z"/></clipPath></defs><g><g transform="scale(1,1) translate(0.5,0.5)"><rect fill="#FFFFFF" stroke="none" x="0" y="0" width="300" height="250"/><rect fill="#ffffff" stroke="none" x="0" y="0" width="300" height="250"/><rect fill="#FFFFFF" stroke="none" x="53" y="5" width="217" height="196"/><rect fill="#efefef" stroke="none" x="53" y="5" width="217" height="196"/><g><rect fill="none" stroke="#e5e5e5" x="53" y="5" width="217" height="196" stroke-linejoin="bevel" stroke-miterlimit="10"/></g><g clip-path="url(#AATndDbbBXJv)"><g><g/></g></g><g clip-path="url(#KGMEenPsewcG)"><g><g><path fill="none" stroke="white" paint-order="fill stroke markers" d=" M 53 192 L 270 192" stroke-linejoin="bevel" stroke-miterlimit="10"/><path fill="none" stroke="white" paint-order="fill stroke markers" d=" M 53 149 L 270 149" stroke-linejoin="bevel" stroke-miterlimit="10"/><path fill="none" stroke="white" paint-order="fill stroke markers" d=" M 53 107 L 270 107" stroke-linejoin="bevel" stroke-miterlimit="10"/><path fill="none" stroke="white" paint-order="fill stroke markers" d=" M 53 64 L 270 64" stroke-linejoin="bevel" stroke-miterlimit="10"/><path fill="none" stroke="white" paint-order="fill stroke markers" d=" M 53 21 L 270 21" stroke-linejoin="bevel" stroke-miterlimit="10"/></g></g></g><g clip-path="url(#bdARlUonhKGQ)"><g><g><path fill="none" stroke="none"/><rect fill="#1f77b4" stroke="none" x="100.74000000000001" y="69.77501269680039" width="13.019999999999996" height="0.4266124936516036"/><rect fill="#1f77b4" stroke="none" x="209.23999999999998" y="191.66429659725748" width="13.020000000000039" height="0.4266124936515894"/><path fill="none" stroke="black" paint-order="fill stroke markers" d=" M 100.74000000000001 69.77501269680039 L 113.76 69.77501269680039 L 113.76 70.20162519045199 L 100.74000000000001 70.20162519045199 L 100.74000000000001 69.77501269680039 Z" stroke-linejoin="bevel" stroke-miterlimit="10"/><path fill="none" stroke="black" paint-order="fill stroke markers" d=" M 209.23999999999998 191.66429659725748 L 222.26000000000002 191.66429659725748 L 222.26000000000002 192.09090909090907 L 209.23999999999998 192.09090909090907 L 209.23999999999998 191.66429659725748 Z" stroke-linejoin="bevel" stroke-miterlimit="10"/><path fill="none" stroke="black" paint-order="fill stroke markers" d="" stroke-linejoin="bevel" stroke-miterlimit="10"/></g></g></g><g clip-path="url(#FWxcfQOWtxeM)"><g><g><path fill="none" stroke="none"/><rect fill="#1f77b4" stroke="none" x="100.74000000000001" y="24.066531234129002" width="13.019999999999996" height="0.4266124936516178"/><rect fill="#1f77b4" stroke="none" x="209.23999999999998" y="13.909090909090907" width="13.020000000000039" height="0.4266124936516178"/><path fill="none" stroke="black" paint-order="fill stroke markers" d=" M 100.74000000000001 24.066531234129002 L 113.76 24.066531234129002 L 113.76 24.49314372778062 L 100.74000000000001 24.49314372778062 L 100.74000000000001 24.066531234129002 Z" stroke-linejoin="bevel" stroke-miterlimit="10"/><path fill="none" stroke="black" paint-order="fill stroke markers" d=" M 209.23999999999998 13.909090909090907 L 222.26000000000002 13.909090909090907 L 222.26000000000002 14.335703402742524 L 209.23999999999998 14.335703402742524 L 209.23999999999998 13.909090909090907 Z" stroke-linejoin="bevel" stroke-miterlimit="10"/><path fill="none" stroke="black" paint-order="fill stroke markers" d="" stroke-linejoin="bevel" stroke-miterlimit="10"/></g></g></g><g clip-path="url(#HeCPDrbtMIlm)"><g><g><path fill="none" stroke="none"/><path fill="none" stroke="black" paint-order="fill stroke markers" d=" M 107.25 69.9883189436262 L 107.25 47.13407821229049" stroke-linejoin="bevel" stroke-miterlimit="10"/><path fill="none" stroke="black" paint-order="fill stroke markers" d=" M 215.75 191.87760284408327 L 215.75 156.32656170644998" stroke-linejoin="bevel" stroke-miterlimit="10"/></g></g></g><g clip-path="url(#lRZNdvtramcu)"><g><g><path fill="none" stroke="none"/><path fill="none" stroke="black" paint-order="fill stroke markers" d=" M 107.25 31.89791772473339 L 107.25 24.279837480954825" stroke-linejoin="bevel" stroke-miterlimit="10"/><path fill="none" stroke="black" paint-order="fill stroke markers" d=" M 215.75 67.4489588623667 L 215.75 14.122397155916701" stroke-linejoin="bevel" stroke-miterlimit="10"/></g></g></g><g clip-path="url(#vdSrzOuZpIHB)"><g><g><path fill="none" stroke="none"/><path fill="#E08E79" stroke="none" paint-order="stroke fill markers" d=" M 88.26249999999999 39.515997968511925 L 126.23750000000001 39.515997968511925 L 126.23750000000001 47.13407821229049 L 88.26249999999999 47.13407821229049 L 88.26249999999999 39.515997968511925 Z"/><path fill="none" stroke="black" paint-order="fill stroke markers" d=" M 88.26249999999999 39.515997968511925 L 126.23750000000001 39.515997968511925 L 126.23750000000001 47.13407821229049 L 88.26249999999999 47.13407821229049 L 88.26249999999999 39.515997968511925 Z" stroke-linejoin="bevel" stroke-miterlimit="10"/><path fill="#E08E79" stroke="none" paint-order="stroke fill markers" d=" M 196.7625 103 L 234.7375 103 L 234.7375 156.32656170644998 L 196.7625 156.32656170644998 L 196.7625 103 Z"/><path fill="none" stroke="black" paint-order="fill stroke markers" d=" M 196.7625 103 L 234.7375 103 L 234.7375 156.32656170644998 L 196.7625 156.32656170644998 L 196.7625 103 Z" stroke-linejoin="bevel" stroke-miterlimit="10"/></g></g></g><g clip-path="url(#GOvbxilVHepT)"><g><g><path fill="none" stroke="none"/><path fill="#3B8686" stroke="none" paint-order="stroke fill markers" d=" M 88.26249999999999 39.515997968511925 L 126.23750000000001 39.515997968511925 L 126.23750000000001 31.89791772473339 L 88.26249999999999 31.89791772473339 L 88.26249999999999 39.515997968511925 Z"/><path fill="none" stroke="black" paint-order="fill stroke markers" d=" M 88.26249999999999 39.515997968511925 L 126.23750000000001 39.515997968511925 L 126.23750000000001 31.89791772473339 L 88.26249999999999 31.89791772473339 L 88.26249999999999 39.515997968511925 Z" stroke-linejoin="bevel" stroke-miterlimit="10"/><path fill="#3B8686" stroke="none" paint-order="stroke fill markers" d=" M 196.7625 103 L 234.7375 103 L 234.7375 67.4489588623667 L 196.7625 67.4489588623667 L 196.7625 103 Z"/><path fill="none" stroke="black" paint-order="fill stroke markers" d=" M 196.7625 103 L 234.7375 103 L 234.7375 67.4489588623667 L 196.7625 67.4489588623667 L 196.7625 103 Z" stroke-linejoin="bevel" stroke-miterlimit="10"/></g></g></g><g clip-path="url(#agrtKKPByVAq)"><g><g><path fill="none" stroke="none"/><path fill="orange" stroke="orange" paint-order="fill stroke markers" d=" M 109.25 69.98831894362621 A 2 2 0 1 1 109.24999900000009 69.98631894395955" stroke-linejoin="bevel" stroke-miterlimit="10" stroke-width="3"/></g></g></g><g/><g/><g><g fill="#444444"><path fill="none" stroke="black" paint-order="fill stroke markers" d=" M 53 201 L 270 201" stroke-linejoin="bevel" stroke-miterlimit="10"/><path fill="none" stroke="black" paint-order="fill stroke markers" d=" M 107 207 L 107 199" stroke-linejoin="bevel" stroke-miterlimit="10"/><path fill="" stroke="black" paint-order="fill stroke markers" d=" M 216 207 L 216 199" stroke-linejoin="bevel" stroke-miterlimit="10"/><g transform="translate(107,212) rotate(0,0,0)"><text fill="" stroke="none" font-family="helvetica" font-size="8pt" font-style="normal" font-weight="normal" text-decoration="normal" x="0" y="0" text-anchor="middle" dominant-baseline="hanging">Train</text><g transform="rotate(0,0,0) translate(-107,-212) translate(216,212) rotate(0,0,0)"><text fill="" stroke="none" font-family="helvetica" font-size="8pt" font-style="normal" font-weight="normal" text-decoration="normal" x="0" y="0" text-anchor="middle" dominant-baseline="hanging">Test</text><g transform="rotate(0,0,0) translate(-216,-212) translate(162,232) rotate(0,0,0)"><text fill="" stroke="none" font-family="helvetica" font-size="10pt" font-style="italic" font-weight="normal" text-decoration="normal" x="0" y="0" text-anchor="middle" dominant-baseline="hanging">conjunto de dados</text><g transform="rotate(0,0,0) translate(-162,-232)"/></g></g></g></g></g><g><g fill="#444444"><path fill="none" stroke="black" paint-order="fill stroke markers" d=" M 53 201 L 53 5" stroke-linejoin="bevel" stroke-miterlimit="10"/><path fill="none" stroke="black" paint-order="fill stroke markers" d=" M 47 192 L 55 192" stroke-linejoin="bevel" stroke-miterlimit="10"/><path fill="none" stroke="black" paint-order="fill stroke markers" d=" M 47 149 L 55 149" stroke-linejoin="bevel" stroke-miterlimit="10"/><path fill="none" stroke="black" paint-order="fill stroke markers" d=" M 47 107 L 55 107" stroke-linejoin="bevel" stroke-miterlimit="10"/><path fill="none" stroke="black" paint-order="fill stroke markers" d=" M 47 64 L 55 64" stroke-linejoin="bevel" stroke-miterlimit="10"/><path fill="none" stroke="black" paint-order="fill stroke markers" d=" M 47 21 L 55 21" stroke-linejoin="bevel" stroke-miterlimit="10"/><path fill="none" stroke="black" paint-order="fill stroke markers" d=" M 49 200 L 53 200" stroke-linejoin="bevel" stroke-miterlimit="10"/><path fill="none" stroke="black" paint-order="fill stroke markers" d=" M 49 192 L 53 192" stroke-linejoin="bevel" stroke-miterlimit="10"/><path fill="none" stroke="black" paint-order="fill stroke markers" d=" M 49 183 L 53 183" stroke-linejoin="bevel" stroke-miterlimit="10"/><path fill="none" stroke="black" paint-order="fill stroke markers" d=" M 49 175 L 53 175" stroke-linejoin="bevel" stroke-miterlimit="10"/><path fill="none" stroke="black" paint-order="fill stroke markers" d=" M 49 166 L 53 166" stroke-linejoin="bevel" stroke-miterlimit="10"/><path fill="none" stroke="black" paint-order="fill stroke markers" d=" M 49 158 L 53 158" stroke-linejoin="bevel" stroke-miterlimit="10"/><path fill="none" stroke="black" paint-order="fill stroke markers" d=" M 49 149 L 53 149" stroke-linejoin="bevel" stroke-miterlimit="10"/><path fill="none" stroke="black" paint-order="fill stroke markers" d=" M 49 141 L 53 141" stroke-linejoin="bevel" stroke-miterlimit="10"/><path fill="none" stroke="black" paint-order="fill stroke markers" d=" M 49 132 L 53 132" stroke-linejoin="bevel" stroke-miterlimit="10"/><path fill="none" stroke="black" paint-order="fill stroke markers" d=" M 49 124 L 53 124" stroke-linejoin="bevel" stroke-miterlimit="10"/><path fill="none" stroke="black" paint-order="fill stroke markers" d=" M 49 115 L 53 115" stroke-linejoin="bevel" stroke-miterlimit="10"/><path fill="none" stroke="black" paint-order="fill stroke markers" d=" M 49 107 L 53 107" stroke-linejoin="bevel" stroke-miterlimit="10"/><path fill="none" stroke="black" paint-order="fill stroke markers" d=" M 49 98 L 53 98" stroke-linejoin="bevel" stroke-miterlimit="10"/><path fill="none" stroke="black" paint-order="fill stroke markers" d=" M 49 89 L 53 89" stroke-linejoin="bevel" stroke-miterlimit="10"/><path fill="none" stroke="black" paint-order="fill stroke markers" d=" M 49 81 L 53 81" stroke-linejoin="bevel" stroke-miterlimit="10"/><path fill="none" stroke="black" paint-order="fill stroke markers" d=" M 49 72 L 53 72" stroke-linejoin="bevel" stroke-miterlimit="10"/><path fill="none" stroke="black" paint-order="fill stroke markers" d=" M 49 64 L 53 64" stroke-linejoin="bevel" stroke-miterlimit="10"/><path fill="none" stroke="black" paint-order="fill stroke markers" d=" M 49 55 L 53 55" stroke-linejoin="bevel" stroke-miterlimit="10"/><path fill="none" stroke="black" paint-order="fill stroke markers" d=" M 49 47 L 53 47" stroke-linejoin="bevel" stroke-miterlimit="10"/><path fill="none" stroke="black" paint-order="fill stroke markers" d=" M 49 38 L 53 38" stroke-linejoin="bevel" stroke-miterlimit="10"/><path fill="none" stroke="black" paint-order="fill stroke markers" d=" M 49 30 L 53 30" stroke-linejoin="bevel" stroke-miterlimit="10"/><path fill="none" stroke="black" paint-order="fill stroke markers" d=" M 49 21 L 53 21" stroke-linejoin="bevel" stroke-miterlimit="10"/><path fill="" stroke="black" paint-order="fill stroke markers" d=" M 49 13 L 53 13" stroke-linejoin="bevel" stroke-miterlimit="10"/><g transform="translate(42,192) rotate(0,0,0)"><text fill="" stroke="none" font-family="helvetica" font-size="8pt" font-style="normal" font-weight="normal" text-decoration="normal" x="0" y="0" text-anchor="end" dominant-baseline="central">0</text><g transform="rotate(0,0,0) translate(-42,-192) translate(42,149) rotate(0,0,0)"><text fill="" stroke="none" font-family="helvetica" font-size="8pt" font-style="normal" font-weight="normal" text-decoration="normal" x="0" y="0" text-anchor="end" dominant-baseline="central">0.2</text><g transform="rotate(0,0,0) translate(-42,-149) translate(42,107) rotate(0,0,0)"><text fill="" stroke="none" font-family="helvetica" font-size="8pt" font-style="normal" font-weight="normal" text-decoration="normal" x="0" y="0" text-anchor="end" dominant-baseline="central">0.4</text><g transform="rotate(0,0,0) translate(-42,-107) translate(42,64) rotate(0,0,0)"><text fill="" stroke="none" font-family="helvetica" font-size="8pt" font-style="normal" font-weight="normal" text-decoration="normal" x="0" y="0" text-anchor="end" dominant-baseline="central">0.6</text><g transform="rotate(0,0,0) translate(-42,-64) translate(42,21) rotate(0,0,0)"><text fill="" stroke="none" font-family="helvetica" font-size="8pt" font-style="normal" font-weight="normal" text-decoration="normal" x="0" y="0" text-anchor="end" dominant-baseline="central">0.8</text><g transform="rotate(0,0,0) translate(-42,-21) translate(18,103) rotate(-90,0,0)"><text fill="" stroke="none" font-family="helvetica" font-size="10pt" font-style="italic" font-weight="normal" text-decoration="normal" x="0" y="0" text-anchor="middle" dominant-baseline="alphabetic">pontuação recall</text><g transform="rotate(90,0,0) translate(-18,-103)"/></g></g></g></g></g></g></g></g><g clip-path="url(#UcTvmATxSrop)"><g/></g></g></g></svg>