<svg version="1.1" xmlns="http://www.w3.org/2000/svg" xmlns:xlink="http://www.w3.org/1999/xlink" width="300" height="250" style="width: 300px; height: 250px;"><defs><clipPath id="VQDyWBvkVpXO"><path fill="none" stroke="none" d=" M 53 5 L 270 5 L 270 201 L 53 201 L 53 5 Z"/></clipPath><clipPath id="gcHzCWpmmeaa"><path fill="none" stroke="none" d=" M 53 5 L 270 5 L 270 201 L 53 201 L 53 5 Z"/></clipPath><clipPath id="ERelVlonmtXc"><path fill="none" stroke="none" d=" M 53 5 L 270 5 L 270 201 L 53 201 L 53 5 Z"/></clipPath><clipPath id="tmfExAffcITd"><path fill="none" stroke="none" d=" M 53 5 L 270 5 L 270 201 L 53 201 L 53 5 Z"/></clipPath><clipPath id="QxGcMASTBzMT"><path fill="none" stroke="none" d=" M 53 5 L 270 5 L 270 201 L 53 201 L 53 5 Z"/></clipPath><clipPath id="KuNSGpNrDCev"><path fill="none" stroke="none" d=" M 53 5 L 270 5 L 270 201 L 53 201 L 53 5 Z"/></clipPath><clipPath id="rTHVGUbHOzSC"><path fill="none" stroke="none" d=" M 53 5 L 270 5 L 270 201 L 53 201 L 53 5 Z"/></clipPath><clipPath id="WtWPcRbMMcbK"><path fill="none" stroke="none" d=" M 53 5 L 270 5 L 270 201 L 53 201 L 53 5 Z"/></clipPath><clipPath id="RJuaRMpNawUB"><path fill="none" stroke="none" d=" M 53 5 L 270 5 L 270 201 L 53 201 L 53 5 Z"/></clipPath></defs><g><g transform="scale(1,1) translate(0.5,0.5)"><rect fill="#FFFFFF" stroke="none" x="0" y="0" width="300" height="250"/><rect fill="#ffffff" stroke="none" x="0" y="0" width="300" height="250"/><rect fill="#FFFFFF" stroke="none" x="53" y="5" width="217" height="196"/><rect fill="#efefef" stroke="none" x="53" y="5" width="217" height="196"/><g><rect fill="none" stroke="#e5e5e5" x="53" y="5" width="217" height="196" stroke-linejoin="bevel" stroke-miterlimit="10"/></g><g clip-path="url(#VQDyWBvkVpXO)"><g><g/></g></g><g clip-path="url(#gcHzCWpmmeaa)"><g><g><path fill="none" stroke="white" paint-order="fill stroke markers" d=" M 53 192 L 270 192" stroke-linejoin="bevel" stroke-miterlimit="10"/><path fill="none" stroke="white" paint-order="fill stroke markers" d=" M 53 150 L 270 150" stroke-linejoin="bevel" stroke-miterlimit="10"/><path fill="none" stroke="white" paint-order="fill stroke markers" d=" M 53 109 L 270 109" stroke-linejoin="bevel" stroke-miterlimit="10"/><path fill="none" stroke="white" paint-order="fill stroke markers" d=" M 53 67 L 270 67" stroke-linejoin="bevel" stroke-miterlimit="10"/><path fill="none" stroke="white" paint-order="fill stroke markers" d=" M 53 26 L 270 26" stroke-linejoin="bevel" stroke-miterlimit="10"/></g></g></g><g clip-path="url(#ERelVlonmtXc)"><g><g><path fill="none" stroke="none"/><rect fill="#1f77b4" stroke="none" x="100.74000000000001" y="73.16476705868128" width="13.019999999999996" height="0.4147897330471295"/><rect fill="#1f77b4" stroke="none" x="209.23999999999998" y="191.67611935786195" width="13.020000000000039" height="0.4147897330471437"/><path fill="none" stroke="black" paint-order="fill stroke markers" d=" M 100.74000000000001 73.16476705868128 L 113.76 73.16476705868128 L 113.76 73.57955679172841 L 100.74000000000001 73.57955679172841 L 100.74000000000001 73.16476705868128 Z" stroke-linejoin="bevel" stroke-miterlimit="10"/><path fill="none" stroke="black" paint-order="fill stroke markers" d=" M 209.23999999999998 191.67611935786195 L 222.26000000000002 191.67611935786195 L 222.26000000000002 192.0909090909091 L 209.23999999999998 192.0909090909091 L 209.23999999999998 191.67611935786195 Z" stroke-linejoin="bevel" stroke-miterlimit="10"/><path fill="none" stroke="black" paint-order="fill stroke markers" d="" stroke-linejoin="bevel" stroke-miterlimit="10"/></g></g></g><g clip-path="url(#tmfExAffcITd)"><g><g><path fill="none" stroke="none"/><rect fill="#1f77b4" stroke="none" x="100.74000000000001" y="13.909090909090935" width="13.019999999999996" height="0.4147897330471153"/><rect fill="#1f77b4" stroke="none" x="209.23999999999998" y="18.84706392155678" width="13.020000000000039" height="0.4147897330471153"/><path fill="none" stroke="black" paint-order="fill stroke markers" d=" M 100.74000000000001 13.909090909090935 L 113.76 13.909090909090935 L 113.76 14.32388064213805 L 100.74000000000001 14.32388064213805 L 100.74000000000001 13.909090909090935 Z" stroke-linejoin="bevel" stroke-miterlimit="10"/><path fill="none" stroke="black" paint-order="fill stroke markers" d=" M 209.23999999999998 18.84706392155678 L 222.26000000000002 18.84706392155678 L 222.26000000000002 19.261853654603897 L 209.23999999999998 19.261853654603897 L 209.23999999999998 18.84706392155678 Z" stroke-linejoin="bevel" stroke-miterlimit="10"/><path fill="none" stroke="black" paint-order="fill stroke markers" d="" stroke-linejoin="bevel" stroke-miterlimit="10"/></g></g></g><g clip-path="url(#QxGcMASTBzMT)"><g><g><path fill="none" stroke="none"/><path fill="none" stroke="black" paint-order="fill stroke markers" d=" M 107.25 73.37216192520484 L 107.25 43.74432385040964" stroke-linejoin="bevel" stroke-miterlimit="10"/><path fill="none" stroke="black" paint-order="fill stroke markers" d=" M 215.75 191.88351422438552 L 215.75 140.03479759349398" stroke-linejoin="bevel" stroke-miterlimit="10"/></g></g></g><g clip-path="url(#KuNSGpNrDCev)"><g><g><path fill="none" stroke="none"/><path fill="none" stroke="black" paint-order="fill stroke markers" d=" M 107.25 21.52344529431329 L 107.25 14.116485775614507" stroke-linejoin="bevel" stroke-miterlimit="10"/><path fill="none" stroke="black" paint-order="fill stroke markers" d=" M 215.75 88.18608096260242 L 215.75 19.054458788080353" stroke-linejoin="bevel" stroke-miterlimit="10"/></g></g></g><g clip-path="url(#rTHVGUbHOzSC)"><g><g><path fill="none" stroke="none"/><path fill="#E08E79" stroke="none" paint-order="stroke fill markers" d=" M 88.26249999999999 28.930404813012075 L 126.23750000000001 28.930404813012075 L 126.23750000000001 43.74432385040964 L 88.26249999999999 43.74432385040964 L 88.26249999999999 28.930404813012075 Z"/><path fill="none" stroke="black" paint-order="fill stroke markers" d=" M 88.26249999999999 28.930404813012075 L 126.23750000000001 28.930404813012075 L 126.23750000000001 43.74432385040964 L 88.26249999999999 43.74432385040964 L 88.26249999999999 28.930404813012075 Z" stroke-linejoin="bevel" stroke-miterlimit="10"/><path fill="#E08E79" stroke="none" paint-order="stroke fill markers" d=" M 196.7625 88.18608096260242 L 234.7375 88.18608096260242 L 234.7375 140.03479759349398 L 196.7625 140.03479759349398 L 196.7625 88.18608096260242 Z"/><path fill="none" stroke="black" paint-order="fill stroke markers" d=" M 196.7625 88.18608096260242 L 234.7375 88.18608096260242 L 234.7375 140.03479759349398 L 196.7625 140.03479759349398 L 196.7625 88.18608096260242 Z" stroke-linejoin="bevel" stroke-miterlimit="10"/></g></g></g><g clip-path="url(#WtWPcRbMMcbK)"><g><g><path fill="none" stroke="none"/><path fill="#3B8686" stroke="none" paint-order="stroke fill markers" d=" M 88.26249999999999 28.930404813012075 L 126.23750000000001 28.930404813012075 L 126.23750000000001 21.52344529431329 L 88.26249999999999 21.52344529431329 L 88.26249999999999 28.930404813012075 Z"/><path fill="none" stroke="black" paint-order="fill stroke markers" d=" M 88.26249999999999 28.930404813012075 L 126.23750000000001 28.930404813012075 L 126.23750000000001 21.52344529431329 L 88.26249999999999 21.52344529431329 L 88.26249999999999 28.930404813012075 Z" stroke-linejoin="bevel" stroke-miterlimit="10"/><path fill="#3B8686" stroke="none" paint-order="stroke fill markers" d=" M 196.7625 88.18608096260242 L 234.7375 88.18608096260242 L 234.7375 88.18608096260242 L 196.7625 88.18608096260242 L 196.7625 88.18608096260242 Z"/><path fill="none" stroke="black" paint-order="fill stroke markers" d=" M 196.7625 88.18608096260242 L 234.7375 88.18608096260242 L 234.7375 88.18608096260242 L 196.7625 88.18608096260242 L 196.7625 88.18608096260242 Z" stroke-linejoin="bevel" stroke-miterlimit="10"/></g></g></g><g/><g/><g><g fill="#444444"><path fill="none" stroke="black" paint-order="fill stroke markers" d=" M 53 201 L 270 201" stroke-linejoin="bevel" stroke-miterlimit="10"/><path fill="none" stroke="black" paint-order="fill stroke markers" d=" M 107 207 L 107 199" stroke-linejoin="bevel" stroke-miterlimit="10"/><path fill="" stroke="black" paint-order="fill stroke markers" d=" M 216 207 L 216 199" stroke-linejoin="bevel" stroke-miterlimit="10"/><g transform="translate(107,212) rotate(0,0,0)"><text fill="" stroke="none" font-family="helvetica" font-size="8pt" font-style="normal" font-weight="normal" text-decoration="normal" x="0" y="0" text-anchor="middle" dominant-baseline="hanging">Train</text><g transform="rotate(0,0,0) translate(-107,-212) translate(216,212) rotate(0,0,0)"><text fill="" stroke="none" font-family="helvetica" font-size="8pt" font-style="normal" font-weight="normal" text-decoration="normal" x="0" y="0" text-anchor="middle" dominant-baseline="hanging">Test</text><g transform="rotate(0,0,0) translate(-216,-212) translate(162,232) rotate(0,0,0)"><text fill="" stroke="none" font-family="helvetica" font-size="10pt" font-style="italic" font-weight="normal" text-decoration="normal" x="0" y="0" text-anchor="middle" dominant-baseline="hanging">conjunto de dados</text><g transform="rotate(0,0,0) translate(-162,-232)"/></g></g></g></g></g><g><g fill="#444444"><path fill="none" stroke="black" paint-order="fill stroke markers" d=" M 53 201 L 53 5" stroke-linejoin="bevel" stroke-miterlimit="10"/><path fill="none" stroke="black" paint-order="fill stroke markers" d=" M 47 192 L 55 192" stroke-linejoin="bevel" stroke-miterlimit="10"/><path fill="none" stroke="black" paint-order="fill stroke markers" d=" M 47 150 L 55 150" stroke-linejoin="bevel" stroke-miterlimit="10"/><path fill="none" stroke="black" paint-order="fill stroke markers" d=" M 47 109 L 55 109" stroke-linejoin="bevel" stroke-miterlimit="10"/><path fill="none" stroke="black" paint-order="fill stroke markers" d=" M 47 67 L 55 67" stroke-linejoin="bevel" stroke-miterlimit="10"/><path fill="none" stroke="black" paint-order="fill stroke markers" d=" M 47 26 L 55 26" stroke-linejoin="bevel" stroke-miterlimit="10"/><path fill="none" stroke="black" paint-order="fill stroke markers" d=" M 49 200 L 53 200" stroke-linejoin="bevel" stroke-miterlimit="10"/><path fill="none" stroke="black" paint-order="fill stroke markers" d=" M 49 192 L 53 192" stroke-linejoin="bevel" stroke-miterlimit="10"/><path fill="none" stroke="black" paint-order="fill stroke markers" d=" M 49 184 L 53 184" stroke-linejoin="bevel" stroke-miterlimit="10"/><path fill="none" stroke="black" paint-order="fill stroke markers" d=" M 49 175 L 53 175" stroke-linejoin="bevel" stroke-miterlimit="10"/><path fill="none" stroke="black" paint-order="fill stroke markers" d=" M 49 167 L 53 167" stroke-linejoin="bevel" stroke-miterlimit="10"/><path fill="none" stroke="black" paint-order="fill stroke markers" d=" M 49 159 L 53 159" stroke-linejoin="bevel" stroke-miterlimit="10"/><path fill="none" stroke="black" paint-order="fill stroke markers" d=" M 49 150 L 53 150" stroke-linejoin="bevel" stroke-miterlimit="10"/><path fill="none" stroke="black" paint-order="fill stroke markers" d=" M 49 142 L 53 142" stroke-linejoin="bevel" stroke-miterlimit="10"/><path fill="none" stroke="black" paint-order="fill stroke markers" d=" M 49 134 L 53 134" stroke-linejoin="bevel" stroke-miterlimit="10"/><path fill="none" stroke="black" paint-order="fill stroke markers" d=" M 49 126 L 53 126" stroke-linejoin="bevel" stroke-miterlimit="10"/><path fill="none" stroke="black" paint-order="fill stroke markers" d=" M 49 117 L 53 117" stroke-linejoin="bevel" stroke-miterlimit="10"/><path fill="none" stroke="black" paint-order="fill stroke markers" d=" M 49 109 L 53 109" stroke-linejoin="bevel" stroke-miterlimit="10"/><path fill="none" stroke="black" paint-order="fill stroke markers" d=" M 49 101 L 53 101" stroke-linejoin="bevel" stroke-miterlimit="10"/><path fill="none" stroke="black" paint-order="fill stroke markers" d=" M 49 92 L 53 92" stroke-linejoin="bevel" stroke-miterlimit="10"/><path fill="none" stroke="black" paint-order="fill stroke markers" d=" M 49 84 L 53 84" stroke-linejoin="bevel" stroke-miterlimit="10"/><path fill="none" stroke="black" paint-order="fill stroke markers" d=" M 49 76 L 53 76" stroke-linejoin="bevel" stroke-miterlimit="10"/><path fill="none" stroke="black" paint-order="fill stroke markers" d=" M 49 67 L 53 67" stroke-linejoin="bevel" stroke-miterlimit="10"/><path fill="none" stroke="black" paint-order="fill stroke markers" d=" M 49 59 L 53 59" stroke-linejoin="bevel" stroke-miterlimit="10"/><path fill="none" stroke="black" paint-order="fill stroke markers" d=" M 49 51 L 53 51" stroke-linejoin="bevel" stroke-miterlimit="10"/><path fill="none" stroke="black" paint-order="fill stroke markers" d=" M 49 43 L 53 43" stroke-linejoin="bevel" stroke-miterlimit="10"/><path fill="none" stroke="black" paint-order="fill stroke markers" d=" M 49 34 L 53 34" stroke-linejoin="bevel" stroke-miterlimit="10"/><path fill="none" stroke="black" paint-order="fill stroke markers" d=" M 49 26 L 53 26" stroke-linejoin="bevel" stroke-miterlimit="10"/><path fill="none" stroke="black" paint-order="fill stroke markers" d=" M 49 18 L 53 18" stroke-linejoin="bevel" stroke-miterlimit="10"/><path fill="" stroke="black" paint-order="fill stroke markers" d=" M 49 9 L 53 9" stroke-linejoin="bevel" stroke-miterlimit="10"/><g transform="translate(42,192) rotate(0,0,0)"><text fill="" stroke="none" font-family="helvetica" font-size="8pt" font-style="normal" font-weight="normal" text-decoration="normal" x="0" y="0" text-anchor="end" dominant-baseline="central">0</text><g transform="rotate(0,0,0) translate(-42,-192) translate(42,150) rotate(0,0,0)"><text fill="" stroke="none" font-family="helvetica" font-size="8pt" font-style="normal" font-weight="normal" text-decoration="normal" x="0" y="0" text-anchor="end" dominant-baseline="central">0.2</text><g transform="rotate(0,0,0) translate(-42,-150) translate(42,109) rotate(0,0,0)"><text fill="" stroke="none" font-family="helvetica" font-size="8pt" font-style="normal" font-weight="normal" text-decoration="normal" x="0" y="0" text-anchor="end" dominant-baseline="central">0.4</text><g transform="rotate(0,0,0) translate(-42,-109) translate(42,67) rotate(0,0,0)"><text fill="" stroke="none" font-family="helvetica" font-size="8pt" font-style="normal" font-weight="normal" text-decoration="normal" x="0" y="0" text-anchor="end" dominant-baseline="central">0.6</text><g transform="rotate(0,0,0) translate(-42,-67) translate(42,26) rotate(0,0,0)"><text fill="" stroke="none" font-family="helvetica" font-size="8pt" font-style="normal" font-weight="normal" text-decoration="normal" x="0" y="0" text-anchor="end" dominant-baseline="central">0.8</text><g transform="rotate(0,0,0) translate(-42,-26) translate(18,103) rotate(-90,0,0)"><text fill="" stroke="none" font-family="helvetica" font-size="10pt" font-style="italic" font-weight="normal" text-decoration="normal" x="0" y="0" text-anchor="middle" dominant-baseline="alphabetic">pontuação recall</text><g transform="rotate(90,0,0) translate(-18,-103)"/></g></g></g></g></g></g></g></g><g clip-path="url(#RJuaRMpNawUB)"><g/></g></g></g></svg>