<svg version="1.1" xmlns="http://www.w3.org/2000/svg" xmlns:xlink="http://www.w3.org/1999/xlink" width="300" height="250" style="width: 300px; height: 250px;"><defs><clipPath id="qZxCHEpfDwBs"><path fill="none" stroke="none" d=" M 53 5 L 270 5 L 270 201 L 53 201 L 53 5 Z"/></clipPath><clipPath id="ZRLhnAiputtu"><path fill="none" stroke="none" d=" M 53 5 L 270 5 L 270 201 L 53 201 L 53 5 Z"/></clipPath><clipPath id="FtMEyxzOKvTC"><path fill="none" stroke="none" d=" M 53 5 L 270 5 L 270 201 L 53 201 L 53 5 Z"/></clipPath><clipPath id="GPJgaFnQQwrM"><path fill="none" stroke="none" d=" M 53 5 L 270 5 L 270 201 L 53 201 L 53 5 Z"/></clipPath><clipPath id="uGIoMVaITpyg"><path fill="none" stroke="none" d=" M 53 5 L 270 5 L 270 201 L 53 201 L 53 5 Z"/></clipPath><clipPath id="aDVDRWBGwlsb"><path fill="none" stroke="none" d=" M 53 5 L 270 5 L 270 201 L 53 201 L 53 5 Z"/></clipPath><clipPath id="BbuTommeaZBH"><path fill="none" stroke="none" d=" M 53 5 L 270 5 L 270 201 L 53 201 L 53 5 Z"/></clipPath><clipPath id="ADyoEJsXCLhU"><path fill="none" stroke="none" d=" M 53 5 L 270 5 L 270 201 L 53 201 L 53 5 Z"/></clipPath><clipPath id="KaQmEBkPIQwn"><path fill="none" stroke="none" d=" M 53 5 L 270 5 L 270 201 L 53 201 L 53 5 Z"/></clipPath></defs><g><g transform="scale(1,1) translate(0.5,0.5)"><rect fill="#FFFFFF" stroke="none" x="0" y="0" width="300" height="250"/><rect fill="#ffffff" stroke="none" x="0" y="0" width="300" height="250"/><rect fill="#FFFFFF" stroke="none" x="53" y="5" width="217" height="196"/><rect fill="#efefef" stroke="none" x="53" y="5" width="217" height="196"/><g><rect fill="none" stroke="#e5e5e5" x="53" y="5" width="217" height="196" stroke-linejoin="bevel" stroke-miterlimit="10"/></g><g clip-path="url(#qZxCHEpfDwBs)"><g><g/></g></g><g clip-path="url(#ZRLhnAiputtu)"><g><g><path fill="none" stroke="white" paint-order="fill stroke markers" d=" M 53 192 L 270 192" stroke-linejoin="bevel" stroke-miterlimit="10"/><path fill="none" stroke="white" paint-order="fill stroke markers" d=" M 53 156 L 270 156" stroke-linejoin="bevel" stroke-miterlimit="10"/><path fill="none" stroke="white" paint-order="fill stroke markers" d=" M 53 121 L 270 121" stroke-linejoin="bevel" stroke-miterlimit="10"/><path fill="none" stroke="white" paint-order="fill stroke markers" d=" M 53 85 L 270 85" stroke-linejoin="bevel" stroke-miterlimit="10"/><path fill="none" stroke="white" paint-order="fill stroke markers" d=" M 53 50 L 270 50" stroke-linejoin="bevel" stroke-miterlimit="10"/><path fill="none" stroke="white" paint-order="fill stroke markers" d=" M 53 14 L 270 14" stroke-linejoin="bevel" stroke-miterlimit="10"/></g></g></g><g clip-path="url(#FtMEyxzOKvTC)"><g><g><path fill="none" stroke="none"/><rect fill="#1f77b4" stroke="none" x="100.74000000000001" y="83.87410840034526" width="13.019999999999996" height="0.08904638589794445"/><rect fill="#1f77b4" stroke="none" x="209.23999999999998" y="192.0018627050111" width="13.020000000000039" height="0.08904638589797287"/><path fill="none" stroke="black" paint-order="fill stroke markers" d=" M 100.74000000000001 83.87410840034526 L 113.76 83.87410840034526 L 113.76 83.96315478624321 L 100.74000000000001 83.96315478624321 L 100.74000000000001 83.87410840034526 Z" stroke-linejoin="bevel" stroke-miterlimit="10"/><path fill="none" stroke="black" paint-order="fill stroke markers" d=" M 209.23999999999998 192.0018627050111 L 222.26000000000002 192.0018627050111 L 222.26000000000002 192.09090909090907 L 209.23999999999998 192.09090909090907 L 209.23999999999998 192.0018627050111 Z" stroke-linejoin="bevel" stroke-miterlimit="10"/><path fill="none" stroke="black" paint-order="fill stroke markers" d="" stroke-linejoin="bevel" stroke-miterlimit="10"/></g></g></g><g clip-path="url(#GPJgaFnQQwrM)"><g><g><path fill="none" stroke="none"/><rect fill="#1f77b4" stroke="none" x="100.74000000000001" y="39.35091545136524" width="13.019999999999996" height="0.08904638589794445"/><rect fill="#1f77b4" stroke="none" x="209.23999999999998" y="13.909090909090907" width="13.020000000000039" height="0.08904638589797287"/><path fill="none" stroke="black" paint-order="fill stroke markers" d=" M 100.74000000000001 39.35091545136524 L 113.76 39.35091545136524 L 113.76 39.43996183726318 L 100.74000000000001 39.43996183726318 L 100.74000000000001 39.35091545136524 Z" stroke-linejoin="bevel" stroke-miterlimit="10"/><path fill="none" stroke="black" paint-order="fill stroke markers" d=" M 209.23999999999998 13.909090909090907 L 222.26000000000002 13.909090909090907 L 222.26000000000002 13.99813729498888 L 209.23999999999998 13.99813729498888 L 209.23999999999998 13.909090909090907 Z" stroke-linejoin="bevel" stroke-miterlimit="10"/><path fill="none" stroke="black" paint-order="fill stroke markers" d="" stroke-linejoin="bevel" stroke-miterlimit="10"/></g></g></g><g clip-path="url(#uGIoMVaITpyg)"><g><g><path fill="none" stroke="none"/><path fill="none" stroke="black" paint-order="fill stroke markers" d=" M 107.25 83.91863159329424 L 107.25 64.83726318658852" stroke-linejoin="bevel" stroke-miterlimit="10"/><path fill="none" stroke="black" paint-order="fill stroke markers" d=" M 215.75 192.04638589796008 L 215.75 132.68212863265336" stroke-linejoin="bevel" stroke-miterlimit="10"/></g></g></g><g clip-path="url(#aDVDRWBGwlsb)"><g><g><path fill="none" stroke="none"/><path fill="none" stroke="black" paint-order="fill stroke markers" d=" M 107.25 52.11635091545136 L 107.25 39.395438644314225" stroke-linejoin="bevel" stroke-miterlimit="10"/><path fill="none" stroke="black" paint-order="fill stroke markers" d=" M 215.75 73.31787136734663 L 215.75 13.953614102039893" stroke-linejoin="bevel" stroke-miterlimit="10"/></g></g></g><g clip-path="url(#BbuTommeaZBH)"><g><g><path fill="none" stroke="none"/><path fill="#E08E79" stroke="none" paint-order="stroke fill markers" d=" M 88.26249999999999 52.11635091545136 L 126.23750000000001 52.11635091545136 L 126.23750000000001 64.83726318658852 L 88.26249999999999 64.83726318658852 L 88.26249999999999 52.11635091545136 Z"/><path fill="none" stroke="black" paint-order="fill stroke markers" d=" M 88.26249999999999 52.11635091545136 L 126.23750000000001 52.11635091545136 L 126.23750000000001 64.83726318658852 L 88.26249999999999 64.83726318658852 L 88.26249999999999 52.11635091545136 Z" stroke-linejoin="bevel" stroke-miterlimit="10"/><path fill="#E08E79" stroke="none" paint-order="stroke fill markers" d=" M 196.7625 102.99999999999999 L 234.7375 102.99999999999999 L 234.7375 132.68212863265336 L 196.7625 132.68212863265336 L 196.7625 102.99999999999999 Z"/><path fill="none" stroke="black" paint-order="fill stroke markers" d=" M 196.7625 102.99999999999999 L 234.7375 102.99999999999999 L 234.7375 132.68212863265336 L 196.7625 132.68212863265336 L 196.7625 102.99999999999999 Z" stroke-linejoin="bevel" stroke-miterlimit="10"/></g></g></g><g clip-path="url(#ADyoEJsXCLhU)"><g><g><path fill="none" stroke="none"/><path fill="#3B8686" stroke="none" paint-order="stroke fill markers" d=" M 88.26249999999999 52.11635091545136 L 126.23750000000001 52.11635091545136 L 126.23750000000001 52.11635091545136 L 88.26249999999999 52.11635091545136 L 88.26249999999999 52.11635091545136 Z"/><path fill="none" stroke="black" paint-order="fill stroke markers" d=" M 88.26249999999999 52.11635091545136 L 126.23750000000001 52.11635091545136 L 126.23750000000001 52.11635091545136 L 88.26249999999999 52.11635091545136 L 88.26249999999999 52.11635091545136 Z" stroke-linejoin="bevel" stroke-miterlimit="10"/><path fill="#3B8686" stroke="none" paint-order="stroke fill markers" d=" M 196.7625 102.99999999999999 L 234.7375 102.99999999999999 L 234.7375 73.31787136734663 L 196.7625 73.31787136734663 L 196.7625 102.99999999999999 Z"/><path fill="none" stroke="black" paint-order="fill stroke markers" d=" M 196.7625 102.99999999999999 L 234.7375 102.99999999999999 L 234.7375 73.31787136734663 L 196.7625 73.31787136734663 L 196.7625 102.99999999999999 Z" stroke-linejoin="bevel" stroke-miterlimit="10"/></g></g></g><g/><g/><g><g fill="#444444"><path fill="none" stroke="black" paint-order="fill stroke markers" d=" M 53 201 L 270 201" stroke-linejoin="bevel" stroke-miterlimit="10"/><path fill="none" stroke="black" paint-order="fill stroke markers" d=" M 107 207 L 107 199" stroke-linejoin="bevel" stroke-miterlimit="10"/><path fill="" stroke="black" paint-order="fill stroke markers" d=" M 216 207 L 216 199" stroke-linejoin="bevel" stroke-miterlimit="10"/><g transform="translate(107,212) rotate(0,0,0)"><text fill="" stroke="none" font-family="helvetica" font-size="8pt" font-style="normal" font-weight="normal" text-decoration="normal" x="0" y="0" text-anchor="middle" dominant-baseline="hanging">Train</text><g transform="rotate(0,0,0) translate(-107,-212) translate(216,212) rotate(0,0,0)"><text fill="" stroke="none" font-family="helvetica" font-size="8pt" font-style="normal" font-weight="normal" text-decoration="normal" x="0" y="0" text-anchor="middle" dominant-baseline="hanging">Test</text><g transform="rotate(0,0,0) translate(-216,-212) translate(162,232) rotate(0,0,0)"><text fill="" stroke="none" font-family="helvetica" font-size="10pt" font-style="italic" font-weight="normal" text-decoration="normal" x="0" y="0" text-anchor="middle" dominant-baseline="hanging">conjunto de dados</text><g transform="rotate(0,0,0) translate(-162,-232)"/></g></g></g></g></g><g><g fill="#444444"><path fill="none" stroke="black" paint-order="fill stroke markers" d=" M 53 201 L 53 5" stroke-linejoin="bevel" stroke-miterlimit="10"/><path fill="none" stroke="black" paint-order="fill stroke markers" d=" M 47 192 L 55 192" stroke-linejoin="bevel" stroke-miterlimit="10"/><path fill="none" stroke="black" paint-order="fill stroke markers" d=" M 47 156 L 55 156" stroke-linejoin="bevel" stroke-miterlimit="10"/><path fill="none" stroke="black" paint-order="fill stroke markers" d=" M 47 121 L 55 121" stroke-linejoin="bevel" stroke-miterlimit="10"/><path fill="none" stroke="black" paint-order="fill stroke markers" d=" M 47 85 L 55 85" stroke-linejoin="bevel" stroke-miterlimit="10"/><path fill="none" stroke="black" paint-order="fill stroke markers" d=" M 47 50 L 55 50" stroke-linejoin="bevel" stroke-miterlimit="10"/><path fill="none" stroke="black" paint-order="fill stroke markers" d=" M 47 14 L 55 14" stroke-linejoin="bevel" stroke-miterlimit="10"/><path fill="none" stroke="black" paint-order="fill stroke markers" d=" M 49 199 L 53 199" stroke-linejoin="bevel" stroke-miterlimit="10"/><path fill="none" stroke="black" paint-order="fill stroke markers" d=" M 49 192 L 53 192" stroke-linejoin="bevel" stroke-miterlimit="10"/><path fill="none" stroke="black" paint-order="fill stroke markers" d=" M 49 185 L 53 185" stroke-linejoin="bevel" stroke-miterlimit="10"/><path fill="none" stroke="black" paint-order="fill stroke markers" d=" M 49 178 L 53 178" stroke-linejoin="bevel" stroke-miterlimit="10"/><path fill="none" stroke="black" paint-order="fill stroke markers" d=" M 49 171 L 53 171" stroke-linejoin="bevel" stroke-miterlimit="10"/><path fill="none" stroke="black" paint-order="fill stroke markers" d=" M 49 164 L 53 164" stroke-linejoin="bevel" stroke-miterlimit="10"/><path fill="none" stroke="black" paint-order="fill stroke markers" d=" M 49 156 L 53 156" stroke-linejoin="bevel" stroke-miterlimit="10"/><path fill="none" stroke="black" paint-order="fill stroke markers" d=" M 49 149 L 53 149" stroke-linejoin="bevel" stroke-miterlimit="10"/><path fill="none" stroke="black" paint-order="fill stroke markers" d=" M 49 142 L 53 142" stroke-linejoin="bevel" stroke-miterlimit="10"/><path fill="none" stroke="black" paint-order="fill stroke markers" d=" M 49 135 L 53 135" stroke-linejoin="bevel" stroke-miterlimit="10"/><path fill="none" stroke="black" paint-order="fill stroke markers" d=" M 49 128 L 53 128" stroke-linejoin="bevel" stroke-miterlimit="10"/><path fill="none" stroke="black" paint-order="fill stroke markers" d=" M 49 121 L 53 121" stroke-linejoin="bevel" stroke-miterlimit="10"/><path fill="none" stroke="black" paint-order="fill stroke markers" d=" M 49 114 L 53 114" stroke-linejoin="bevel" stroke-miterlimit="10"/><path fill="none" stroke="black" paint-order="fill stroke markers" d=" M 49 107 L 53 107" stroke-linejoin="bevel" stroke-miterlimit="10"/><path fill="none" stroke="black" paint-order="fill stroke markers" d=" M 49 99 L 53 99" stroke-linejoin="bevel" stroke-miterlimit="10"/><path fill="none" stroke="black" paint-order="fill stroke markers" d=" M 49 92 L 53 92" stroke-linejoin="bevel" stroke-miterlimit="10"/><path fill="none" stroke="black" paint-order="fill stroke markers" d=" M 49 85 L 53 85" stroke-linejoin="bevel" stroke-miterlimit="10"/><path fill="none" stroke="black" paint-order="fill stroke markers" d=" M 49 78 L 53 78" stroke-linejoin="bevel" stroke-miterlimit="10"/><path fill="none" stroke="black" paint-order="fill stroke markers" d=" M 49 71 L 53 71" stroke-linejoin="bevel" stroke-miterlimit="10"/><path fill="none" stroke="black" paint-order="fill stroke markers" d=" M 49 64 L 53 64" stroke-linejoin="bevel" stroke-miterlimit="10"/><path fill="none" stroke="black" paint-order="fill stroke markers" d=" M 49 57 L 53 57" stroke-linejoin="bevel" stroke-miterlimit="10"/><path fill="none" stroke="black" paint-order="fill stroke markers" d=" M 49 50 L 53 50" stroke-linejoin="bevel" stroke-miterlimit="10"/><path fill="none" stroke="black" paint-order="fill stroke markers" d=" M 49 42 L 53 42" stroke-linejoin="bevel" stroke-miterlimit="10"/><path fill="none" stroke="black" paint-order="fill stroke markers" d=" M 49 35 L 53 35" stroke-linejoin="bevel" stroke-miterlimit="10"/><path fill="none" stroke="black" paint-order="fill stroke markers" d=" M 49 28 L 53 28" stroke-linejoin="bevel" stroke-miterlimit="10"/><path fill="none" stroke="black" paint-order="fill stroke markers" d=" M 49 21 L 53 21" stroke-linejoin="bevel" stroke-miterlimit="10"/><path fill="none" stroke="black" paint-order="fill stroke markers" d=" M 49 14 L 53 14" stroke-linejoin="bevel" stroke-miterlimit="10"/><path fill="" stroke="black" paint-order="fill stroke markers" d=" M 49 7 L 53 7" stroke-linejoin="bevel" stroke-miterlimit="10"/><g transform="translate(42,192) rotate(0,0,0)"><text fill="" stroke="none" font-family="helvetica" font-size="8pt" font-style="normal" font-weight="normal" text-decoration="normal" x="0" y="0" text-anchor="end" dominant-baseline="central">0</text><g transform="rotate(0,0,0) translate(-42,-192) translate(42,156) rotate(0,0,0)"><text fill="" stroke="none" font-family="helvetica" font-size="8pt" font-style="normal" font-weight="normal" text-decoration="normal" x="0" y="0" text-anchor="end" dominant-baseline="central">0.2</text><g transform="rotate(0,0,0) translate(-42,-156) translate(42,121) rotate(0,0,0)"><text fill="" stroke="none" font-family="helvetica" font-size="8pt" font-style="normal" font-weight="normal" text-decoration="normal" x="0" y="0" text-anchor="end" dominant-baseline="central">0.4</text><g transform="rotate(0,0,0) translate(-42,-121) translate(42,85) rotate(0,0,0)"><text fill="" stroke="none" font-family="helvetica" font-size="8pt" font-style="normal" font-weight="normal" text-decoration="normal" x="0" y="0" text-anchor="end" dominant-baseline="central">0.6</text><g transform="rotate(0,0,0) translate(-42,-85) translate(42,50) rotate(0,0,0)"><text fill="" stroke="none" font-family="helvetica" font-size="8pt" font-style="normal" font-weight="normal" text-decoration="normal" x="0" y="0" text-anchor="end" dominant-baseline="central">0.8</text><g transform="rotate(0,0,0) translate(-42,-50) translate(42,14) rotate(0,0,0)"><text fill="" stroke="none" font-family="helvetica" font-size="8pt" font-style="normal" font-weight="normal" text-decoration="normal" x="0" y="0" text-anchor="end" dominant-baseline="central">1</text><g transform="rotate(0,0,0) translate(-42,-14) translate(18,103) rotate(-90,0,0)"><text fill="" stroke="none" font-family="helvetica" font-size="10pt" font-style="italic" font-weight="normal" text-decoration="normal" x="0" y="0" text-anchor="middle" dominant-baseline="alphabetic">pontuação recall</text><g transform="rotate(90,0,0) translate(-18,-103)"/></g></g></g></g></g></g></g></g></g><g clip-path="url(#KaQmEBkPIQwn)"><g/></g></g></g></svg>