<svg version="1.1" xmlns="http://www.w3.org/2000/svg" xmlns:xlink="http://www.w3.org/1999/xlink" width="300" height="250" style="width: 300px; height: 250px;"><defs><clipPath id="QlgDKFOWxBgA"><path fill="none" stroke="none" d=" M 61 5 L 270 5 L 270 201 L 61 201 L 61 5 Z"/></clipPath><clipPath id="AmbwhZisDrEd"><path fill="none" stroke="none" d=" M 61 5 L 270 5 L 270 201 L 61 201 L 61 5 Z"/></clipPath><clipPath id="VeFQMSJZxMRN"><path fill="none" stroke="none" d=" M 61 5 L 270 5 L 270 201 L 61 201 L 61 5 Z"/></clipPath><clipPath id="WdquSlqRrSFB"><path fill="none" stroke="none" d=" M 61 5 L 270 5 L 270 201 L 61 201 L 61 5 Z"/></clipPath><clipPath id="wnMwVGgMKwNF"><path fill="none" stroke="none" d=" M 61 5 L 270 5 L 270 201 L 61 201 L 61 5 Z"/></clipPath><clipPath id="zCMyBpUGngTL"><path fill="none" stroke="none" d=" M 61 5 L 270 5 L 270 201 L 61 201 L 61 5 Z"/></clipPath><clipPath id="NONuWtgwToTK"><path fill="none" stroke="none" d=" M 61 5 L 270 5 L 270 201 L 61 201 L 61 5 Z"/></clipPath><clipPath id="eoNpVbdezens"><path fill="none" stroke="none" d=" M 61 5 L 270 5 L 270 201 L 61 201 L 61 5 Z"/></clipPath><clipPath id="wMPVKKkISnNO"><path fill="none" stroke="none" d=" M 61 5 L 270 5 L 270 201 L 61 201 L 61 5 Z"/></clipPath></defs><g><g transform="scale(1,1) translate(0.5,0.5)"><rect fill="#FFFFFF" stroke="none" x="0" y="0" width="300" height="250"/><rect fill="#ffffff" stroke="none" x="0" y="0" width="300" height="250"/><rect fill="#FFFFFF" stroke="none" x="61" y="5" width="209" height="196"/><rect fill="#efefef" stroke="none" x="61" y="5" width="209" height="196"/><g><rect fill="none" stroke="#e5e5e5" x="61" y="5" width="209" height="196" stroke-linejoin="bevel" stroke-miterlimit="10"/></g><g clip-path="url(#QlgDKFOWxBgA)"><g><g/></g></g><g clip-path="url(#AmbwhZisDrEd)"><g><g><path fill="none" stroke="white" paint-order="fill stroke markers" d=" M 61 188 L 270 188" stroke-linejoin="bevel" stroke-miterlimit="10"/><path fill="none" stroke="white" paint-order="fill stroke markers" d=" M 61 165 L 270 165" stroke-linejoin="bevel" stroke-miterlimit="10"/><path fill="none" stroke="white" paint-order="fill stroke markers" d=" M 61 142 L 270 142" stroke-linejoin="bevel" stroke-miterlimit="10"/><path fill="none" stroke="white" paint-order="fill stroke markers" d=" M 61 119 L 270 119" stroke-linejoin="bevel" stroke-miterlimit="10"/><path fill="none" stroke="white" paint-order="fill stroke markers" d=" M 61 96 L 270 96" stroke-linejoin="bevel" stroke-miterlimit="10"/><path fill="none" stroke="white" paint-order="fill stroke markers" d=" M 61 73 L 270 73" stroke-linejoin="bevel" stroke-miterlimit="10"/><path fill="none" stroke="white" paint-order="fill stroke markers" d=" M 61 50 L 270 50" stroke-linejoin="bevel" stroke-miterlimit="10"/><path fill="none" stroke="white" paint-order="fill stroke markers" d=" M 61 27 L 270 27" stroke-linejoin="bevel" stroke-miterlimit="10"/></g></g></g><g clip-path="url(#VeFQMSJZxMRN)"><g><g><path fill="none" stroke="none"/><rect fill="#1f77b4" stroke="none" x="106.97999999999999" y="79.48743221201426" width="12.54000000000002" height="0.5738104864005891"/><rect fill="#1f77b4" stroke="none" x="211.48" y="191.51709860450865" width="12.54000000000002" height="0.5738104864004754"/><path fill="none" stroke="black" paint-order="fill stroke markers" d=" M 106.97999999999999 79.48743221201426 L 119.52000000000001 79.48743221201426 L 119.52000000000001 80.06124269841484 L 106.97999999999999 80.06124269841484 L 106.97999999999999 79.48743221201426 Z" stroke-linejoin="bevel" stroke-miterlimit="10"/><path fill="none" stroke="black" paint-order="fill stroke markers" d=" M 211.48 191.51709860450865 L 224.02 191.51709860450865 L 224.02 192.09090909090912 L 211.48 192.09090909090912 L 211.48 191.51709860450865 Z" stroke-linejoin="bevel" stroke-miterlimit="10"/><path fill="none" stroke="black" paint-order="fill stroke markers" d="" stroke-linejoin="bevel" stroke-miterlimit="10"/></g></g></g><g clip-path="url(#WdquSlqRrSFB)"><g><g><path fill="none" stroke="none"/><rect fill="#1f77b4" stroke="none" x="106.97999999999999" y="13.909090909090992" width="12.54000000000002" height="0.5738104864005891"/><rect fill="#1f77b4" stroke="none" x="211.48" y="19.373952684334427" width="12.54000000000002" height="0.5738104864005891"/><path fill="none" stroke="black" paint-order="fill stroke markers" d=" M 106.97999999999999 13.909090909090992 L 119.52000000000001 13.909090909090992 L 119.52000000000001 14.48290139549158 L 106.97999999999999 14.48290139549158 L 106.97999999999999 13.909090909090992 Z" stroke-linejoin="bevel" stroke-miterlimit="10"/><path fill="none" stroke="black" paint-order="fill stroke markers" d=" M 211.48 19.373952684334427 L 224.02 19.373952684334427 L 224.02 19.947763170735016 L 211.48 19.947763170735016 L 211.48 19.373952684334427 Z" stroke-linejoin="bevel" stroke-miterlimit="10"/><path fill="none" stroke="black" paint-order="fill stroke markers" d="" stroke-linejoin="bevel" stroke-miterlimit="10"/></g></g></g><g clip-path="url(#wnMwVGgMKwNF)"><g><g><path fill="none" stroke="none"/><path fill="none" stroke="black" paint-order="fill stroke markers" d=" M 113.25 79.77433745521444 L 113.25 55.18245946661841" stroke-linejoin="bevel" stroke-miterlimit="10"/><path fill="none" stroke="black" paint-order="fill stroke markers" d=" M 217.75 191.80400384770894 L 217.75 124.85944710097453" stroke-linejoin="bevel" stroke-miterlimit="10"/></g></g></g><g clip-path="url(#zCMyBpUGngTL)"><g><g><path fill="none" stroke="none"/><path fill="none" stroke="black" paint-order="fill stroke markers" d=" M 113.25 38.787874140887425 L 113.25 14.1959961522914" stroke-linejoin="bevel" stroke-miterlimit="10"/><path fill="none" stroke="black" paint-order="fill stroke markers" d=" M 217.75 57.914890354240015 L 217.75 19.660857927534835" stroke-linejoin="bevel" stroke-miterlimit="10"/></g></g></g><g clip-path="url(#NONuWtgwToTK)"><g><g><path fill="none" stroke="none"/><path fill="#E08E79" stroke="none" paint-order="stroke fill markers" d=" M 94.96249999999999 46.98516680375292 L 131.53750000000002 46.98516680375292 L 131.53750000000002 55.18245946661841 L 94.96249999999999 55.18245946661841 L 94.96249999999999 46.98516680375292 Z"/><path fill="none" stroke="black" paint-order="fill stroke markers" d=" M 94.96249999999999 46.98516680375292 L 131.53750000000002 46.98516680375292 L 131.53750000000002 55.18245946661841 L 94.96249999999999 55.18245946661841 L 94.96249999999999 46.98516680375292 Z" stroke-linejoin="bevel" stroke-miterlimit="10"/><path fill="#E08E79" stroke="none" paint-order="stroke fill markers" d=" M 199.4625 86.60541467426924 L 236.0375 86.60541467426924 L 236.0375 124.85944710097453 L 199.4625 124.85944710097453 L 199.4625 86.60541467426924 Z"/><path fill="none" stroke="black" paint-order="fill stroke markers" d=" M 199.4625 86.60541467426924 L 236.0375 86.60541467426924 L 236.0375 124.85944710097453 L 199.4625 124.85944710097453 L 199.4625 86.60541467426924 Z" stroke-linejoin="bevel" stroke-miterlimit="10"/></g></g></g><g clip-path="url(#eoNpVbdezens)"><g><g><path fill="none" stroke="none"/><path fill="#3B8686" stroke="none" paint-order="stroke fill markers" d=" M 94.96249999999999 46.98516680375292 L 131.53750000000002 46.98516680375292 L 131.53750000000002 38.787874140887425 L 94.96249999999999 38.787874140887425 L 94.96249999999999 46.98516680375292 Z"/><path fill="none" stroke="black" paint-order="fill stroke markers" d=" M 94.96249999999999 46.98516680375292 L 131.53750000000002 46.98516680375292 L 131.53750000000002 38.787874140887425 L 94.96249999999999 38.787874140887425 L 94.96249999999999 46.98516680375292 Z" stroke-linejoin="bevel" stroke-miterlimit="10"/><path fill="#3B8686" stroke="none" paint-order="stroke fill markers" d=" M 199.4625 86.60541467426924 L 236.0375 86.60541467426924 L 236.0375 57.914890354240015 L 199.4625 57.914890354240015 L 199.4625 86.60541467426924 Z"/><path fill="none" stroke="black" paint-order="fill stroke markers" d=" M 199.4625 86.60541467426924 L 236.0375 86.60541467426924 L 236.0375 57.914890354240015 L 199.4625 57.914890354240015 L 199.4625 86.60541467426924 Z" stroke-linejoin="bevel" stroke-miterlimit="10"/></g></g></g><g/><g/><g><g fill="#444444"><path fill="none" stroke="black" paint-order="fill stroke markers" d=" M 61 201 L 270 201" stroke-linejoin="bevel" stroke-miterlimit="10"/><path fill="none" stroke="black" paint-order="fill stroke markers" d=" M 113 207 L 113 199" stroke-linejoin="bevel" stroke-miterlimit="10"/><path fill="" stroke="black" paint-order="fill stroke markers" d=" M 218 207 L 218 199" stroke-linejoin="bevel" stroke-miterlimit="10"/><g transform="translate(113,212) rotate(0,0,0)"><text fill="" stroke="none" font-family="helvetica" font-size="8pt" font-style="normal" font-weight="normal" text-decoration="normal" x="0" y="0" text-anchor="middle" dominant-baseline="hanging">Train</text><g transform="rotate(0,0,0) translate(-113,-212) translate(218,212) rotate(0,0,0)"><text fill="" stroke="none" font-family="helvetica" font-size="8pt" font-style="normal" font-weight="normal" text-decoration="normal" x="0" y="0" text-anchor="middle" dominant-baseline="hanging">Test</text><g transform="rotate(0,0,0) translate(-218,-212) translate(166,232) rotate(0,0,0)"><text fill="" stroke="none" font-family="helvetica" font-size="10pt" font-style="italic" font-weight="normal" text-decoration="normal" x="0" y="0" text-anchor="middle" dominant-baseline="hanging">conjunto de dados</text><g transform="rotate(0,0,0) translate(-166,-232)"/></g></g></g></g></g><g><g fill="#444444"><path fill="none" stroke="black" paint-order="fill stroke markers" d=" M 61 201 L 61 5" stroke-linejoin="bevel" stroke-miterlimit="10"/><path fill="none" stroke="black" paint-order="fill stroke markers" d=" M 55 188 L 63 188" stroke-linejoin="bevel" stroke-miterlimit="10"/><path fill="none" stroke="black" paint-order="fill stroke markers" d=" M 55 165 L 63 165" stroke-linejoin="bevel" stroke-miterlimit="10"/><path fill="none" stroke="black" paint-order="fill stroke markers" d=" M 55 142 L 63 142" stroke-linejoin="bevel" stroke-miterlimit="10"/><path fill="none" stroke="black" paint-order="fill stroke markers" d=" M 55 119 L 63 119" stroke-linejoin="bevel" stroke-miterlimit="10"/><path fill="none" stroke="black" paint-order="fill stroke markers" d=" M 55 96 L 63 96" stroke-linejoin="bevel" stroke-miterlimit="10"/><path fill="none" stroke="black" paint-order="fill stroke markers" d=" M 55 73 L 63 73" stroke-linejoin="bevel" stroke-miterlimit="10"/><path fill="none" stroke="black" paint-order="fill stroke markers" d=" M 55 50 L 63 50" stroke-linejoin="bevel" stroke-miterlimit="10"/><path fill="none" stroke="black" paint-order="fill stroke markers" d=" M 55 27 L 63 27" stroke-linejoin="bevel" stroke-miterlimit="10"/><path fill="none" stroke="black" paint-order="fill stroke markers" d=" M 57 193 L 61 193" stroke-linejoin="bevel" stroke-miterlimit="10"/><path fill="none" stroke="black" paint-order="fill stroke markers" d=" M 57 197 L 61 197" stroke-linejoin="bevel" stroke-miterlimit="10"/><path fill="none" stroke="black" paint-order="fill stroke markers" d=" M 57 188 L 61 188" stroke-linejoin="bevel" stroke-miterlimit="10"/><path fill="none" stroke="black" paint-order="fill stroke markers" d=" M 57 183 L 61 183" stroke-linejoin="bevel" stroke-miterlimit="10"/><path fill="none" stroke="black" paint-order="fill stroke markers" d=" M 57 179 L 61 179" stroke-linejoin="bevel" stroke-miterlimit="10"/><path fill="none" stroke="black" paint-order="fill stroke markers" d=" M 57 174 L 61 174" stroke-linejoin="bevel" stroke-miterlimit="10"/><path fill="none" stroke="black" paint-order="fill stroke markers" d=" M 57 170 L 61 170" stroke-linejoin="bevel" stroke-miterlimit="10"/><path fill="none" stroke="black" paint-order="fill stroke markers" d=" M 57 165 L 61 165" stroke-linejoin="bevel" stroke-miterlimit="10"/><path fill="none" stroke="black" paint-order="fill stroke markers" d=" M 57 160 L 61 160" stroke-linejoin="bevel" stroke-miterlimit="10"/><path fill="none" stroke="black" paint-order="fill stroke markers" d=" M 57 156 L 61 156" stroke-linejoin="bevel" stroke-miterlimit="10"/><path fill="none" stroke="black" paint-order="fill stroke markers" d=" M 57 151 L 61 151" stroke-linejoin="bevel" stroke-miterlimit="10"/><path fill="none" stroke="black" paint-order="fill stroke markers" d=" M 57 147 L 61 147" stroke-linejoin="bevel" stroke-miterlimit="10"/><path fill="none" stroke="black" paint-order="fill stroke markers" d=" M 57 142 L 61 142" stroke-linejoin="bevel" stroke-miterlimit="10"/><path fill="none" stroke="black" paint-order="fill stroke markers" d=" M 57 137 L 61 137" stroke-linejoin="bevel" stroke-miterlimit="10"/><path fill="none" stroke="black" paint-order="fill stroke markers" d=" M 57 133 L 61 133" stroke-linejoin="bevel" stroke-miterlimit="10"/><path fill="none" stroke="black" paint-order="fill stroke markers" d=" M 57 128 L 61 128" stroke-linejoin="bevel" stroke-miterlimit="10"/><path fill="none" stroke="black" paint-order="fill stroke markers" d=" M 57 124 L 61 124" stroke-linejoin="bevel" stroke-miterlimit="10"/><path fill="none" stroke="black" paint-order="fill stroke markers" d=" M 57 119 L 61 119" stroke-linejoin="bevel" stroke-miterlimit="10"/><path fill="none" stroke="black" paint-order="fill stroke markers" d=" M 57 115 L 61 115" stroke-linejoin="bevel" stroke-miterlimit="10"/><path fill="none" stroke="black" paint-order="fill stroke markers" d=" M 57 110 L 61 110" stroke-linejoin="bevel" stroke-miterlimit="10"/><path fill="none" stroke="black" paint-order="fill stroke markers" d=" M 57 105 L 61 105" stroke-linejoin="bevel" stroke-miterlimit="10"/><path fill="none" stroke="black" paint-order="fill stroke markers" d=" M 57 101 L 61 101" stroke-linejoin="bevel" stroke-miterlimit="10"/><path fill="none" stroke="black" paint-order="fill stroke markers" d=" M 57 96 L 61 96" stroke-linejoin="bevel" stroke-miterlimit="10"/><path fill="none" stroke="black" paint-order="fill stroke markers" d=" M 57 92 L 61 92" stroke-linejoin="bevel" stroke-miterlimit="10"/><path fill="none" stroke="black" paint-order="fill stroke markers" d=" M 57 87 L 61 87" stroke-linejoin="bevel" stroke-miterlimit="10"/><path fill="none" stroke="black" paint-order="fill stroke markers" d=" M 57 82 L 61 82" stroke-linejoin="bevel" stroke-miterlimit="10"/><path fill="none" stroke="black" paint-order="fill stroke markers" d=" M 57 78 L 61 78" stroke-linejoin="bevel" stroke-miterlimit="10"/><path fill="none" stroke="black" paint-order="fill stroke markers" d=" M 57 73 L 61 73" stroke-linejoin="bevel" stroke-miterlimit="10"/><path fill="none" stroke="black" paint-order="fill stroke markers" d=" M 57 69 L 61 69" stroke-linejoin="bevel" stroke-miterlimit="10"/><path fill="none" stroke="black" paint-order="fill stroke markers" d=" M 57 64 L 61 64" stroke-linejoin="bevel" stroke-miterlimit="10"/><path fill="none" stroke="black" paint-order="fill stroke markers" d=" M 57 59 L 61 59" stroke-linejoin="bevel" stroke-miterlimit="10"/><path fill="none" stroke="black" paint-order="fill stroke markers" d=" M 57 55 L 61 55" stroke-linejoin="bevel" stroke-miterlimit="10"/><path fill="none" stroke="black" paint-order="fill stroke markers" d=" M 57 50 L 61 50" stroke-linejoin="bevel" stroke-miterlimit="10"/><path fill="none" stroke="black" paint-order="fill stroke markers" d=" M 57 46 L 61 46" stroke-linejoin="bevel" stroke-miterlimit="10"/><path fill="none" stroke="black" paint-order="fill stroke markers" d=" M 57 41 L 61 41" stroke-linejoin="bevel" stroke-miterlimit="10"/><path fill="none" stroke="black" paint-order="fill stroke markers" d=" M 57 36 L 61 36" stroke-linejoin="bevel" stroke-miterlimit="10"/><path fill="none" stroke="black" paint-order="fill stroke markers" d=" M 57 32 L 61 32" stroke-linejoin="bevel" stroke-miterlimit="10"/><path fill="none" stroke="black" paint-order="fill stroke markers" d=" M 57 27 L 61 27" stroke-linejoin="bevel" stroke-miterlimit="10"/><path fill="none" stroke="black" paint-order="fill stroke markers" d=" M 57 23 L 61 23" stroke-linejoin="bevel" stroke-miterlimit="10"/><path fill="none" stroke="black" paint-order="fill stroke markers" d=" M 57 18 L 61 18" stroke-linejoin="bevel" stroke-miterlimit="10"/><path fill="none" stroke="black" paint-order="fill stroke markers" d=" M 57 14 L 61 14" stroke-linejoin="bevel" stroke-miterlimit="10"/><path fill="" stroke="black" paint-order="fill stroke markers" d=" M 57 9 L 61 9" stroke-linejoin="bevel" stroke-miterlimit="10"/><g transform="translate(50,188) rotate(0,0,0)"><text fill="" stroke="none" font-family="helvetica" font-size="8pt" font-style="normal" font-weight="normal" text-decoration="normal" x="0" y="0" text-anchor="end" dominant-baseline="central">0.82</text><g transform="rotate(0,0,0) translate(-50,-188) translate(50,165) rotate(0,0,0)"><text fill="" stroke="none" font-family="helvetica" font-size="8pt" font-style="normal" font-weight="normal" text-decoration="normal" x="0" y="0" text-anchor="end" dominant-baseline="central">0.84</text><g transform="rotate(0,0,0) translate(-50,-165) translate(50,142) rotate(0,0,0)"><text fill="" stroke="none" font-family="helvetica" font-size="8pt" font-style="normal" font-weight="normal" text-decoration="normal" x="0" y="0" text-anchor="end" dominant-baseline="central">0.86</text><g transform="rotate(0,0,0) translate(-50,-142) translate(50,119) rotate(0,0,0)"><text fill="" stroke="none" font-family="helvetica" font-size="8pt" font-style="normal" font-weight="normal" text-decoration="normal" x="0" y="0" text-anchor="end" dominant-baseline="central">0.88</text><g transform="rotate(0,0,0) translate(-50,-119) translate(50,96) rotate(0,0,0)"><text fill="" stroke="none" font-family="helvetica" font-size="8pt" font-style="normal" font-weight="normal" text-decoration="normal" x="0" y="0" text-anchor="end" dominant-baseline="central">0.9</text><g transform="rotate(0,0,0) translate(-50,-96) translate(50,73) rotate(0,0,0)"><text fill="" stroke="none" font-family="helvetica" font-size="8pt" font-style="normal" font-weight="normal" text-decoration="normal" x="0" y="0" text-anchor="end" dominant-baseline="central">0.92</text><g transform="rotate(0,0,0) translate(-50,-73) translate(50,50) rotate(0,0,0)"><text fill="" stroke="none" font-family="helvetica" font-size="8pt" font-style="normal" font-weight="normal" text-decoration="normal" x="0" y="0" text-anchor="end" dominant-baseline="central">0.94</text><g transform="rotate(0,0,0) translate(-50,-50) translate(50,27) rotate(0,0,0)"><text fill="" stroke="none" font-family="helvetica" font-size="8pt" font-style="normal" font-weight="normal" text-decoration="normal" x="0" y="0" text-anchor="end" dominant-baseline="central">0.96</text><g transform="rotate(0,0,0) translate(-50,-27) translate(18,103) rotate(-90,0,0)"><text fill="" stroke="none" font-family="helvetica" font-size="10pt" font-style="italic" font-weight="normal" text-decoration="normal" x="0" y="0" text-anchor="middle" dominant-baseline="alphabetic">pontuação recall</text><g transform="rotate(90,0,0) translate(-18,-103)"/></g></g></g></g></g></g></g></g></g></g></g><g clip-path="url(#wMPVKKkISnNO)"><g/></g></g></g></svg>