<svg height="512pt" viewBox="0 0 512 511" width="512pt" xmlns="http://www.w3.org/2000/svg"><path d="m439.664062 211.441406h-108.765624l6.6875 60 62.714843 30 61.925781-30c-3.253906-15.414062-5.988281-30.925781-7.648437-46.582031-.804687-7.632813-7.234375-13.417969-14.914063-13.417969zm0 0" fill="#cd0000"/><path d="m361 482.441406 30 30h106c8.289062 0 15-6.707031 15-15v-9.230468c0-47.871094-9.007812-95.65625-26.777344-140.054688-9.980468-24.941406-17.488281-50.640625-22.992187-76.714844h-124.644531zm0 0" fill="#bbdcff"/><path d="m332.800781 151.441406-32.101562 30h-209.398438l-33.101562-30c1.199219-12 1.800781-23.699218 1.800781-35.699218v-9.300782c0-8.402344 6.597656-15 15-15h241c8.402344 0 15 6.597656 15 15v9.300782c0 12 .601562 23.699218 1.800781 35.699218zm0 0" fill="#714c2f"/><path d="m332.800781 151.441406-32.101562 30h-104.699219v-90h120c8.402344 0 15 6.597656 15 15v9.300782c0 12 .601562 23.699218 1.800781 35.699218zm0 0" fill="#523522"/><path d="m391 427.140625v85.300781h-376c-8.402344 0-15-6.597656-15-15v-70.300781c0-56.097656 11.699219-111.601563 32.101562-163.800781 14.097657-36 22.796876-73.5 26.097657-111.898438h274.601562c3.300781 38.402344 12 75.902344 26.097657 111.898438 20.402343 52.199218 32.101562 107.703125 32.101562 163.800781zm0 0" fill="#ffda2d"/><path d="m391 427.140625v85.300781h-195v-361h136.800781c3.300781 38.402344 12 75.902344 26.097657 111.898438 20.402343 52.199218 32.101562 107.703125 32.101562 163.800781zm0 0" fill="#fdbf00"/><path d="m383.425781 149.992188c-14.238281-9.492188-22.734375-25.371094-22.734375-42.480469s8.496094-32.988281 22.734375-42.480469c5.964844-3.96875 9.375-11.355469 9.375-18.519531 0-7.164063-3.410156-14.550781-9.375-18.519531-6.882812-4.585938-8.757812-13.902344-4.160156-20.800782 4.570313-6.898437 13.875-8.773437 20.800781-4.160156 14.238282 9.492188 22.734375 26.371094 22.734375 43.480469s-8.496093 33.988281-22.734375 43.480469c-5.960937 3.96875-9.375 10.355468-9.375 17.519531 0 7.164062 3.414063 13.550781 9.375 17.519531 6.902344 4.597656 8.761719 13.902344 4.160156 20.800781-4.519531 6.792969-13.785156 8.808594-20.800781 4.160157zm0 0" fill="#714c2f"/><path d="m458.425781 149.992188c-14.238281-9.492188-22.734375-25.371094-22.734375-42.480469s8.496094-32.988281 22.734375-42.480469c5.964844-3.96875 9.375-11.355469 9.375-18.519531 0-7.164063-3.410156-14.550781-9.375-18.519531-6.882812-4.585938-8.757812-13.902344-4.160156-20.800782 4.570313-6.898437 13.875-8.773437 20.800781-4.160156 14.238282 9.492188 22.734375 26.371094 22.734375 43.480469s-8.496093 33.988281-22.734375 43.480469c-5.960937 3.96875-9.375 10.355468-9.375 17.519531 0 7.164062 3.414063 13.550781 9.375 17.519531 6.902344 4.597656 8.761719 13.902344 4.160156 20.800781-4.519531 6.792969-13.785156 8.808594-20.800781 4.160157zm0 0" fill="#714c2f"/><path d="m286.730469 336.863281-59.894531-3.589843-26.820313 46.464843 33.03125 50.054688c2.195313 3.324219 5.625 5.640625 9.519531 6.429687 3.902344.804688 7.957032.019532 11.28125-2.183594 27.464844-18.191406 45.011719-48.589843 46.960938-81.3125.5-8.277343-5.800782-15.367187-14.078125-15.863281zm0 0" fill="#523522"/><path d="m165.164062 333.273438-59.894531 3.589843c-8.277343.496094-14.578125 7.585938-14.078125 15.863281 1.949219 32.722657 19.496094 63.121094 46.960938 81.3125 3.320312 2.199219 7.375 2.984376 11.28125 2.183594 3.894531-.792968 7.324218-3.105468 9.519531-6.433594l33.03125-50.050781zm0 0" fill="#714c2f"/><path d="m249.699219 272.640625-27 53.703125h-53.398438l-27-53.703125c-3.601562-7.5-.601562-16.5 6.597657-20.097656 14.703124-7.5 30.902343-11.101563 47.101562-11.101563s32.402344 3.601563 47.101562 11.101563c7.199219 3.597656 10.199219 12.597656 6.597657 20.097656zm0 0" fill="#714c2f"/><path d="m249.699219 272.640625-27 53.703125h-26.699219v-84.902344c16.199219 0 32.402344 3.601563 47.101562 11.101563 7.199219 3.597656 10.199219 12.597656 6.597657 20.097656zm0 0" fill="#523522"/><path d="m196 301.441406c-24.902344 0-45 20.097656-45 45s20.097656 45 45 45 45-20.097656 45-45-20.097656-45-45-45zm0 0" fill="#ffda2d"/><path d="m241 346.441406c0 24.902344-20.097656 45-45 45v-90c24.902344 0 45 20.097656 45 45zm0 0" fill="#fdbf00"/><path d="m196 361.441406c-8.269531 0-15-6.730468-15-15 0-8.269531 6.730469-15 15-15s15 6.730469 15 15c0 8.269532-6.730469 15-15 15zm0 0" fill="#714c2f"/><path d="m211 346.441406c0-8.269531-6.730469-15-15-15v30c8.269531 0 15-6.730468 15-15zm0 0" fill="#523522"/></svg>