<?xml version="1.0" encoding="UTF-8" standalone="no"?>
<!-- Created with Inkscape (http://www.inkscape.org/) -->

<svg
   xmlns:ns1="http://www.iki.fi/pav/software/textext/"
   xmlns:dc="http://purl.org/dc/elements/1.1/"
   xmlns:cc="http://creativecommons.org/ns#"
   xmlns:rdf="http://www.w3.org/1999/02/22-rdf-syntax-ns#"
   xmlns:svg="http://www.w3.org/2000/svg"
   xmlns="http://www.w3.org/2000/svg"
   xmlns:sodipodi="http://sodipodi.sourceforge.net/DTD/sodipodi-0.dtd"
   xmlns:inkscape="http://www.inkscape.org/namespaces/inkscape"
   width="98.309402mm"
   height="83.369675mm"
   viewBox="0 0 98.309402 83.369675"
   version="1.1"
   id="svg8"
   inkscape:version="0.92.3 (2405546, 2018-03-11)"
   sodipodi:docname="JAIR_ocsvm.svg">
  <sodipodi:namedview
     id="base"
     pagecolor="#ffffff"
     bordercolor="#666666"
     borderopacity="1.0"
     inkscape:pageopacity="0.0"
     inkscape:pageshadow="2"
     inkscape:zoom="1.979899"
     inkscape:cx="186.75508"
     inkscape:cy="149.28072"
     inkscape:document-units="mm"
     inkscape:current-layer="g2070"
     showgrid="false"
     inkscape:window-width="1323"
     inkscape:window-height="713"
     inkscape:window-x="43"
     inkscape:window-y="27"
     inkscape:window-maximized="1"
     fit-margin-top="0.1"
     fit-margin-left="0.1"
     fit-margin-bottom="0.1"
     fit-margin-right="0.1" />
  <defs
     id="defs2">
    <marker
       inkscape:isstock="true"
       style="overflow:visible"
       id="marker3303"
       refX="0"
       refY="0"
       orient="auto"
       inkscape:stockid="Arrow1Mend">
      <path
         transform="matrix(-0.4,0,0,-0.4,-4,0)"
         style="fill:#000000;fill-opacity:1;fill-rule:evenodd;stroke:#000000;stroke-width:1.00000003pt;stroke-opacity:1"
         d="M 0,0 5,-5 -12.5,0 5,5 Z"
         id="path3301"
         inkscape:connector-curvature="0" />
    </marker>
    <marker
       inkscape:isstock="true"
       style="overflow:visible"
       id="Arrow1Mstart"
       refX="0"
       refY="0"
       orient="auto"
       inkscape:stockid="Arrow1Mstart">
      <path
         transform="matrix(0.4,0,0,0.4,4,0)"
         style="fill:#000000;fill-opacity:1;fill-rule:evenodd;stroke:#000000;stroke-width:1.00000003pt;stroke-opacity:1"
         d="M 0,0 5,-5 -12.5,0 5,5 Z"
         id="path823"
         inkscape:connector-curvature="0" />
    </marker>
    <marker
       inkscape:stockid="Arrow1Mend"
       orient="auto"
       refY="0"
       refX="0"
       id="marker2428"
       style="overflow:visible"
       inkscape:isstock="true"
       inkscape:collect="always">
      <path
         id="path2426"
         d="M 0,0 5,-5 -12.5,0 5,5 Z"
         style="fill:#000000;fill-opacity:1;fill-rule:evenodd;stroke:#000000;stroke-width:1.00000003pt;stroke-opacity:1"
         transform="matrix(-0.4,0,0,-0.4,-4,0)"
         inkscape:connector-curvature="0" />
    </marker>
    <marker
       inkscape:collect="always"
       inkscape:isstock="true"
       style="overflow:visible"
       id="Arrow1Mend"
       refX="0"
       refY="0"
       orient="auto"
       inkscape:stockid="Arrow1Mend">
      <path
         transform="matrix(-0.4,0,0,-0.4,-4,0)"
         style="fill:#5b5454;fill-opacity:1;fill-rule:evenodd;stroke:#5b5454;stroke-width:1.00000003pt;stroke-opacity:1"
         d="M 0,0 5,-5 -12.5,0 5,5 Z"
         id="path826"
         inkscape:connector-curvature="0" />
    </marker>
    <marker
       inkscape:isstock="true"
       style="overflow:visible"
       id="Arrow1Mend-3"
       refX="0"
       refY="0"
       orient="auto"
       inkscape:stockid="Arrow1Mend">
      <path
         transform="matrix(-0.4,0,0,-0.4,-4,0)"
         style="fill:#5b5454;fill-opacity:1;fill-rule:evenodd;stroke:#5b5454;stroke-width:1.00000003pt;stroke-opacity:1"
         d="M 0,0 5,-5 -12.5,0 5,5 Z"
         id="path826-6"
         inkscape:connector-curvature="0" />
    </marker>
  </defs>
  <metadata
     id="metadata5">
    <rdf:RDF>
      <cc:Work
         rdf:about="">
        <dc:format>image/svg+xml</dc:format>
        <dc:type
           rdf:resource="http://purl.org/dc/dcmitype/StillImage" />
        <dc:title></dc:title>
      </cc:Work>
    </rdf:RDF>
  </metadata>
  <g
     transform="translate(-93.070804,-135.34375)"
     id="layer1"
     inkscape:groupmode="layer"
     inkscape:label="Capa 1">
    <g
       id="g3925">
      <g
         id="g2070">
        <path
           sodipodi:nodetypes="cc"
           inkscape:connector-curvature="0"
           id="path815"
           d="M 100.91964,208.55357 V 136.36012"
           style="fill:none;stroke:#5b5454;stroke-width:0.465;stroke-linecap:butt;stroke-linejoin:miter;stroke-miterlimit:4;stroke-dasharray:none;stroke-opacity:1;marker-end:url(#Arrow1Mend)" />
        <path
           sodipodi:nodetypes="cc"
           inkscape:connector-curvature="0"
           id="path815-7"
           d="M 100.68635,208.32029 H 172.8798"
           style="fill:none;stroke:#5b5454;stroke-width:0.465;stroke-linecap:butt;stroke-linejoin:miter;stroke-miterlimit:4;stroke-dasharray:none;stroke-opacity:1;marker-end:url(#Arrow1Mend-3)" />
      </g>
      <text
         xml:space="preserve"
         style="font-style:normal;font-weight:normal;font-size:10.58333302px;line-height:1.25;font-family:sans-serif;letter-spacing:0px;word-spacing:0px;fill:#000000;fill-opacity:1;stroke:none;stroke-width:0.26458332"
         x="122.05386"
         y="213.59695"
         id="text2074"><tspan
           sodipodi:role="line"
           id="tspan2072"
           x="122.05386"
           y="213.59695"
           style="font-size:4.23333311px;stroke-width:0.26458332">Feature space</tspan></text>
      <circle
         style="opacity:0.95;fill:#00ff4d;fill-opacity:0.44954128;stroke:#00a434;stroke-width:0.46499997;stroke-linejoin:round;stroke-miterlimit:4;stroke-dasharray:none;stroke-dashoffset:0;stroke-opacity:1"
         id="path2076-1-8"
         cx="145.92917"
         cy="172.45241"
         r="1.3229166" />
      <circle
         style="opacity:0.95;fill:#00ff4d;fill-opacity:0.44954128;stroke:#00a434;stroke-width:0.46499997;stroke-linejoin:round;stroke-miterlimit:4;stroke-dasharray:none;stroke-dashoffset:0;stroke-opacity:1"
         id="path2076-1-8-2"
         cx="132.85863"
         cy="162.2515"
         r="1.3229166" />
      <circle
         style="opacity:0.95;fill:#00ff4d;fill-opacity:0.44954128;stroke:#00a434;stroke-width:0.46499997;stroke-linejoin:round;stroke-miterlimit:4;stroke-dasharray:none;stroke-dashoffset:0;stroke-opacity:1"
         id="path2076-1-8-2-5"
         cx="143.25298"
         cy="164.89731"
         r="1.3229166" />
      <circle
         style="opacity:0.95;fill:#00ff4d;fill-opacity:0.44954128;stroke:#00a434;stroke-width:0.46499997;stroke-linejoin:round;stroke-miterlimit:4;stroke-dasharray:none;stroke-dashoffset:0;stroke-opacity:1"
         id="path2076-1-8-2-5-3"
         cx="146.84375"
         cy="158.8497"
         r="1.3229166" />
      <circle
         style="opacity:0.95;fill:#00ff4d;fill-opacity:0.44954128;stroke:#00a434;stroke-width:0.46499997;stroke-linejoin:round;stroke-miterlimit:4;stroke-dasharray:none;stroke-dashoffset:0;stroke-opacity:1"
         id="path2076-1-8-2-5-3-4"
         cx="134.18155"
         cy="169.62202"
         r="1.3229166" />
      <circle
         style="opacity:0.95;fill:#00ff4d;fill-opacity:0.44954128;stroke:#00a434;stroke-width:0.46499997;stroke-linejoin:round;stroke-miterlimit:4;stroke-dasharray:none;stroke-dashoffset:0;stroke-opacity:1"
         id="path2076-1-8-2-5-3-4-9"
         cx="155.91519"
         cy="167.92113"
         r="1.3229166" />
      <circle
         style="opacity:0.95;fill:#00ff4d;fill-opacity:0.44954128;stroke:#00a434;stroke-width:0.46499997;stroke-linejoin:round;stroke-miterlimit:4;stroke-dasharray:none;stroke-dashoffset:0;stroke-opacity:1"
         id="path2076-1-8-2-5-3-4-9-0"
         cx="137.20535"
         cy="152.4241"
         r="1.3229166" />
      <circle
         style="opacity:0.95;fill:#00ff4d;fill-opacity:0.44954128;stroke:#00a434;stroke-width:0.46499997;stroke-linejoin:round;stroke-miterlimit:4;stroke-dasharray:none;stroke-dashoffset:0;stroke-opacity:1"
         id="path2076-1-8-2-5-3-4-9-0-2"
         cx="118.11756"
         cy="157.1488"
         r="1.3229166" />
      <circle
         style="opacity:0.95;fill:#00ff4d;fill-opacity:0.44954128;stroke:#00a434;stroke-width:0.46499997;stroke-linejoin:round;stroke-miterlimit:4;stroke-dasharray:none;stroke-dashoffset:0;stroke-opacity:1"
         id="path2076-1-8-2-5-3-4-9-0-2-0"
         cx="155.34821"
         cy="152.04613"
         r="1.3229166" />
      <circle
         style="opacity:0.95;fill:#00ff4d;fill-opacity:0.44954128;stroke:#00a434;stroke-width:0.46499997;stroke-linejoin:round;stroke-miterlimit:4;stroke-dasharray:none;stroke-dashoffset:0;stroke-opacity:1"
         id="path2076-1-8-2-5-3-4-9-0-2-0-1"
         cx="126.62203"
         cy="144.10864"
         r="1.3229166" />
      <circle
         style="opacity:0.95;fill:#00ff4d;fill-opacity:0.44954128;stroke:#00a434;stroke-width:0.46499997;stroke-linejoin:round;stroke-miterlimit:4;stroke-dasharray:none;stroke-dashoffset:0;stroke-opacity:1"
         id="path2076-1-8-2-5-3-4-9-0-2-0-1-9"
         cx="149.3006"
         cy="182.09523"
         r="1.3229166" />
      <circle
         style="opacity:0.95;fill:#00ff4d;fill-opacity:0.44954128;stroke:#00a434;stroke-width:0.46499997;stroke-linejoin:round;stroke-miterlimit:4;stroke-dasharray:none;stroke-dashoffset:0;stroke-opacity:1"
         id="path2076-1-8-2-5-3-4-9-0-2-0-1-9-6"
         cx="163.85268"
         cy="166.03125"
         r="1.3229166" />
      <circle
         style="opacity:0.95;fill:#00ff4d;fill-opacity:0.44954128;stroke:#00a434;stroke-width:0.46499997;stroke-linejoin:round;stroke-miterlimit:4;stroke-dasharray:none;stroke-dashoffset:0;stroke-opacity:1"
         id="path2076-1-8-2-5-3-4-9-0-2-0-1-9-6-2"
         cx="122.65327"
         cy="166.59822"
         r="1.3229166" />
      <circle
         style="opacity:0.95;fill:#00ff4d;fill-opacity:0.44954128;stroke:#00a434;stroke-width:0.46499997;stroke-linejoin:round;stroke-miterlimit:4;stroke-dasharray:none;stroke-dashoffset:0;stroke-opacity:1"
         id="path2076-1-8-2-5-3-4-9-0-2-0-1-9-6-2-1"
         cx="139.8512"
         cy="139.7619"
         r="1.3229166" />
      <text
         xml:space="preserve"
         style="font-style:normal;font-weight:normal;font-size:10.58333302px;line-height:1.25;font-family:sans-serif;letter-spacing:0px;word-spacing:0px;fill:#000000;fill-opacity:1;stroke:none;stroke-width:0.26458332"
         x="92.995621"
         y="211.92162"
         id="text2074-2"><tspan
           sodipodi:role="line"
           id="tspan2072-0"
           x="92.995621"
           y="211.92162"
           style="font-size:3.17499995px;stroke-width:0.26458332">origin</tspan></text>
      <circle
         style="opacity:0.95;fill:#000000;fill-opacity:1;stroke:#000000;stroke-width:0.46499997;stroke-linejoin:round;stroke-miterlimit:4;stroke-dasharray:none;stroke-dashoffset:0;stroke-opacity:1"
         id="path2414"
         cx="101.00232"
         cy="208.22284"
         r="0.56696427" />
      <path
         style="fill:none;stroke:#c4c4c4;stroke-width:0.36500001;stroke-linecap:butt;stroke-linejoin:miter;stroke-miterlimit:4;stroke-dasharray:none;stroke-opacity:1"
         d="m 96.572916,153.55804 68.791664,47.81399"
         id="path2416"
         inkscape:connector-curvature="0" />
      <path
         style="fill:none;stroke:#000000;stroke-width:0.26458332px;stroke-linecap:butt;stroke-linejoin:round;stroke-opacity:1;marker-start:url(#Arrow1Mstart);marker-end:url(#marker2428)"
         d="m 101.82028,207.23361 26.31365,-31.18599"
         id="path2418"
         inkscape:connector-curvature="0"
         sodipodi:nodetypes="cc" />
      <g
         transform="matrix(0.45511907,0,0,0.32600922,62.539718,173.86377)"
         ns1:version="0.11.0"
         ns1:texconverter="pdflatex"
         ns1:pdfconverter="pdf2svg"
         ns1:text="$k\\left(x, y\\right)$"
         ns1:preamble="/home/edwin/.config/inkscape/extensions/textext/default_packages.tex"
         ns1:scale="1.0"
         ns1:alignment="middle center"
         inkscapeversion="0.92.3"
         ns1:jacobian_sqrt="0.352778"
         id="g3047">
        <g
           id="surface1">
          <g
             style="fill:#000000;fill-opacity:1"
             id="g3026">
            <path
               inkscape:connector-curvature="0"
               style="stroke:none;stroke-width:0"
               d="m 2.859375,-6.8125 c 0,0 0,-0.109375 -0.125,-0.109375 -0.234375,0 -0.953125,0.078125 -1.21875,0.109375 -0.078125,0 -0.1875,0.015625 -0.1875,0.1875 0,0.125 0.09375,0.125 0.234375,0.125 0.484375,0 0.5,0.0625 0.5,0.171875 L 2.03125,-6.125 0.59375,-0.390625 c -0.046875,0.140625 -0.046875,0.15625 -0.046875,0.21875 0,0.234375 0.203125,0.28125 0.296875,0.28125 0.125,0 0.265625,-0.09375 0.328125,-0.203125 0.046875,-0.09375 0.5,-1.9375 0.5625,-2.1875 0.34375,0.03125 1.15625,0.1875 1.15625,0.84375 0,0.078125 0,0.109375 -0.03125,0.21875 -0.015625,0.109375 -0.03125,0.234375 -0.03125,0.34375 0,0.578125 0.390625,0.984375 0.90625,0.984375 0.296875,0 0.578125,-0.15625 0.796875,-0.53125 0.25,-0.4375 0.359375,-0.984375 0.359375,-1 0,-0.109375 -0.09375,-0.109375 -0.125,-0.109375 -0.09375,0 -0.109375,0.046875 -0.140625,0.1875 -0.203125,0.71875 -0.421875,1.234375 -0.859375,1.234375 -0.203125,0 -0.328125,-0.109375 -0.328125,-0.46875 0,-0.171875 0.046875,-0.40625 0.078125,-0.5625 C 3.5625,-1.3125 3.5625,-1.34375 3.5625,-1.453125 3.5625,-2.09375 2.9375,-2.375 2.078125,-2.5 2.390625,-2.671875 2.71875,-2.984375 2.9375,-3.234375 3.421875,-3.765625 3.875,-4.1875 4.359375,-4.1875 c 0.0625,0 0.078125,0 0.09375,0.015625 0.125,0.015625 0.125,0.015625 0.21875,0.078125 0.015625,0 0.015625,0.015625 0.03125,0.03125 -0.46875,0.03125 -0.5625,0.421875 -0.5625,0.546875 0,0.15625 0.109375,0.34375 0.375,0.34375 0.265625,0 0.546875,-0.21875 0.546875,-0.609375 0,-0.296875 -0.234375,-0.625 -0.671875,-0.625 -0.28125,0 -0.734375,0.078125 -1.453125,0.875 -0.34375,0.375 -0.734375,0.78125 -1.109375,0.921875 z m 0,0"
               transform="translate(148.712,134.765)"
               id="path3024" />
          </g>
          <g
             style="fill:#000000;fill-opacity:1"
             id="g3030">
            <path
               inkscape:connector-curvature="0"
               style="stroke:none;stroke-width:0"
               d="m 3.296875,2.390625 c 0,-0.03125 0,-0.046875 -0.171875,-0.21875 C 1.890625,0.921875 1.5625,-0.96875 1.5625,-2.5 c 0,-1.734375 0.375,-3.46875 1.609375,-4.703125 0.125,-0.125 0.125,-0.140625 0.125,-0.171875 0,-0.078125 -0.03125,-0.109375 -0.09375,-0.109375 -0.109375,0 -1,0.6875 -1.59375,1.953125 -0.5,1.09375 -0.625,2.203125 -0.625,3.03125 0,0.78125 0.109375,1.984375 0.65625,3.125 C 2.25,1.84375 3.09375,2.5 3.203125,2.5 c 0.0625,0 0.09375,-0.03125 0.09375,-0.109375 z m 0,0"
               transform="translate(155.873,134.765)"
               id="path3028" />
          </g>
          <g
             style="fill:#000000;fill-opacity:1"
             id="g3036">
            <path
               inkscape:connector-curvature="0"
               style="stroke:none;stroke-width:0"
               d="M 3.328125,-3.015625 C 3.390625,-3.265625 3.625,-4.1875 4.3125,-4.1875 c 0.046875,0 0.296875,0 0.5,0.125 C 4.53125,-4 4.34375,-3.765625 4.34375,-3.515625 c 0,0.15625 0.109375,0.34375 0.375,0.34375 0.21875,0 0.53125,-0.171875 0.53125,-0.578125 0,-0.515625 -0.578125,-0.65625 -0.921875,-0.65625 -0.578125,0 -0.921875,0.53125 -1.046875,0.75 -0.25,-0.65625 -0.78125,-0.75 -1.078125,-0.75 -1.03125,0 -1.609375,1.28125 -1.609375,1.53125 0,0.109375 0.109375,0.109375 0.125,0.109375 0.078125,0 0.109375,-0.03125 0.125,-0.109375 0.34375,-1.0625 1,-1.3125 1.34375,-1.3125 0.1875,0 0.53125,0.09375 0.53125,0.671875 0,0.3125 -0.171875,0.96875 -0.53125,2.375 -0.15625,0.609375 -0.515625,1.03125 -0.953125,1.03125 -0.0625,0 -0.28125,0 -0.5,-0.125 0.25,-0.0625 0.46875,-0.265625 0.46875,-0.546875 0,-0.265625 -0.21875,-0.34375 -0.359375,-0.34375 -0.3125,0 -0.546875,0.25 -0.546875,0.578125 0,0.453125 0.484375,0.65625 0.921875,0.65625 0.671875,0 1.03125,-0.703125 1.046875,-0.75 0.125,0.359375 0.484375,0.75 1.078125,0.75 1.03125,0 1.59375,-1.28125 1.59375,-1.53125 0,-0.109375 -0.078125,-0.109375 -0.109375,-0.109375 -0.09375,0 -0.109375,0.046875 -0.140625,0.109375 -0.328125,1.078125 -1,1.3125 -1.3125,1.3125 -0.390625,0 -0.546875,-0.3125 -0.546875,-0.65625 0,-0.21875 0.046875,-0.4375 0.15625,-0.875 z m 0,0"
               transform="translate(159.747,134.765)"
               id="path3032" />
            <path
               inkscape:connector-curvature="0"
               style="stroke:none;stroke-width:0"
               d="m 2.03125,-0.015625 c 0,-0.65625 -0.25,-1.046875 -0.640625,-1.046875 -0.328125,0 -0.53125,0.25 -0.53125,0.53125 C 0.859375,-0.265625 1.0625,0 1.390625,0 1.5,0 1.640625,-0.046875 1.734375,-0.125 1.765625,-0.15625 1.78125,-0.15625 1.78125,-0.15625 c 0.015625,0 0.015625,0 0.015625,0.140625 0,0.75 -0.34375,1.34375 -0.671875,1.671875 -0.109375,0.109375 -0.109375,0.125 -0.109375,0.15625 0,0.078125 0.046875,0.109375 0.09375,0.109375 0.109375,0 0.921875,-0.765625 0.921875,-1.9375 z m 0,0"
               transform="translate(165.44063,134.765)"
               id="path3034" />
          </g>
          <g
             style="fill:#000000;fill-opacity:1"
             id="g3040">
            <path
               inkscape:connector-curvature="0"
               style="stroke:none;stroke-width:0"
               d="m 4.84375,-3.796875 c 0.046875,-0.140625 0.046875,-0.15625 0.046875,-0.234375 0,-0.171875 -0.140625,-0.265625 -0.296875,-0.265625 -0.09375,0 -0.25,0.0625 -0.34375,0.203125 -0.015625,0.0625 -0.109375,0.359375 -0.140625,0.546875 -0.078125,0.25 -0.140625,0.53125 -0.203125,0.796875 l -0.453125,1.796875 c -0.03125,0.140625 -0.46875,0.84375 -1.125,0.84375 -0.5,0 -0.609375,-0.4375 -0.609375,-0.8125 C 1.71875,-1.375 1.890625,-2 2.21875,-2.875 2.375,-3.28125 2.421875,-3.390625 2.421875,-3.59375 c 0,-0.4375 -0.3125,-0.8125 -0.8125,-0.8125 -0.953125,0 -1.3125,1.453125 -1.3125,1.53125 0,0.109375 0.09375,0.109375 0.109375,0.109375 0.109375,0 0.109375,-0.03125 0.15625,-0.1875 0.28125,-0.9375 0.671875,-1.234375 1.015625,-1.234375 0.078125,0 0.25,0 0.25,0.3125 0,0.25 -0.109375,0.515625 -0.171875,0.703125 -0.40625,1.0625 -0.578125,1.625 -0.578125,2.09375 0,0.890625 0.625,1.1875 1.21875,1.1875 0.390625,0 0.71875,-0.171875 1,-0.453125 -0.125,0.515625 -0.25,1.015625 -0.640625,1.546875 -0.265625,0.328125 -0.640625,0.625 -1.09375,0.625 -0.140625,0 -0.59375,-0.03125 -0.765625,-0.421875 0.15625,0 0.296875,0 0.421875,-0.125 C 1.328125,1.203125 1.421875,1.0625 1.421875,0.875 1.421875,0.5625 1.15625,0.53125 1.0625,0.53125 0.828125,0.53125 0.5,0.6875 0.5,1.171875 c 0,0.5 0.4375,0.875 1.0625,0.875 1.015625,0 2.046875,-0.90625 2.328125,-2.03125 z m 0,0"
               transform="translate(169.87199,134.765)"
               id="path3038" />
          </g>
          <g
             style="fill:#000000;fill-opacity:1"
             id="g3044">
            <path
               inkscape:connector-curvature="0"
               style="stroke:none;stroke-width:0"
               d="m 2.875,-2.5 c 0,-0.765625 -0.109375,-1.96875 -0.65625,-3.109375 -0.59375,-1.21875 -1.453125,-1.875 -1.546875,-1.875 -0.0625,0 -0.109375,0.046875 -0.109375,0.109375 0,0.03125 0,0.046875 0.1875,0.234375 0.984375,0.984375 1.546875,2.5625 1.546875,4.640625 0,1.71875 -0.359375,3.46875 -1.59375,4.71875 C 0.5625,2.34375 0.5625,2.359375 0.5625,2.390625 0.5625,2.453125 0.609375,2.5 0.671875,2.5 0.765625,2.5 1.671875,1.8125 2.25,0.546875 2.765625,-0.546875 2.875,-1.65625 2.875,-2.5 Z m 0,0"
               transform="translate(175.111,134.765)"
               id="path3042" />
          </g>
        </g>
      </g>
      <rect
         ry="1.4222957"
         y="137.70737"
         x="158.49083"
         height="13.096207"
         width="32.60688"
         id="rect3104"
         style="opacity:0.95;fill:#f3f3f3;fill-opacity:0.3761468;stroke:#c4c4c4;stroke-width:0.36500001;stroke-linejoin:round;stroke-miterlimit:4;stroke-dasharray:none;stroke-dashoffset:0;stroke-opacity:1" />
      <circle
         style="opacity:0.95;fill:#00ff4d;fill-opacity:0.44954128;stroke:#00a434;stroke-width:0.46499997;stroke-linejoin:round;stroke-miterlimit:4;stroke-dasharray:none;stroke-dashoffset:0;stroke-opacity:1"
         id="path2076-1-8-2-5-3-4-9-0-2-0-7"
         cx="161.16353"
         cy="141.24641"
         r="1.3229166" />
      <text
         id="text3138"
         y="142.40775"
         x="163.28572"
         style="font-style:normal;font-weight:normal;font-size:10.58333302px;line-height:1.25;font-family:sans-serif;letter-spacing:0px;word-spacing:0px;fill:#000000;fill-opacity:1;stroke:none;stroke-width:0.26458332"
         xml:space="preserve"><tspan
           style="font-size:3.17499995px;stroke-width:0.26458332"
           y="142.40775"
           x="163.28572"
           id="tspan3136"
           sodipodi:role="line">Training samples</tspan></text>
      <text
         id="text3138-1"
         y="148.58679"
         x="163.22189"
         style="font-style:normal;font-weight:normal;font-size:10.58333302px;line-height:1.25;font-family:sans-serif;letter-spacing:0px;word-spacing:0px;fill:#000000;fill-opacity:1;stroke:none;stroke-width:0.26458332"
         xml:space="preserve"><tspan
           style="font-size:3.17499995px;stroke-width:0.26458332"
           y="148.58679"
           x="163.22189"
           id="tspan3136-1"
           sodipodi:role="line">novelty samples</tspan></text>
      <rect
         ry="0"
         transform="rotate(-11.931008)"
         y="177.98189"
         x="69.941971"
         height="2.4568453"
         width="2.2678571"
         id="rect3162"
         style="opacity:0.95;fill:#f3f3f3;fill-opacity:1;stroke:#c4c4c4;stroke-width:0.36500001;stroke-linejoin:round;stroke-miterlimit:4;stroke-dasharray:none;stroke-dashoffset:0;stroke-opacity:1" />
      <rect
         ry="0"
         transform="rotate(-11.931008)"
         y="185.12639"
         x="76.786568"
         height="2.4568453"
         width="2.2678571"
         id="rect3162-9"
         style="opacity:0.95;fill:#f3f3f3;fill-opacity:1;stroke:#c4c4c4;stroke-width:0.36500001;stroke-linejoin:round;stroke-miterlimit:4;stroke-dasharray:none;stroke-dashoffset:0;stroke-opacity:1" />
      <rect
         ry="0"
         transform="rotate(-11.931008)"
         y="192.83081"
         x="83.995743"
         height="2.4568453"
         width="2.2678571"
         id="rect3162-9-0"
         style="opacity:0.95;fill:#f3f3f3;fill-opacity:1;stroke:#c4c4c4;stroke-width:0.36500001;stroke-linejoin:round;stroke-miterlimit:4;stroke-dasharray:none;stroke-dashoffset:0;stroke-opacity:1" />
      <rect
         ry="0"
         transform="rotate(-11.931008)"
         y="201.8941"
         x="92.607956"
         height="2.4568453"
         width="2.2678571"
         id="rect3162-9-0-5"
         style="opacity:0.95;fill:#f3f3f3;fill-opacity:1;stroke:#c4c4c4;stroke-width:0.36500001;stroke-linejoin:round;stroke-miterlimit:4;stroke-dasharray:none;stroke-dashoffset:0;stroke-opacity:1" />
      <rect
         ry="0"
         transform="rotate(-11.931008)"
         y="209.11151"
         x="99.340561"
         height="2.4568453"
         width="2.2678571"
         id="rect3162-9-0-5-6"
         style="opacity:0.95;fill:#f3f3f3;fill-opacity:1;stroke:#c4c4c4;stroke-width:0.36500001;stroke-linejoin:round;stroke-miterlimit:4;stroke-dasharray:none;stroke-dashoffset:0;stroke-opacity:1" />
      <rect
         ry="0"
         transform="rotate(-11.931008)"
         y="218.21126"
         x="107.89677"
         height="2.4568453"
         width="2.2678571"
         id="rect3162-9-0-5-6-7"
         style="opacity:0.95;fill:#f3f3f3;fill-opacity:1;stroke:#c4c4c4;stroke-width:0.36500001;stroke-linejoin:round;stroke-miterlimit:4;stroke-dasharray:none;stroke-dashoffset:0;stroke-opacity:1" />
      <rect
         ry="0"
         transform="rotate(-11.931008)"
         y="226.96783"
         x="116.16688"
         height="2.4568453"
         width="2.2678571"
         id="rect3162-9-0-5-6-7-7"
         style="opacity:0.95;fill:#f3f3f3;fill-opacity:1;stroke:#c4c4c4;stroke-width:0.36500001;stroke-linejoin:round;stroke-miterlimit:4;stroke-dasharray:none;stroke-dashoffset:0;stroke-opacity:1" />
      <text
         id="text3138-4"
         y="185.08817"
         x="159.36313"
         style="font-style:normal;font-weight:normal;font-size:10.58333302px;line-height:1.25;font-family:sans-serif;letter-spacing:0px;word-spacing:0px;fill:#000000;fill-opacity:1;stroke:none;stroke-width:0.26458332"
         xml:space="preserve"><tspan
           style="font-size:3.17499995px;stroke-width:0.26458332"
           y="185.08817"
           x="159.36313"
           id="tspan3136-0"
           sodipodi:role="line">Support vectors</tspan></text>
      <path
         sodipodi:nodetypes="cc"
         inkscape:connector-curvature="0"
         id="path3293"
         d="m 170.18387,186.75132 -6.95144,10.26098"
         style="fill:none;stroke:#000000;stroke-width:0.26499999;stroke-linecap:butt;stroke-linejoin:miter;stroke-miterlimit:4;stroke-dasharray:none;stroke-opacity:1;marker-end:url(#marker3303)" />
      <path
         sodipodi:nodetypes="cccc"
         inkscape:connector-curvature="0"
         id="path3595"
         d="m 106.79391,192.88692 h 2.94969 l -1.49192,-2.35471 z"
         style="fill:#ff2700;fill-opacity:0.44954128;stroke:#ff0000;stroke-width:0.465;stroke-linecap:butt;stroke-linejoin:miter;stroke-miterlimit:4;stroke-dasharray:none;stroke-opacity:1" />
      <path
         sodipodi:nodetypes="cccc"
         inkscape:connector-curvature="0"
         id="path3595-4"
         d="m 159.71925,148.57828 h 2.94969 l -1.49192,-2.35471 z"
         style="fill:#ff2700;fill-opacity:0.44954128;stroke:#ff0000;stroke-width:0.465;stroke-linecap:butt;stroke-linejoin:miter;stroke-miterlimit:4;stroke-dasharray:none;stroke-opacity:1" />
      <path
         sodipodi:nodetypes="cccc"
         inkscape:connector-curvature="0"
         id="path3595-8"
         d="m 102.74367,199.3922 h 2.94969 l -1.49192,-2.35471 z"
         style="fill:#ff2700;fill-opacity:0.44954128;stroke:#ff0000;stroke-width:0.465;stroke-linecap:butt;stroke-linejoin:miter;stroke-miterlimit:4;stroke-dasharray:none;stroke-opacity:1" />
      <path
         sodipodi:nodetypes="cccc"
         inkscape:connector-curvature="0"
         id="path3595-8-5"
         d="m 108.98029,205.81779 h 2.94969 l -1.49192,-2.35471 z"
         style="fill:#ff2700;fill-opacity:0.44954128;stroke:#ff0000;stroke-width:0.465;stroke-linecap:butt;stroke-linejoin:miter;stroke-miterlimit:4;stroke-dasharray:none;stroke-opacity:1" />
      <path
         sodipodi:nodetypes="cccc"
         inkscape:connector-curvature="0"
         id="path3595-8-5-8"
         d="m 114.64993,201.84905 h 2.94969 l -1.49192,-2.35471 z"
         style="fill:#ff2700;fill-opacity:0.44954128;stroke:#ff0000;stroke-width:0.465;stroke-linecap:butt;stroke-linejoin:miter;stroke-miterlimit:4;stroke-dasharray:none;stroke-opacity:1" />
      <path
         sodipodi:nodetypes="cccc"
         inkscape:connector-curvature="0"
         id="path3595-8-5-8-2"
         d="m 119.94159,205.06184 h 2.94969 l -1.49192,-2.35471 z"
         style="fill:#ff2700;fill-opacity:0.44954128;stroke:#ff0000;stroke-width:0.465;stroke-linecap:butt;stroke-linejoin:miter;stroke-miterlimit:4;stroke-dasharray:none;stroke-opacity:1" />
    </g>
  </g>
</svg>
